<svg width="1920" height="1341" viewBox="0 0 1920 1341" fill="none" xmlns="http://www.w3.org/2000/svg">
<path d="M490 179C427.5 200.667 219.704 308.042 147 510.5C75 711 100.5 930.5 200 978.5C311.678 1032.37 465.5 1048.5 731.5 1013.5C997.5 978.5 1244.5 939 1417.5 874.5C1555.9 822.9 1662.5 768.5 1768 672.5C1808.7 635.467 1942.9 495.7 1904.5 326.5C1866.1 157.3 1675.83 39 1585.5 1" stroke="#E4E4F4"/>
<path d="M567 182.5C466.667 221.667 263.4 349.7 253 548.5C240 797 406.5 826.5 496.5 838C586.5 849.5 890.5 838 1194.5 761C1498.5 684 1929.5 490 1493.5 109" stroke="#E4E4F4"/>
<path d="M780.999 143.5C643.833 249 417.499 465.6 609.499 488C801.499 510.4 1070.83 474.667 1181.5 454C1328.5 416 1552.6 300.7 1273 143.5" stroke="#E4E4F4"/>
<path d="M1011.5 166C946.665 209.833 846.099 298.4 962.499 302C1108 306.5 1258 267 1201 166" stroke="#E4E4F4"/>
<path d="M373.5 148C28.4991 203.5 -236.001 716.5 78.499 1182.5C351.657 1587.24 1758 1130.5 1975 730" stroke="#E4E4F4"/>
</svg>
