<?xml version="1.0" encoding="UTF-8" standalone="no" ?>
<!DOCTYPE svg PUBLIC "-//W3C//DTD SVG 1.1//EN" "http://www.w3.org/Graphics/SVG/1.1/DTD/svg11.dtd">
<svg xmlns="http://www.w3.org/2000/svg" xmlns:xlink="http://www.w3.org/1999/xlink" version="1.1" width="1080" height="1080" viewBox="0 0 1080 1080" xml:space="preserve">
<desc>Created with Fabric.js 5.2.4</desc>
<defs>
</defs>
<g transform="matrix(1 0 0 1 540 540)" id="d191f566-2257-40fd-8980-43f5b090128f"  >
<rect style="stroke: none; stroke-width: 1; stroke-dasharray: none; stroke-linecap: butt; stroke-dashoffset: 0; stroke-linejoin: miter; stroke-miterlimit: 4; fill: rgb(255,255,255); fill-rule: nonzero; opacity: 1; visibility: hidden;" vector-effect="non-scaling-stroke"  x="-540" y="-540" rx="0" ry="0" width="1080" height="1080" />
</g>
<g transform="matrix(1 0 0 1 540 540)" id="5cd86e5c-c545-42c5-b57f-e8ff68d6e4ba"  >
</g>
<g transform="matrix(1.67 0 0 1.67 540 540)"  >
<g style="" vector-effect="non-scaling-stroke"   >
		<g transform="matrix(1.56 0 0 1.56 -6.63 196.08)"  >
<path style="stroke: none; stroke-width: 1; stroke-dasharray: none; stroke-linecap: butt; stroke-dashoffset: 0; stroke-linejoin: miter; stroke-miterlimit: 4; fill: rgb(0,0,0); fill-rule: nonzero; opacity: 1;" vector-effect="non-scaling-stroke"  transform=" translate(-251.83, -367.39)" d="M 382 359.36 L 122.5 359.36 C 117.27478688216492 359.73017279868765 112.28005912608181 357.15236848371836 109.55469357874527 352.6788617316194 C 106.82932803140875 348.20535497952045 106.82932803140875 342.58464502047957 109.55469357874527 338.1111382683806 C 112.2800591260818 333.63763151628166 117.2747868821649 331.0598272013124 122.49999999999999 331.43 L 154.09 331.43 L 154.09 314.43 L 122.5 314.43 C 111.08602463550837 313.88715843274036 100.2989117411346 319.6674575322228 94.42943295450013 329.4716775094374 C 88.55995416786564 339.2758974866521 88.55995416786564 351.5141025133479 94.42943295450011 361.31832249056254 C 100.29891174113459 371.1225424677772 111.08602463550835 376.90284156725966 122.49999999999999 376.36 L 382 376.36 C 386.99843199615486 376.0878190725615 391.7381706214079 378.59972171464784 394.319284002306 382.888807700309 C 396.90039738320405 387.1778936859701 396.90039738320405 392.5421063140299 394.319284002306 396.83119229969105 C 391.73817062140796 401.1202782853522 386.99843199615486 403.63218092743847 382 403.36 L 350.81 403.36 L 350.81 420.36 L 382 420.36 C 393.16003292641597 420.76421901186234 403.649752976436 415.0409775656681 409.3497325089704 405.43785509134085 C 415.0497120415049 395.8347326170137 415.0497120415049 383.88526738298634 409.3497325089704 374.2821449086592 C 403.649752976436 364.67902243433196 393.16003292641597 358.9557809881377 382 359.36 Z" stroke-linecap="round" />
</g>
		<g transform="matrix(1.56 0 0 1.56 60.48 265.61)"  >
<rect style="stroke: none; stroke-width: 1; stroke-dasharray: none; stroke-linecap: butt; stroke-dashoffset: 0; stroke-linejoin: miter; stroke-miterlimit: 4; fill: rgb(0,0,0); fill-rule: nonzero; opacity: 1;" vector-effect="non-scaling-stroke"  x="-28.92" y="-8.5" rx="0" ry="0" width="57.84" height="17" />
</g>
		<g transform="matrix(1.56 0 0 1.56 -3.6 -114.37)"  >
<path style="stroke: none; stroke-width: 1; stroke-dasharray: none; stroke-linecap: butt; stroke-dashoffset: 0; stroke-linejoin: miter; stroke-miterlimit: 4; fill: rgb(0,0,0); fill-rule: nonzero; opacity: 1;" vector-effect="non-scaling-stroke"  transform=" translate(-253.77, -168.7)" d="M 163.09 274 L 191.71 274 C 192.71019766831355 267.71986543888414 194.71590975912864 261.6419500121718 197.65 256 L 163.09 256 C 133.74 256 109.47 232.6 108.99000000000001 203.82999999999998 C 108.74049865533449 189.5945223752935 114.22144644934562 175.8558058361295 124.20117292210057 165.70119438844216 C 134.1808993948555 155.5465829407548 147.82233623993784 149.82781369678247 162.05999999999997 149.82999999999998 L 162.06 140.82999999999998 L 162.16 149.82999999999998 L 162.23 149.82999999999998 C 163.99353566281582 149.82375887667018 165.75211822042843 149.64287609931574 167.48 149.29 C 173.84382116182974 156.06990824098628 177.43044454137592 164.991856946325 177.53 174.28999999999996 L 197.87 173.72 C 197.68553906384042 160.50426791683597 192.88510882408528 147.7691545320765 184.30000000000004 137.72000000000003 C 185.54649254967921 135.72527040311675 186.51223805571328 133.56832660740997 187.17000000000002 131.31 C 195.79404051318352 101.72371288546965 222.91243260741606 81.38142520538116 253.73000000000002 81.38142520538116 C 284.54756739258397 81.38142520538116 311.6659594868165 101.72371288546964 320.29 131.30999999999997 C 323.48095744568855 142.40009372297322 333.6703597380061 150.00534583521664 345.21000000000004 149.91 L 345.42 149.91 C 359.6576637600622 149.90781369678245 373.2991006051445 155.6265829407548 383.27882707789945 165.78119438844215 C 393.25855355065437 175.93580583612948 398.73950134466554 189.6745223752935 398.49 203.90999999999997 C 398.38039844137984 211.3165343621743 396.67497258059274 218.61234619462152 393.49 225.3 C 399.350833287681 226.74453099729303 404.95582702315187 229.0782588342039 410.11 232.22 C 414.179943947079 223.43675430106083 416.36681265075066 213.89900917601298 416.53000000000003 204.22000000000003 C 416.85448334299036 185.16137692152984 409.5105876993731 166.7710235934961 396.147338976004 153.1783790147378 C 382.7840902526349 139.58573443597948 364.52138513016865 131.92991962865125 345.46000000000004 131.93 L 345.27000000000004 131.93 C 341.7451092496691 131.98397098714224 338.6165517665894 129.68151626430057 337.62000000000006 126.30000000000001 C 326.75517642635293 89.02876049809355 292.5925409433097 63.40285376137579 253.77000000000007 63.40285376137579 C 214.94745905669046 63.40285376137579 180.7848235736472 89.02876049809358 169.92000000000007 126.30000000000005 C 168.91556516015717 129.6976022104 165.76220638163707 132.00323986274648 162.22000000000008 131.93 L 162.0800000000001 131.93 C 143.030983473316 131.9275926873712 124.77812767533007 139.57127450374676 111.415077710866 153.14676462662166 C 98.05202774640193 166.72225474949659 90.69716657767115 185.09339063383305 91 204.14 C 91.63 242.67 124 274 163.09 274 Z" stroke-linecap="round" />
</g>
		<g transform="matrix(1.56 0 0 1.56 92.11 28.07)"  >
<path style="stroke: none; stroke-width: 1; stroke-dasharray: none; stroke-linecap: butt; stroke-dashoffset: 0; stroke-linejoin: miter; stroke-miterlimit: 4; fill: rgb(0,0,0); fill-rule: nonzero; opacity: 1;" vector-effect="non-scaling-stroke"  transform=" translate(-315.02, -259.86)" d="M 366.43 229.05 C 358.5099173373015 206.74413039844828 337.1083751940732 192.09130979710574 313.44803429741955 192.77526646206974 C 289.787693400766 193.4592231270337 269.2683287944725 209.32386412005638 262.65 232.05000000000007 C 261.1694332525305 237.089226487918 256.52196947464444 240.53194350440126 251.26999999999998 240.48000000000002 L 251.17 240.48000000000002 C 239.5708718599302 240.48089071886747 228.4584355315639 245.14187943953996 220.32932948728063 253.41577872125325 C 212.20022344299733 261.6896780029665 207.73612999788963 272.8826636064406 207.94 284.48 C 208.34 308.18 228.17 326.97 251.88 326.97 L 378.17 326.97 C 401.88 326.97 421.71000000000004 308.18 422.11 284.48 C 422.5070381864728 261.0703063692386 404.1996348342169 241.5970804790545 380.81 240.55 C 372.531929949629 246.6685356194255 367.5924365888629 256.3070226642163 367.46 266.6 L 349.46 266.09000000000003 C 349.6293711204046 251.90024707133907 355.79416356851283 238.44450680746576 366.43 229.05 Z" stroke-linecap="round" />
</g>
</g>
</g>
</svg>