<svg xmlns="http://www.w3.org/2000/svg" viewBox="0 0 1364 960"><defs><linearGradient id="a" x1="681.9" x2="681.9" y1="922.43" y2="210.94" gradientUnits="userSpaceOnUse"><stop offset="0" stop-color="#ffefae"/><stop offset="1" stop-color="#92fcff"/></linearGradient></defs><g data-name="Layer 1"><rect width="1364" height="960" x="-.1" fill="url(#a)"/><path fill="#fff" d="M631.11,221.34a37.37,37.37,0,0,1,6.82.63,49.85,49.85,0,0,1-.31-5.5,49.35,49.35,0,0,1,97.11-12.41c8.87-3.06,38.3-11.68,38.9,8.94,0,0,19.8-3.77,19.09,15.32,0,0,20.74-1.65,28.29,18.39l64.35,12.49L596.83,270.52v-.08h0a36.52,36.52,0,0,1,34.29-49.09Z"/><path fill="#d8ede6" d="M628.8,221.41a36.76,36.76,0,0,1,9.13.56,49.85,49.85,0,0,1-.31-5.5,49.34,49.34,0,0,1,41.29-48.68S638,195.63,656.44,224.48h-.08c-21.31.8-21.28,32.43,0,33.23l136.35,5.13h0l-195.91,7.68v-.08h0a36.53,36.53,0,0,1,32-49Z"/><path fill="#defff7" d="M1364.1,457.18V737.67c-44.91,20.29-96,35.28-152.31,45.8C908.71,840.15,454.69,767.42.1,694.22V479.34a109.39,109.39,0,0,1,8.11-9.66c22.29-23.67,56.37-36,88.31-32.74a89.14,89.14,0,0,1,37,12.13c15.29,9.21,28.34,24.37,29.58,42.2,10.13-10.54,29.48-9.86,38.82,1.37,8.66-12.2,27.91-15.08,39.77-6-6.27-23.38-2.52-49.1,9.33-70.15a90,90,0,0,1,15.55-20.3c23.51-22.87,59.68-31.77,91.12-22.41,23.13,6.88,44.33,24.93,48.56,48.7,8.81-5.17,21.23-3,27.73,4.9,5.71-9.14,11.67-18.56,20.65-24.51s21.85-7.45,30.12-.55c-3.1-63,60.06-104.07,116.83-104.07,62.88,0,127.34,37.62,134.27,84.69,20.57-9.44,48.18,6.43,50.38,29,41.56-25.32,96.54-30.9,139.21-7.51s68,78.06,51.52,123.89c39.79-20.36,94.17,1.38,102.15,45.35,17.7-22.93,43.52-15.38,62.95-3.07,4.54-34.33,21-68.64,45.09-94.63,23.66-25.57,54.58-43.09,88.62-44.68C1307.12,429.82,1338.17,439.67,1364.1,457.18Z"/><path fill="#fff" d="M1364.1,657.52v233H.1V676.18c2-2.53,4.11-5,6.34-7.35C37.83,635.5,92.6,624.57,131.81,648.2c15.29,9.23,28.34,24.39,29.58,42.2,10.11-10.54,29.47-9.84,38.82,1.39,8.65-12.22,27.9-15.1,39.75-6-8.48-31.67,1.4-67.59,24.9-90.46S324.54,563.6,356,573c23.13,6.89,44.33,24.94,48.56,48.71,8.81-5.17,21.21-3,27.73,4.89,5.71-9.12,11.67-18.55,20.65-24.5s21.85-7.45,30.12-.55c-3.1-63,60.06-104.06,116.83-104.06,62.86,0,127.34,37.61,134.27,84.68,20.57-9.43,48.18,6.43,50.38,29,41.56-25.32,96.54-30.91,139.21-7.51s68,78.06,51.52,123.88c33.42-17.09,77.11-4.49,95,26a58.94,58.94,0,0,1,7.16,19.33c10.93-14.16,25-16.7,38.68-13.66,8.49,1.87,16.85,5.88,24.28,10.59,4.32-32.71,19.5-65.39,41.72-90.89,21.41-24.57,49.33-42.46,80.37-47.26a109.12,109.12,0,0,1,11.62-1.17C1306.08,628.93,1337.81,639.26,1364.1,657.52Z"/><polygon fill="#a7e9c7" points="1349.46 339.29 1349.46 316.34 1329.02 316.34 1329.02 279.09 1325.38 279.09 1325.38 316.34 1319.17 316.34 1319.17 430.84 1312.66 430.84 1312.66 346.79 1300.85 346.79 1300.85 469.9 1195.59 402.82 1195.59 487.63 1186.2 487.63 1186.2 452.5 1179.84 452.5 1179.84 487.63 1168.93 487.63 1168.93 540.34 1158.03 540.34 1158.03 669.37 1149.55 669.37 1149.55 599.71 1116.23 599.71 1116.23 441.05 1053.83 373.14 1034.14 373.14 1034.14 425.24 949.33 425.24 949.33 446.44 936.61 446.44 936.61 494.9 918.74 494.9 918.74 398.58 838.16 398.58 838.16 517.92 755.17 517.92 755.17 562.15 733.82 562.15 733.82 613.03 717 613.03 717 677.55 707.84 677.55 707.84 615.99 700.88 615.99 700.88 592.97 694.82 592.97 694.82 615.99 686.94 615.99 686.94 595.92 683.91 595.92 683.91 615.99 665.44 615.99 665.44 677.55 660.21 677.55 660.21 547.61 649.76 547.61 649.76 522.54 646.58 522.54 646.58 547.61 639.08 547.61 639.08 540.34 612.81 540.34 612.81 547.61 603.42 547.61 603.42 647.57 597.36 647.57 597.36 543.97 576.76 543.97 576.76 603.64 559.35 603.64 559.35 626.97 546.47 626.97 546.47 581.53 543.14 581.53 543.14 626.97 534.96 626.97 534.96 728.14 534.96 860.81 1195.59 860.81 1319.17 860.81 1364 860.81 1364 794.47 1364 728.14 1364 440.84 1364 430.84 1364 339.29 1349.46 339.29"/><rect width="26.66" height="5" x="764.32" y="528.37" fill="#fff"/><rect width="26.66" height="5" x="805.9" y="528.37" fill="#fff"/><rect width="26.66" height="5" x="764.32" y="547.61" fill="#fff"/><rect width="26.66" height="5" x="805.9" y="547.61" fill="#fff"/><rect width="26.66" height="5" x="764.32" y="566.84" fill="#fff"/><rect width="26.66" height="5" x="805.9" y="566.84" fill="#fff"/><rect width="26.66" height="5" x="764.32" y="586.08" fill="#fff"/><rect width="26.66" height="5" x="805.9" y="586.08" fill="#fff"/><rect width="26.66" height="5" x="764.32" y="605.31" fill="#fff"/><rect width="26.66" height="5" x="805.9" y="605.31" fill="#fff"/><rect width="26.66" height="5" x="764.32" y="624.54" fill="#fff"/><rect width="26.66" height="5" x="805.9" y="624.54" fill="#fff"/><rect width="26.66" height="5" x="764.32" y="643.78" fill="#fff"/><rect width="26.66" height="5" x="805.9" y="643.78" fill="#fff"/><rect width="26.66" height="5" x="764.32" y="663.01" fill="#fff"/><rect width="26.66" height="5" x="805.9" y="663.01" fill="#fff"/><rect width="26.66" height="5" x="764.32" y="682.25" fill="#fff"/><rect width="26.66" height="5" x="805.9" y="682.25" fill="#fff"/><rect width="26.66" height="5" x="764.32" y="701.48" fill="#fff"/><rect width="26.66" height="5" x="805.9" y="701.48" fill="#fff"/><rect width="26.66" height="5" x="764.32" y="720.71" fill="#fff"/><rect width="26.66" height="5" x="805.9" y="720.71" fill="#fff"/><rect width="26.66" height="5" x="764.32" y="739.95" fill="#fff"/><rect width="26.66" height="5" x="805.9" y="739.95" fill="#fff"/><rect width="8.48" height="320.24" x="1091.84" y="439.59" fill="#fff"/><rect width="8.48" height="241.9" x="1061.09" y="517.92" fill="#fff"/><rect width="4.1" height="253.6" x="953.67" y="474.53" fill="#fff"/><rect width="4.1" height="253.6" x="977.68" y="474.53" fill="#fff"/><rect width="4.1" height="253.6" x="1001.69" y="474.53" fill="#fff"/><rect width="4.1" height="253.6" x="1025.7" y="474.53" fill="#fff"/><rect width="82.24" height="6.59" x="1208.45" y="476.81" fill="#fff"/><rect width="82.24" height="6.59" x="1208.45" y="502.7" fill="#fff"/><rect width="82.24" height="6.59" x="1208.45" y="528.6" fill="#fff"/><rect width="82.24" height="6.59" x="1208.45" y="554.5" fill="#fff"/><rect width="82.24" height="6.59" x="1208.45" y="580.4" fill="#fff"/><rect width="82.24" height="6.59" x="1208.45" y="606.29" fill="#fff"/><rect width="82.24" height="6.59" x="1208.45" y="632.19" fill="#fff"/><rect width="82.24" height="6.59" x="1208.45" y="658.09" fill="#fff"/><rect width="82.24" height="6.59" x="1208.45" y="683.99" fill="#fff"/><rect width="82.24" height="6.59" x="1208.45" y="709.89" fill="#fff"/><rect width="82.24" height="6.59" x="1208.45" y="735.78" fill="#fff"/><rect width="82.24" height="6.59" x="1208.45" y="761.68" fill="#fff"/><rect width="82.24" height="6.59" x="1208.45" y="787.58" fill="#fff"/><rect width="82.24" height="6.59" x="1208.45" y="813.48" fill="#fff"/><rect width="14.54" height="14.54" x="848.83" y="407.97" fill="#fff"/><rect width="14.54" height="14.54" x="871.18" y="407.97" fill="#fff"/><rect width="14.54" height="14.54" x="848.83" y="433.87" fill="#fff"/><rect width="14.54" height="14.54" x="893.53" y="433.87" fill="#fff"/><rect width="14.54" height="14.54" x="871.18" y="459.77" fill="#fff"/><rect width="14.54" height="14.54" x="893.53" y="459.77" fill="#fff"/><rect width="14.54" height="14.54" x="848.83" y="485.67" fill="#fff"/><rect width="14.54" height="14.54" x="871.18" y="485.67" fill="#fff"/><rect width="14.54" height="14.54" x="871.18" y="511.56" fill="#fff"/><rect width="14.54" height="14.54" x="893.53" y="511.56" fill="#fff"/><rect width="5.91" height="121.84" x="611.44" y="563.78" fill="#fff"/><rect width="5.91" height="121.84" x="628.86" y="577.78" fill="#fff"/><rect width="5.91" height="121.84" x="646.81" y="563.62" fill="#fff"/><polygon fill="#573e25" points="566.14 696.44 565.74 696.29 556.74 704.66 555.87 691.25 554.52 691.26 553.73 705.01 541.94 695.92 541.56 696.09 553.61 707.13 552.22 731.27 558.47 731.25 556.89 706.99 566.14 696.44"/><path fill="#a6b72a" d="M584.56,689.54a16.31,16.31,0,0,1-29,7.37A15.38,15.38,0,0,1,529,684.08c0-.1,0-.19.06-.29a15.37,15.37,0,0,0,26.46,7.47,16.33,16.33,0,0,0,29-7.26A16.33,16.33,0,0,1,584.56,689.54Z"/><path fill="#afc637" d="M584.52,684a16.33,16.33,0,0,1-29,7.26,13.95,13.95,0,1,1-13.81-19.89,15.87,15.87,0,1,1,31.47-.1A16.39,16.39,0,0,1,584.52,684Z"/><path fill="#bfd142" d="M547,659.15c-2.23,2.58-3.07,5.51-1.89,6.53s4-.22,6.2-2.8,3.07-5.51,1.89-6.53S549.21,656.57,547,659.15Z"/><polygon fill="#573e25" points="976.7 724.75 976.3 724.61 967.3 732.97 966.43 719.57 965.08 719.57 964.29 733.33 952.5 724.24 952.12 724.4 964.17 735.44 962.78 759.59 969.03 759.56 967.45 735.31 976.7 724.75"/><path fill="#a6b72a" d="M995.12,717.85a16.31,16.31,0,0,1-29,7.38,15.38,15.38,0,0,1-26.55-12.84,2.8,2.8,0,0,1,.06-.28,15.37,15.37,0,0,0,26.46,7.47,16.33,16.33,0,0,0,29-7.26A16.28,16.28,0,0,1,995.12,717.85Z"/><path fill="#afc637" d="M995.08,712.32a16.33,16.33,0,0,1-29,7.26,13.95,13.95,0,1,1-13.82-19.9,15.88,15.88,0,1,1,31.48-.09A16.37,16.37,0,0,1,995.08,712.32Z"/><path fill="#bfd142" d="M957.53,687.47c-2.23,2.58-3.08,5.5-1.89,6.53s4-.23,6.2-2.81,3.07-5.5,1.88-6.53S959.76,684.89,957.53,687.47Z"/><polygon fill="#573e25" points="76 654.14 75.4 653.93 62.13 666.27 60.85 646.5 58.86 646.51 57.69 666.79 40.31 653.39 39.75 653.63 57.52 669.91 55.48 705.5 64.68 705.47 62.36 669.71 76 654.14"/><path fill="#a6b72a" d="M103.15,644a24.05,24.05,0,0,1-42.79,10.88,22.67,22.67,0,0,1-39.13-18.93,3.1,3.1,0,0,1,.08-.42,22.67,22.67,0,0,0,39,11,24.07,24.07,0,0,0,42.76-10.7A23.7,23.7,0,0,1,103.15,644Z"/><path fill="#afc637" d="M103.09,635.82a24.07,24.07,0,0,1-42.76,10.7,22.67,22.67,0,0,1-39-11A22.64,22.64,0,0,1,40,617.19a23.93,23.93,0,0,1,.08-6.91A23.41,23.41,0,0,1,86.35,617,24.17,24.17,0,0,1,103.09,635.82Z"/><path fill="#bfd142" d="M47.73,599.18c-3.29,3.8-4.53,8.11-2.78,9.63s5.84-.34,9.13-4.14,4.54-8.12,2.78-9.63S51,595.37,47.73,599.18Z"/><path fill="#573e25" d="M1256.22,731.67l-16.92-.06c5.74-12.71,4.31-40.86,5.5-74.19l3.53-.11C1251.05,687,1250.07,721,1256.22,731.67Z"/><path fill="#573e25" d="M1272.62,678.46a22.85,22.85,0,0,1-16.29,17.94c-2.41.67-5,1-7,2.54l.84,8.79c1.74-5.48,5.31-8.74,7.72-9.41,8.28-2.3,15.34-9.78,16.71-18.26Z"/><path fill="#573e25" d="M1244,703c-4.43-.54-9-7.57-11.32-11.39a27.34,27.34,0,0,1-1.44-2.86c-.32-.68-.64-1.39-1-2.05a7.88,7.88,0,0,0-3.31-3.6l.66-1.37a9.37,9.37,0,0,1,4,4.25c2.75,5.13,5.71,10.76,12.39,11.26Z"/><circle cx="1281.01" cy="685.35" r="12.12" fill="#567718" transform="rotate(-78.53 1280.958 685.361)"/><circle cx="1279.5" cy="680.44" r="6.81" fill="#678f1d"/><circle cx="1263.93" cy="677.74" r="12.12" fill="#afc637" transform="rotate(-78.53 1263.885 677.75)"/><circle cx="1262.43" cy="672.82" r="6.81" fill="#bfd142"/><circle cx="1282.23" cy="665.28" r="12.12" fill="#abc037" transform="rotate(-78.53 1282.171 665.292)"/><circle cx="1280.72" cy="660.37" r="6.81" fill="#bfd142"/><circle cx="1256.91" cy="652.82" r="12.94" fill="#567718" transform="rotate(-17.61 1256.619 652.708)"/><circle cx="1252.95" cy="649.02" r="7.28" fill="#678f1d"/><circle cx="1237.03" cy="654.58" r="12.94" fill="#afc637" transform="rotate(-17.61 1236.742 654.488)"/><circle cx="1233.07" cy="650.77" r="7.28" fill="#bfd142"/><circle cx="1247.63" cy="633.46" r="12.94" fill="#96b02e" transform="rotate(-17.61 1247.353 633.358)"/><circle cx="1243.67" cy="629.66" r="7.28" fill="#abc037"/><circle cx="1231.61" cy="677.22" r="9.74" fill="#567718" transform="rotate(-59.32 1231.65 677.22)"/><circle cx="1227.48" cy="677.06" r="5.48" fill="#678f1d"/><circle cx="1221.31" cy="688.16" r="9.74" fill="#afc637" transform="rotate(-59.3 1221.088 688.376)"/><circle cx="1217.18" cy="688.01" r="5.48" fill="#bfd142"/><circle cx="1216.7" cy="670.99" r="9.74" fill="#96b02e" transform="rotate(-59.32 1216.737 670.983)"/><circle cx="1212.57" cy="670.83" r="5.48" fill="#abc037"/><path fill="#567718" d="M918,787.93H905.36c-37.07,14.68-81.11,11.51-128.38,0a5.6,5.6,0,0,1,.67-1.94c1.32-2.33,4.24-3.78,7.39-4.17a13.26,13.26,0,0,1,2-.09,12.1,12.1,0,0,1,4.29.85,9.41,9.41,0,0,1,2,1.11,5.08,5.08,0,0,1-1.25-2.24,5.67,5.67,0,0,1,2.46-6,6.54,6.54,0,0,1,1.65-.83,9.11,9.11,0,0,1,9.32,2.62,14.06,14.06,0,0,1,2.39-15c4.28-4.79,12.47-7.19,19.61-5.38s12.47,7.93,11.59,13.84c1-2.38,3.87-4.14,7-4.3a9.13,9.13,0,0,1,7.85,3.59c-2.69-8.06,6.24-16.92,16.57-16.41s18.27,10,15.2,17.7c1.06-2.42,4.64-3.94,7.79-3.24s5.52,3.72,4.79,6.35a18.49,18.49,0,0,1,10.76.7,14.56,14.56,0,0,1,7.9,6.22A9.69,9.69,0,0,1,918,787.93Z"/><path fill="#678f1d" d="M822.69,770.75c1,4.39-.38,8.44-3.06,9s-5.65-2.47-6.64-6.86.39-8.44,3.07-9S821.71,766.36,822.69,770.75Z"/><path fill="#678f1d" d="M807.56,787.93h-7.23a12.34,12.34,0,0,1-.65-1.13c-1.54-3.13-1.25-6.44.66-7.37s4.71.83,6.25,4A8.71,8.71,0,0,1,807.56,787.93Z"/><path fill="#678f1d" d="M837.17,774.34c-.59,3.44-2.77,5.93-4.87,5.57s-3.31-3.44-2.72-6.88,2.78-5.93,4.87-5.57S837.77,770.9,837.17,774.34Z"/><path fill="#678f1d" d="M848.51,781.84c-.59,3.44-2.78,5.94-4.87,5.57s-3.32-3.44-2.72-6.88,2.77-5.93,4.87-5.57S849.1,778.41,848.51,781.84Z"/><path fill="#678f1d" d="M862.53,777.76c.94,3.36,0,6.54-2,7.12s-4.48-1.69-5.42-5,0-6.54,2-7.12S861.59,774.4,862.53,777.76Z"/><path fill="#678f1d" d="M872.65,766c.3,3.47-1.18,6.44-3.3,6.62s-4.08-2.5-4.37-6,1.18-6.44,3.3-6.62S872.36,762.56,872.65,766Z"/><path fill="#678f1d" d="M882.62,777.86c-1.33,3.22-4,5.18-6,4.37s-2.49-4.08-1.16-7.3,4-5.19,6-4.38S883.94,774.63,882.62,777.86Z"/><path fill="#678f1d" d="M893.08,781.79c-1.33,3.23-4,5.18-6,4.38s-2.48-4.09-1.15-7.31,4-5.19,6-4.38S894.41,778.56,893.08,781.79Z"/><path fill="#678f1d" d="M907.11,782.57a9,9,0,0,1-.73,3.71,9.84,9.84,0,0,1-.85,1.65H898.6a8.73,8.73,0,0,1,.66-4.58c1.33-3.22,4-5.18,6-4.38C906.41,779.46,907.07,780.84,907.11,782.57Z"/><path fill="#f2f9f7" d="M374.47,429.63,353,477.58a10.6,10.6,0,0,0-.8,6.88l1.37,6.27,4.82,1.55,4.77-4.28a10.72,10.72,0,0,0,3.37-6.06l10.56-51.48A1.37,1.37,0,0,0,374.47,429.63Z"/><path fill="#c2e3d8" d="M358.36,492.28l4.77-4.28a10.72,10.72,0,0,0,3.37-6.06l10.56-51.48a1.33,1.33,0,0,0-.93-1.54L356,491.5Z"/><path fill="#f2f9f7" d="M283.34,515.23l52.28-5.36a10.69,10.69,0,0,0,6.36-2.74l4.74-4.32-1.07-4.95-6.09-2a10.62,10.62,0,0,0-6.93.11l-49.86,16.59A1.37,1.37,0,0,0,283.34,515.23Z"/><path fill="#c2e3d8" d="M345.65,497.86l-6.09-2a10.62,10.62,0,0,0-6.93.11l-49.86,16.59a1.34,1.34,0,0,0-.88,1.58l64.3-13.82Z"/><path fill="#f2f9f7" d="M403,551.35l-30.77-42.6a10.7,10.7,0,0,0-5.56-4.13l-6.11-1.95-3.76,3.4,1.33,6.27a10.62,10.62,0,0,0,3.56,5.95L401,553.17A1.37,1.37,0,0,0,403,551.35Z"/><path fill="#c2e3d8" d="M356.83,506.07l1.33,6.27a10.62,10.62,0,0,0,3.56,5.95L401,553.17a1.32,1.32,0,0,0,1.8,0l-44.11-48.77Z"/><polygon fill="#f2f9f7" points="341.78 704.19 362.05 704.19 356.27 492.18 347.56 492.18 341.78 704.19"/><polygon fill="#c2e3d8" points="351.92 704.19 362.05 704.19 356.52 503.29 351.92 503.29 351.92 704.19"/><polygon fill="#93c5c7" points="358.3 704.19 362.05 704.19 356.43 498.18 355.36 498.18 358.3 704.19"/><polygon fill="#033f47" points="356.83 512.84 347 512.84 347.46 495.96 356.37 495.96 356.83 512.84"/><polygon fill="#012f33" points="356.78 512.84 351.91 512.84 351.91 503.29 356.52 503.29 356.78 512.84"/><circle cx="351.92" cy="498.5" r="9.34" fill="#f2f9f7"/><circle cx="351.92" cy="498.5" r="7.2" fill="#c2e3d8"/><circle cx="351.92" cy="498.5" r="5.58" fill="#033f47"/><path fill="#fff" d="M307.94,496.67a46.76,46.76,0,0,1,1-5.1,49.2,49.2,0,0,1,1.55-5c.33-.8.63-1.62,1-2.41L312,483l.6-1.17.3-.58.32-.57.65-1.14.69-1.11c.23-.37.46-.74.72-1.1a46.23,46.23,0,0,1,35.51-20.2,47.29,47.29,0,0,1,20.82,3.49,46.82,46.82,0,0,1,9.27,5.19,46.43,46.43,0,0,1,19.42,36.08c0,.88,0,1.76,0,2.64s-.05,1.75-.14,2.63a43.57,43.57,0,0,1-.7,5.2,44.59,44.59,0,0,1-8.55,18.83,47.27,47.27,0,0,0,7.22-19.06,46.43,46.43,0,0,0-1.48-20.07c-.13-.41-.24-.81-.38-1.21l-.42-1.19c-.26-.8-.62-1.56-.93-2.34s-.7-1.53-1.05-2.3-.76-1.49-1.18-2.22A45.61,45.61,0,0,0,341,461.29c-.81.24-1.62.46-2.41.74-.4.14-.8.26-1.19.41l-1.18.46c-.39.14-.78.31-1.16.48l-1.16.5-1.13.56-.57.27-.56.3-1.11.6-1.08.65c-.74.42-1.42.91-2.13,1.37-1.38,1-2.74,2-4,3.08a45.16,45.16,0,0,0-3.68,3.51c-.56.63-1.15,1.24-1.68,1.9-.27.33-.55.65-.81,1l-.77,1a46.45,46.45,0,0,0-5.22,8.78,47,47,0,0,0-1.86,4.79A48.73,48.73,0,0,0,307.94,496.67Z"/><path fill="#fff" d="M387.52,504.46A32.58,32.58,0,0,1,385,518.94a34.1,34.1,0,0,1-3.63,6.55,34.55,34.55,0,0,1-5,5.6,34.18,34.18,0,0,1-13.11,7.39,35,35,0,0,1-15.06,1.11,34.23,34.23,0,0,1-29.32-30.37c0-.62-.12-1.24-.13-1.86s0-1.25,0-1.87a28.49,28.49,0,0,1,.22-3.7,31.57,31.57,0,0,1,1.72-7.16,35.12,35.12,0,0,0,4.8,27.57,35.67,35.67,0,0,0,4.52,5.44,33.68,33.68,0,0,0,5.52,4.37,34.47,34.47,0,0,0,6.29,3.13,32.65,32.65,0,0,0,6.8,1.74,34,34,0,0,0,13.95-.89,32.92,32.92,0,0,0,6.55-2.58,36.3,36.3,0,0,0,5.88-3.93,34.13,34.13,0,0,0,8.83-11.1A35.75,35.75,0,0,0,387.52,504.46Z"/><path fill="#fff" d="M333.32,489.51a22,22,0,0,1,8.93-8.64,24.13,24.13,0,0,1,24.5,1.19,21.89,21.89,0,0,1,8,9.46,29.88,29.88,0,0,0-9.15-7.61,26.53,26.53,0,0,0-22.47-1.1A30,30,0,0,0,333.32,489.51Z"/><path fill="#573e25" d="M328.6,668.78l-11.6,0c3.94-8.71,3-28,3.77-50.82l2.42-.07C325.05,638.16,324.38,661.46,328.6,668.78Z"/><path fill="#573e25" d="M339.83,632.32a15.65,15.65,0,0,1-11.16,12.29c-1.65.46-3.44.68-4.78,1.74l.58,6c1.19-3.76,3.63-6,5.28-6.45a16.3,16.3,0,0,0,11.45-12.51Z"/><path fill="#573e25" d="M320.23,649.1c-3-.37-6.18-5.19-7.75-7.8a21.18,21.18,0,0,1-1-2c-.22-.47-.44-1-.68-1.41a5.44,5.44,0,0,0-2.27-2.46l.45-.94a6.37,6.37,0,0,1,2.73,2.91c1.89,3.52,3.92,7.37,8.49,7.71Z"/><circle cx="345.57" cy="637.05" r="8.3" fill="#567718" transform="rotate(-78.53 345.55 637.039)"/><circle cx="344.54" cy="633.68" r="4.67" fill="#678f1d"/><circle cx="333.88" cy="631.83" r="8.3" fill="#afc637" transform="rotate(-78.53 333.855 631.824)"/><circle cx="332.85" cy="628.46" r="4.67" fill="#bfd142"/><circle cx="346.41" cy="623.3" r="8.3" fill="#abc037" transform="rotate(-78.53 346.387 623.284)"/><circle cx="345.38" cy="619.93" r="4.67" fill="#bfd142"/><circle cx="329.07" cy="614.76" r="8.87" fill="#567718" transform="rotate(-17.61 328.977 614.626)"/><circle cx="326.35" cy="612.16" r="4.98" fill="#678f1d"/><circle cx="315.45" cy="615.96" r="8.87" fill="#afc637" transform="rotate(-17.61 315.366 615.856)"/><circle cx="312.74" cy="613.36" r="4.98" fill="#bfd142"/><circle cx="322.71" cy="601.5" r="8.87" fill="#96b02e" transform="rotate(-17.61 322.633 601.38)"/><circle cx="320" cy="598.89" r="4.98" fill="#abc037"/><circle cx="311.73" cy="631.47" r="6.67" fill="#567718" transform="rotate(-59.32 311.753 631.482)"/><circle cx="308.91" cy="631.37" r="3.75" fill="#678f1d"/><circle cx="304.68" cy="638.97" r="6.67" fill="#afc637" transform="rotate(-59.32 304.7 638.988)"/><circle cx="301.86" cy="638.87" r="3.75" fill="#bfd142"/><circle cx="301.52" cy="627.2" r="6.67" fill="#96b02e" transform="rotate(-59.32 301.54 627.223)"/><circle cx="298.69" cy="627.1" r="3.75" fill="#abc037"/><path fill="#98af38" d="M1046.36,788.7V960H-.1V714.53c71-26,211.74-67.77,335.92-45.09C510.52,701.36,781,830.66,1046.36,788.7Z"/><path fill="#89a32a" d="M1046.36,788.7V960H-.1V714.52c9.19-3.37,19.54-7,30.88-10.72-10.46,23.57-2.09,49.57,65.16,64.75,145.56,32.87,351.59,63,273.82-23.67,0,0,343.63,100.58,390.91,34.75C853.37,796.62,950.2,803.91,1046.36,788.7Z"/><path fill="#678f1d" d="M182.57,748c3.76-28.72,19-66.62,26.85-67,7.85.25,24.36,37.77,28.13,66.5,4.41,33.67-27.17,34-27.17,34S178.14,781.75,182.57,748Z"/><path fill="#5f8211" d="M237.55,747.47c-3.77-28.73-20.28-66.25-28.13-66.5a4.82,4.82,0,0,0-2.73,1.34c7.77,13,16.59,37.27,19.21,57.3,4.42,33.67-27.16,34-27.16,34a35.63,35.63,0,0,1-11-2c8.23,10,22.67,9.9,22.67,9.9S242,781.14,237.55,747.47Z"/><polygon fill="#573e25" points="201.36 737.26 201.68 737.07 209.06 748.12 209.33 727.58 210.4 727.57 210.72 737.42 214.36 733.13 214.66 733.34 210.8 740.13 211.33 756.37 220.46 744.38 220.76 744.59 211.42 759.18 213.12 811.52 208.21 811.56 209.01 751.29 201.36 737.26"/><path fill="#7aa027" d="M206.43,712.5c-1.94,5.79-5.9,9.67-8.84,8.68s-3.75-6.48-1.81-12.26,5.91-9.68,8.85-8.69S208.38,706.71,206.43,712.5Z"/><path fill="#afc637" d="M693.63,770.27c3.76-28.73,19-66.62,26.85-67,7.86.26,24.36,37.78,28.13,66.5,4.41,33.67-27.17,34-27.17,34S689.2,804,693.63,770.27Z"/><path fill="#9eaf22" d="M748.61,769.74c-3.77-28.72-20.27-66.24-28.13-66.5a4.92,4.92,0,0,0-2.73,1.34c7.77,13,16.59,37.27,19.21,57.31,4.42,33.66-27.16,34-27.16,34a36,36,0,0,1-11-2c8.23,10,22.67,9.89,22.67,9.89S753,803.41,748.61,769.74Z"/><polygon fill="#573e25" points="712.42 759.53 712.74 759.34 720.12 770.39 720.39 749.85 721.46 749.84 721.78 759.69 725.42 755.4 725.72 755.61 721.86 762.41 722.39 778.64 731.52 766.66 731.82 766.87 722.48 781.46 724.18 833.79 719.27 833.84 720.08 773.57 712.42 759.53"/><path fill="#bfd142" d="M717.49,734.77c-1.94,5.79-5.9,9.68-8.84,8.69s-3.75-6.48-1.8-12.27,5.9-9.67,8.84-8.68S719.44,729,717.49,734.77Z"/><path fill="#567718" d="M624.38,843.66l-14.56.09h-.19c-43.34,17.5-95,14.12-150.47,1a6.64,6.64,0,0,1,.78-2.28c1.53-2.74,4.94-4.47,8.63-4.94a16.55,16.55,0,0,1,2.33-.13,14.29,14.29,0,0,1,5,1,10.61,10.61,0,0,1,2.34,1.29A6,6,0,0,1,476.8,837a6.63,6.63,0,0,1,2.83-7,7.09,7.09,0,0,1,1.92-1,10.69,10.69,0,0,1,10.95,3,16.5,16.5,0,0,1,2.68-17.57c5-5.64,14.56-8.51,22.95-6.44s14.67,9.19,13.69,16.12c1.14-2.8,4.49-4.89,8.17-5.09s7.47,1.5,9.24,4.14c-3.22-9.43,7.18-19.87,19.28-19.36s21.49,11.57,18,20.62c1.23-2.85,5.41-4.65,9.11-3.85s6.5,4.32,5.67,7.4a21.81,21.81,0,0,1,12.61.73c4,1.45,7.49,4,9.3,7.23A11.37,11.37,0,0,1,624.38,843.66Z"/><path fill="#678f1d" d="M512.61,824.27c1.19,5.14-.38,9.9-3.52,10.62s-6.64-2.85-7.83-8,.38-9.9,3.52-10.62S511.42,819.13,512.61,824.27Z"/><path fill="#678f1d" d="M495,844.52l-8.46.05a9.93,9.93,0,0,1-.77-1.32c-1.83-3.65-1.52-7.52.71-8.64s5.52.94,7.36,4.59A10.14,10.14,0,0,1,495,844.52Z"/><path fill="#678f1d" d="M529.61,828.36c-.67,4-3.21,7-5.67,6.57s-3.91-4-3.24-8,3.21-7,5.67-6.57S530.28,824.33,529.61,828.36Z"/><path fill="#678f1d" d="M543,837.07c-.67,4-3.2,7-5.66,6.56s-3.91-4-3.24-8,3.2-7,5.66-6.57S543.62,833,543,837.07Z"/><path fill="#678f1d" d="M559.35,832.17c1.13,3.93.1,7.67-2.29,8.36s-5.26-1.94-6.39-5.87-.1-7.67,2.3-8.36S558.22,828.24,559.35,832.17Z"/><path fill="#678f1d" d="M571.12,818.35c.38,4.08-1.34,7.56-3.82,7.79s-4.8-2.89-5.17-7,1.34-7.56,3.82-7.79S570.75,814.28,571.12,818.35Z"/><path fill="#678f1d" d="M582.89,832.13c-1.53,3.79-4.64,6.11-7,5.18s-2.94-4.77-1.41-8.56,4.65-6.11,7-5.18S584.42,828.34,582.89,832.13Z"/><path fill="#678f1d" d="M595.18,836.66c-1.53,3.79-4.64,6.1-6.95,5.17s-3-4.76-1.42-8.55,4.65-6.11,7-5.18S596.72,832.86,595.18,836.66Z"/><path fill="#678f1d" d="M611.64,837.46a10.74,10.74,0,0,1-.83,4.36,12.06,12.06,0,0,1-1,1.93h-.19l-7.92.06a10.11,10.11,0,0,1,.73-5.37c1.53-3.79,4.64-6.11,7-5.18C610.79,833.83,611.58,835.44,611.64,837.46Z"/><path fill="#a7c149" d="M1363.9,751.85V960H253.51V847.5s380.19,15.12,593-57.12C1128.78,694.53,1301.7,731.26,1363.9,751.85Z"/><path fill="#97b337" d="M1363.9,751.83V960H517.49C414.08,915.58,319.73,874.47,260.6,847.74c25.79.79,119.14,3,230.72-2.7,36.44,84,440.44,36.51,440.44,36.51-95.08,67.22,334.57-23.78,385.76-53.74,35.52-20.78,19.7-62.17,7.1-86.69C1340.66,744.7,1353.75,748.48,1363.9,751.83Z"/><path fill="#567718" d="M920.84,925.17H906.1c-43.46,17.21-95.06,13.49-150.47,0a6.69,6.69,0,0,1,.79-2.27c1.54-2.73,5-4.43,8.66-4.88a16.53,16.53,0,0,1,2.33-.11,14.09,14.09,0,0,1,5,1,10.8,10.8,0,0,1,2.33,1.3,5.91,5.91,0,0,1-1.46-2.63,6.65,6.65,0,0,1,2.88-7,7.59,7.59,0,0,1,1.93-1,10.71,10.71,0,0,1,10.93,3.07,16.48,16.48,0,0,1,2.8-17.55c5-5.61,14.61-8.41,23-6.29s14.61,9.29,13.59,16.21c1.15-2.79,4.52-4.86,8.21-5s7.45,1.54,9.2,4.2c-3.16-9.45,7.32-19.83,19.41-19.23s21.42,11.71,17.82,20.74c1.24-2.84,5.43-4.61,9.13-3.79s6.48,4.36,5.62,7.43a21.87,21.87,0,0,1,12.6.82c4,1.48,7.47,4,9.26,7.3A11.27,11.27,0,0,1,920.84,925.17Z"/><path fill="#678f1d" d="M809.21,905c1.16,5.15-.45,9.9-3.59,10.6s-6.62-2.89-7.78-8,.45-9.9,3.59-10.6S808.05,899.89,809.21,905Z"/><path fill="#678f1d" d="M791.47,925.17H783a10.57,10.57,0,0,1-.76-1.32c-1.81-3.67-1.47-7.54.77-8.64s5.52,1,7.33,4.64A10.21,10.21,0,0,1,791.47,925.17Z"/><path fill="#678f1d" d="M826.18,909.25c-.7,4-3.25,7-5.71,6.53s-3.88-4-3.19-8.07,3.26-7,5.71-6.52S826.88,905.22,826.18,909.25Z"/><path fill="#678f1d" d="M839.46,918c-.69,4-3.25,7-5.71,6.53s-3.88-4-3.18-8.06,3.25-7,5.71-6.53S840.16,914,839.46,918Z"/><path fill="#678f1d" d="M855.9,913.25c1.1,3.94.05,7.68-2.35,8.35s-5.25-2-6.35-5.91-.05-7.68,2.35-8.35S854.79,909.32,855.9,913.25Z"/><path fill="#678f1d" d="M867.76,899.52c.34,4.07-1.39,7.55-3.87,7.76s-4.78-2.92-5.13-7,1.39-7.55,3.88-7.76S867.41,895.44,867.76,899.52Z"/><path fill="#678f1d" d="M879.44,913.37c-1.56,3.79-4.69,6.08-7,5.13s-2.91-4.78-1.35-8.56,4.68-6.08,7-5.13S881,909.59,879.44,913.37Z"/><path fill="#678f1d" d="M891.7,918c-1.56,3.78-4.69,6.08-7,5.13s-2.92-4.78-1.36-8.57,4.69-6.07,7-5.12S893.26,914.2,891.7,918Z"/><path fill="#678f1d" d="M908.15,918.9a10.75,10.75,0,0,1-.86,4.35,12,12,0,0,1-1,1.92h-8.11a10.18,10.18,0,0,1,.77-5.35c1.56-3.79,4.69-6.08,7-5.14C907.33,915.26,908.1,916.87,908.15,918.9Z"/><path fill="#f2f9f7" d="M199.71,418.1l-34,75.87a16.9,16.9,0,0,0-1.27,10.89l2.17,9.9,7.63,2.46,7.54-6.77a16.88,16.88,0,0,0,5.33-9.58l16.7-81.45A2.16,2.16,0,0,0,199.71,418.1Z"/><path fill="#c2e3d8" d="M174.22,517.22l7.54-6.77a16.88,16.88,0,0,0,5.33-9.58l16.7-81.45a2.09,2.09,0,0,0-1.46-2.44L170.4,516Z"/><path fill="#f2f9f7" d="M55.53,553.52l82.71-8.46a16.89,16.89,0,0,0,10.06-4.35l7.5-6.83L154.12,526l-9.65-3.14a16.77,16.77,0,0,0-10.95.17L54.63,549.33A2.16,2.16,0,0,0,55.53,553.52Z"/><path fill="#c2e3d8" d="M154.12,526l-9.65-3.14a16.77,16.77,0,0,0-10.95.17L54.63,549.33a2.11,2.11,0,0,0-1.39,2.49L155,530Z"/><path fill="#f2f9f7" d="M244.9,610.68l-48.69-67.4a17,17,0,0,0-8.8-6.54l-9.66-3.08L171.8,539l2.1,9.92a16.88,16.88,0,0,0,5.63,9.41l62.18,55.19A2.17,2.17,0,0,0,244.9,610.68Z"/><path fill="#c2e3d8" d="M171.8,539l2.1,9.92a16.88,16.88,0,0,0,5.63,9.41l62.18,55.19a2.11,2.11,0,0,0,2.85,0l-69.78-77.16Z"/><polygon fill="#f2f9f7" points="147.99 852.47 180.05 852.47 170.91 517.06 157.13 517.06 147.99 852.47"/><polygon fill="#c2e3d8" points="164.02 852.47 180.05 852.47 171.3 534.64 164.02 534.64 164.02 852.47"/><polygon fill="#93c5c7" points="174.12 852.47 180.05 852.47 171.17 526.56 169.47 526.56 174.12 852.47"/><polygon fill="#033f47" points="171.81 549.75 156.24 549.75 156.97 523.04 171.08 523.04 171.81 549.75"/><polygon fill="#012f33" points="171.72 549.75 164.02 549.75 164.02 534.65 171.31 534.65 171.72 549.75"/><circle cx="164.02" cy="527.06" r="14.78" fill="#f2f9f7"/><circle cx="164.02" cy="527.06" r="11.4" fill="#c2e3d8"/><circle cx="164.02" cy="527.06" r="8.83" fill="#033f47"/><path fill="#fff" d="M94.45,524.16A76.79,76.79,0,0,1,96,516.1a75.26,75.26,0,0,1,2.46-7.86c.53-1.27,1-2.57,1.59-3.81l.86-1.88,1-1.84.47-.92.51-.9,1-1.81,1.1-1.76c.37-.58.73-1.17,1.13-1.74a73.26,73.26,0,0,1,56.19-31.95,73.18,73.18,0,0,1,47.6,13.73A73.39,73.39,0,0,1,238.08,516a73.83,73.83,0,0,1,2.5,16.5c0,1.39,0,2.78,0,4.16s-.08,2.78-.22,4.16a71.22,71.22,0,0,1-1.11,8.24,70.44,70.44,0,0,1-13.52,29.78,74.67,74.67,0,0,0,11.42-30.14,73.32,73.32,0,0,0-2.35-31.77c-.2-.63-.37-1.28-.59-1.91l-.67-1.88c-.42-1.26-1-2.47-1.47-3.71s-1.11-2.41-1.66-3.62-1.21-2.37-1.86-3.53a73.36,73.36,0,0,0-9.31-12.87,72.16,72.16,0,0,0-72.48-21.17c-1.27.38-2.56.72-3.81,1.18-.62.22-1.26.41-1.88.65l-1.86.72c-.63.22-1.24.49-1.84.76l-1.84.8-1.79.87-.9.44-.88.47-1.76.95-1.71,1c-1.16.66-2.25,1.43-3.37,2.16a78.82,78.82,0,0,0-6.36,4.88,72.33,72.33,0,0,0-5.81,5.54c-.9,1-1.83,2-2.66,3-.43.52-.87,1-1.29,1.56l-1.22,1.6a73.11,73.11,0,0,0-11.19,21.46A75.79,75.79,0,0,0,94.45,524.16Z"/><path fill="#fff" d="M220.35,536.49a51.74,51.74,0,0,1-3.93,22.91,53.4,53.4,0,0,1-13.68,19.23A54,54,0,0,1,182,590.31a55.38,55.38,0,0,1-23.84,1.76,54.69,54.69,0,0,1-38.83-25.7,53.76,53.76,0,0,1-5-10.78,54.8,54.8,0,0,1-2.5-11.57c-.08-1-.19-2-.21-2.95s-.08-2,0-2.94a45.91,45.91,0,0,1,.36-5.87,50.11,50.11,0,0,1,2.71-11.32,54.56,54.56,0,0,0,14.75,52.22A53.76,53.76,0,0,0,148,585a50,50,0,0,0,10.76,2.75,53.69,53.69,0,0,0,22.06-1.39,51.93,51.93,0,0,0,10.37-4.1,56,56,0,0,0,9.3-6.21,54,54,0,0,0,14-17.55A56.37,56.37,0,0,0,220.35,536.49Z"/><path fill="#fff" d="M134.61,512.84a34.83,34.83,0,0,1,14.12-13.67,38.13,38.13,0,0,1,38.76,1.88,34.61,34.61,0,0,1,12.73,15,47.08,47.08,0,0,0-14.48-12,41.89,41.89,0,0,0-35.56-1.73A47.25,47.25,0,0,0,134.61,512.84Z"/><path fill="#bdd35f" d="M1363.9,845.28V960H-.1V810.54C50.35,801,167.15,788,311.19,831.26c193.73,58.23,427.77,118.7,710,84C1219.55,890.84,1321.09,860.9,1363.9,845.28Z"/><path fill="#aac447" d="M1363.9,845.27V960H-.1V810.55c8.44-1.6,18.73-3.3,30.68-4.81-.08.16-54.32,101.09,23.88,123.51,75.45,21.62,1273.2,70.16,1276.26-73C1344.35,852.12,1355.31,848.41,1363.9,845.27Z"/><path fill="#f2f9f7" d="M505.2,133.27l-61.45,137a30.51,30.51,0,0,0-2.28,19.66l3.91,17.9,13.77,4.44L472.78,300a30.52,30.52,0,0,0,9.63-17.29l30.16-147.09A3.91,3.91,0,0,0,505.2,133.27Z"/><path fill="#c2e3d8" d="M459.15,312.27,472.78,300a30.52,30.52,0,0,0,9.63-17.29l30.16-147.09a3.8,3.8,0,0,0-2.65-4.41L452.27,310.05Z"/><path fill="#f2f9f7" d="M244.82,377.82l149.37-15.29a30.45,30.45,0,0,0,18.17-7.85l13.54-12.33-3-14.15-17.42-5.68a30.5,30.5,0,0,0-19.79.3L243.19,370.25A3.91,3.91,0,0,0,244.82,377.82Z"/><path fill="#c2e3d8" d="M422.86,328.2l-17.42-5.68a30.5,30.5,0,0,0-19.79.3L243.19,370.25a3.79,3.79,0,0,0-2.49,4.5l183.68-39.48Z"/><path fill="#f2f9f7" d="M586.79,481,498.87,359.33A30.51,30.51,0,0,0,483,347.52L465.53,342l-10.73,9.71,3.79,17.92a30.46,30.46,0,0,0,10.16,17l112.3,99.67A3.91,3.91,0,0,0,586.79,481Z"/><path fill="#c2e3d8" d="M454.8,351.67l3.79,17.92a30.46,30.46,0,0,0,10.16,17l112.3,99.67a3.79,3.79,0,0,0,5.14-.09l-126-139.34Z"/><polygon fill="#f2f9f7" points="411.8 917.68 469.69 917.68 453.18 311.98 428.31 311.98 411.8 917.68"/><polygon fill="#c2e3d8" points="440.75 917.68 469.69 917.68 453.89 343.72 440.75 343.72 440.75 917.68"/><polygon fill="#93c5c7" points="458.98 917.68 469.69 917.68 453.65 329.13 450.58 329.13 458.98 917.68"/><polygon fill="#033f47" points="454.8 371.02 426.7 371.02 428.01 322.78 453.48 322.78 454.8 371.02"/><polygon fill="#012f33" points="454.65 371.02 440.74 371.02 440.74 343.73 453.9 343.73 454.65 371.02"/><circle cx="440.75" cy="330.04" r="26.68" fill="#f2f9f7"/><circle cx="440.75" cy="330.04" r="20.58" fill="#c2e3d8"/><circle cx="440.75" cy="330.04" r="15.94" fill="#033f47"/><path fill="#fff" d="M315.11,324.8a139.32,139.32,0,0,1,2.76-14.56,132.42,132.42,0,0,1,4.45-14.19c.94-2.29,1.78-4.65,2.87-6.88l1.56-3.4,1.7-3.32.85-1.67.92-1.63,1.85-3.25,2-3.18c.66-1.06,1.32-2.12,2-3.14a132.23,132.23,0,0,1,101.47-57.71,135.42,135.42,0,0,1,59.48,10,133.93,133.93,0,0,1,26.49,14.84A132.69,132.69,0,0,1,579,339.76c0,2.51,0,5,0,7.53s-.15,5-.4,7.5a128,128,0,0,1-26.42,68.67A135,135,0,0,0,572.84,369a132.65,132.65,0,0,0-4.24-57.37c-.36-1.14-.66-2.31-1.07-3.44l-1.21-3.4c-.75-2.28-1.77-4.47-2.66-6.7s-2-4.36-3-6.55-2.19-4.27-3.37-6.36A131.35,131.35,0,0,0,540.49,262a130.32,130.32,0,0,0-130.88-38.22c-2.3.67-4.62,1.3-6.87,2.12-1.14.39-2.29.75-3.41,1.18L396,228.32c-1.13.41-2.23.89-3.33,1.38l-3.3,1.44-3.24,1.57-1.63.79-1.58.86-3.18,1.72-3.1,1.85c-2.09,1.2-4.06,2.59-6.09,3.9a143.7,143.7,0,0,0-11.47,8.82,130.51,130.51,0,0,0-10.5,10c-1.62,1.8-3.29,3.55-4.81,5.45-.77.93-1.57,1.85-2.31,2.81l-2.22,2.88A132.25,132.25,0,0,0,319,310.57,137.71,137.71,0,0,0,315.11,324.8Z"/><path fill="#fff" d="M542.47,347.05a93.52,93.52,0,0,1-7.11,41.39,98.15,98.15,0,0,1-62.14,55.82,100.05,100.05,0,0,1-43,3.17,97.81,97.81,0,0,1-83.76-86.77c-.15-1.78-.34-3.54-.37-5.32s-.15-3.55-.1-5.32a85,85,0,0,1,.65-10.59A90.73,90.73,0,0,1,351.5,319c-6.49,27.2-1.46,56.32,13.72,78.77a100.22,100.22,0,0,0,12.91,15.54,96.55,96.55,0,0,0,33.76,21.42,91.11,91.11,0,0,0,19.42,5,97,97,0,0,0,39.85-2.52,93.84,93.84,0,0,0,18.72-7.39,102.17,102.17,0,0,0,16.8-11.21,97.64,97.64,0,0,0,25.2-31.71A101.87,101.87,0,0,0,542.47,347.05Z"/><path fill="#fff" d="M387.63,304.36a62.87,62.87,0,0,1,25.5-24.69,68.88,68.88,0,0,1,70,3.39,62.47,62.47,0,0,1,23,27.05A85.35,85.35,0,0,0,480,288.35a75.67,75.67,0,0,0-64.2-3.13A85.42,85.42,0,0,0,387.63,304.36Z"/><path fill="#f2f9f7" d="M1030.68,517l-21.51,48a10.73,10.73,0,0,0-.8,6.88l1.37,6.26,4.82,1.56,4.77-4.29a10.61,10.61,0,0,0,3.37-6.05l10.56-51.48A1.37,1.37,0,0,0,1030.68,517Z"/><path fill="#c2e3d8" d="M1014.56,579.61l4.77-4.29a10.61,10.61,0,0,0,3.37-6.05l10.56-51.48a1.33,1.33,0,0,0-.93-1.55l-20.18,62.59Z"/><path fill="#f2f9f7" d="M939.54,602.55l52.28-5.35a10.62,10.62,0,0,0,6.36-2.75l4.74-4.32-1.06-5-6.1-2a10.66,10.66,0,0,0-6.92.11L939,599.9A1.37,1.37,0,0,0,939.54,602.55Z"/><path fill="#c2e3d8" d="M1001.86,585.18l-6.1-2a10.66,10.66,0,0,0-6.92.11L939,599.9a1.32,1.32,0,0,0-.87,1.57l64.29-13.81Z"/><path fill="#f2f9f7" d="M1059.24,638.68l-30.77-42.6a10.76,10.76,0,0,0-5.56-4.14L1016.8,590l-3.76,3.4,1.33,6.27a10.66,10.66,0,0,0,3.55,5.94l39.31,34.89A1.37,1.37,0,0,0,1059.24,638.68Z"/><path fill="#c2e3d8" d="M1013,593.4l1.33,6.27a10.66,10.66,0,0,0,3.55,5.94l39.31,34.89a1.33,1.33,0,0,0,1.8,0l-44.11-48.77Z"/><polygon fill="#f2f9f7" points="997.99 791.51 1018.25 791.51 1012.48 579.5 1003.77 579.5 997.99 791.51"/><polygon fill="#c2e3d8" points="1008.12 791.51 1018.25 791.51 1012.72 590.62 1008.12 590.62 1008.12 791.51"/><polygon fill="#93c5c7" points="1014.5 791.51 1018.25 791.51 1012.64 585.51 1011.57 585.51 1014.5 791.51"/><polygon fill="#033f47" points="1013.04 600.17 1003.2 600.17 1003.66 583.28 1012.58 583.28 1013.04 600.17"/><polygon fill="#012f33" points="1012.99 600.17 1008.12 600.17 1008.12 590.62 1012.73 590.62 1012.99 600.17"/><circle cx="1008.12" cy="585.83" r="9.34" fill="#f2f9f7"/><circle cx="1008.12" cy="585.83" r="7.2" fill="#c2e3d8"/><circle cx="1008.12" cy="585.83" r="5.58" fill="#033f47"/><path fill="#fff" d="M964.15,584a48.56,48.56,0,0,1,1-5.09,45.43,45.43,0,0,1,1.56-5c.33-.8.62-1.63,1-2.41l.55-1.19.6-1.16.29-.59.33-.57.64-1.13.7-1.12c.23-.37.46-.74.71-1.1A46.29,46.29,0,0,1,1007,544.47a47.45,47.45,0,0,1,20.82,3.48,46.64,46.64,0,0,1,9.27,5.2,46.43,46.43,0,0,1,17.83,25.65,46.66,46.66,0,0,1,1.58,10.43c0,.88,0,1.75,0,2.63s-.06,1.76-.14,2.63a45.14,45.14,0,0,1-.71,5.2,44.52,44.52,0,0,1-8.54,18.83,47.23,47.23,0,0,0,7.22-19,46.46,46.46,0,0,0-1.49-20.08c-.12-.4-.23-.81-.37-1.21l-.43-1.19c-.26-.79-.61-1.56-.93-2.34s-.69-1.53-1-2.29-.77-1.5-1.18-2.23A46.23,46.23,0,0,0,1043,562a45.34,45.34,0,0,0-35.88-14.94,45.76,45.76,0,0,0-9.93,1.56c-.8.24-1.61.46-2.4.75-.4.13-.8.26-1.19.41l-1.18.45c-.4.15-.78.31-1.17.48l-1.15.51-1.14.55-.57.28-.55.3-1.11.6-1.09.65c-.73.41-1.42.9-2.13,1.36a48,48,0,0,0-4,3.09,43.4,43.4,0,0,0-3.68,3.5c-.57.63-1.15,1.24-1.68,1.91-.27.33-.55.65-.81,1l-.78,1A46.53,46.53,0,0,0,965.51,579,47.59,47.59,0,0,0,964.15,584Z"/><path fill="#fff" d="M1043.73,591.78a32.79,32.79,0,0,1-2.49,14.49,34.88,34.88,0,0,1-3.63,6.54,34.62,34.62,0,0,1-18.12,13,35.06,35.06,0,0,1-15.07,1.11,34.21,34.21,0,0,1-29.31-30.37c-.06-.62-.13-1.24-.14-1.86s-.05-1.24,0-1.86a30.66,30.66,0,0,1,.23-3.71,31.81,31.81,0,0,1,1.71-7.16,34.55,34.55,0,0,0,9.32,33,34.05,34.05,0,0,0,11.82,7.5,31.89,31.89,0,0,0,6.8,1.74,34.05,34.05,0,0,0,13.95-.88,33.19,33.19,0,0,0,6.55-2.59,35.45,35.45,0,0,0,5.88-3.93,34.3,34.3,0,0,0,8.82-11.09A35.86,35.86,0,0,0,1043.73,591.78Z"/><path fill="#fff" d="M989.53,576.84a22.06,22.06,0,0,1,8.92-8.65,24.13,24.13,0,0,1,24.5,1.19,21.94,21.94,0,0,1,8,9.47,29.92,29.92,0,0,0-9.15-7.62,26.58,26.58,0,0,0-11.12-3.05,26.31,26.31,0,0,0-11.36,2A29.9,29.9,0,0,0,989.53,576.84Z"/><path fill="#567718" d="M986.62,794.51a4.75,4.75,0,0,0,1.17,1.61h40.33a2.91,2.91,0,0,0,.26-.49,3.53,3.53,0,0,0,0-2.69,3.6,3.6,0,0,0-.65-1.05,3.16,3.16,0,0,0-.77-.68,4.6,4.6,0,0,0-1.59-.67,5.37,5.37,0,0,0-.88-.14,6.62,6.62,0,0,0-3.13.48,4.52,4.52,0,0,0-1.63,1.16,2.41,2.41,0,0,0-.38-3.54,4.19,4.19,0,0,0-4.43-.2c1-2.46,1.15-5.32-.59-7.49s-5.74-3.21-8.36-1.69a5.1,5.1,0,0,0-2.47,3.77,12,12,0,0,0,.35,4.12c-.42-1.59-2.85-2.65-4.74-2a2.66,2.66,0,0,0-1.42,4.23,5.29,5.29,0,0,0-1-.75,5.36,5.36,0,0,0-1.63-.63,4.53,4.53,0,0,0-1-.1,4,4,0,0,0-1,.12c-1.7.41-2.77,2.23-1.75,3.38l0,0,0,0h0a2.55,2.55,0,0,0-1.6-.68h0a3.46,3.46,0,0,0-2.29.59A2.76,2.76,0,0,0,986.62,794.51Z"/><path fill="#4d6812" d="M1015,792.27c-.37,1-.14,2,.5,2.21s1.45-.36,1.82-1.34.14-2-.5-2.21S1015.33,791.29,1015,792.27Z"/><path fill="#4d6812" d="M1011.12,786.62c-.37,1-.15,2,.5,2.21s1.45-.37,1.82-1.35.14-2-.5-2.21S1011.48,785.63,1011.12,786.62Z"/><path fill="#4d6812" d="M1007.43,782.2c-.17,1,.24,2,.92,2.08s1.36-.64,1.53-1.68-.24-2-.92-2.07S1007.6,781.17,1007.43,782.2Z"/><path fill="#4d6812" d="M999.74,789.54c.48.93,1.36,1.43,2,1.12s.71-1.32.24-2.25-1.36-1.44-2-1.13S999.26,788.6,999.74,789.54Z"/><path fill="#4d6812" d="M994.07,792.15c.48.93,1.36,1.44,2,1.13s.71-1.32.24-2.26-1.36-1.44-2-1.12S993.6,791.22,994.07,792.15Z"/><path fill="#428a6b" d="M988.7,794.9c.48.93,1.36,1.44,2,1.12s.71-1.32.24-2.25-1.36-1.44-2-1.13S988.22,794,988.7,794.9Z"/><path fill="#ff9500" d="M975.35,796.12h16.37a21.84,21.84,0,0,0,2.86-3.27,17.08,17.08,0,0,0,1.38-2.32,13.54,13.54,0,0,0,.79-2,11.36,11.36,0,0,0,.47-2.59c-1.59-4.59-6.34,2.25-7.45,4.68l-.13.3.11-.3c1.7-4.68,6.74-15.14.89-15.84-1.74-.21-3.07,1.26-3.63,2.08a19.91,19.91,0,0,0-3.37,8.38c.06-4.07-.41-7.89-3.35-10.72a2.71,2.71,0,0,0-4.22.26c-3.41,5,.52,11.89,2.37,17.14-1.44-2.6-4.41-8.77-7.92-5.66C969.17,789.33,973,793.38,975.35,796.12Z"/><path fill="#db7700" d="M985.05,796.12H986a69,69,0,0,1,4-17.64c.21-.57-.69-.81-.9-.25A69.67,69.67,0,0,0,985.05,796.12Z"/><path fill="#db7700" d="M988.74,796.12h1s0-.07,0-.11c.34-.75.72-1.49,1.12-2.21a30.19,30.19,0,0,1,4.08-5.67.48.48,0,0,0,.12-.26.46.46,0,0,0-.78-.4l-.26.3a30.56,30.56,0,0,0-2.71,3.5h0c-.37.56-.73,1.13-1.06,1.71a26.75,26.75,0,0,0-1.26,2.44C988.94,795.65,988.84,795.88,988.74,796.12Z"/><path fill="#db7700" d="M977.94,777.89a43.78,43.78,0,0,1,2.27,18.23h.93a44.83,44.83,0,0,0-2.3-18.48C978.65,777.08,977.75,777.32,977.94,777.89Z"/><path fill="#db7700" d="M972.93,789.07a23.92,23.92,0,0,1,2.88,7h1a25.14,25.14,0,0,0-3-7.52A.47.47,0,0,0,972.93,789.07Z"/><path fill="#96b02e" d="M1021.4,790.88c0,1.74,1.8,3.76,3.07,5.24h10.8a10,10,0,0,0,3.29-6.29c-1.06-3.05-4.31,1.83-4.82,3.16,1-2.87,4.44-9.8.64-10.26a2.68,2.68,0,0,0-2.32,1.32,12.65,12.65,0,0,0-2.14,5.33c0-2.59-.26-5-2.13-6.82a1.73,1.73,0,0,0-2.68.17c-1.54,2.27-.73,5.14.3,7.81.41,1.08.86,2.13,1.2,3.09a15.73,15.73,0,0,0-2.08-3.23c-.85-.89-1.86-1.33-2.95-.37A2.09,2.09,0,0,0,1021.4,790.88Z"/><path fill="#86a226" d="M1030.84,796.12h.6a43.49,43.49,0,0,1,2.55-11c.14-.36-.44-.51-.57-.16A44.31,44.31,0,0,0,1030.84,796.12Z"/><path fill="#86a226" d="M1033.25,796.12h.65a18.73,18.73,0,0,1,3.25-4.88c.25-.28-.17-.7-.42-.42A19.85,19.85,0,0,0,1033.25,796.12Z"/><path fill="#86a226" d="M1027.77,791.89a27.15,27.15,0,0,1,0,4.23h.59l0-.49a26.83,26.83,0,0,0,0-2.69,28.59,28.59,0,0,0-1.55-8.37c-.12-.36-.7-.2-.57.16A27.81,27.81,0,0,1,1027.77,791.89Z"/><path fill="#86a226" d="M1023.11,791.84a15.28,15.28,0,0,1,1.78,4.28h.61a15.65,15.65,0,0,0-1.88-4.58A.3.3,0,0,0,1023.11,791.84Z"/><polygon fill="#f2fdec" points="1022.63 846.81 1077.65 780.24 1132.68 846.81 1132.68 934.34 1022.63 934.34 1022.63 846.81"/><polygon fill="#dff3e4" points="1132.68 934.34 1132.68 846.81 1077.65 780.24 1038.56 827.54 1076.99 805.27 1119.8 863.12 1098.18 934.34 1132.68 934.34"/><rect width="38.38" height="87.53" x="1132.68" y="846.81" fill="#c2e3d8"/><polygon fill="#b1d9cb" points="1171.06 934.34 1171.06 846.81 1136.12 846.81 1133.98 849.76 1163.4 865.05 1158.04 934.34 1171.06 934.34"/><polygon fill="#fdd51a" points="1088.41 793.26 1132.85 793.14 1179.55 846.81 1132.68 846.81 1088.41 793.26"/><polygon fill="#efc40f" points="1121.88 833.75 1132.68 846.81 1179.55 846.81 1134.05 794.52 1152.87 831.54 1121.88 833.75"/><rect width="50.49" height="3.91" x="1084.59" y="789.35" fill="#ff9500" rx="1.68"/><path fill="#ffb403" d="M1137.92,856.62a3.48,3.48,0,0,1-2.68-1.26l-57.62-69.71-58.91,69.74a3.47,3.47,0,0,1-5.3-4.48L1075,778a3.45,3.45,0,0,1,2.65-1.24h0a3.51,3.51,0,0,1,2.66,1.26l60.27,72.92a3.47,3.47,0,0,1-2.68,5.68Z"/><rect width="30.52" height="56.94" x="1061.73" y="877.4" fill="#82aca8"/><polygon fill="#6f9b96" points="1084.59 920.78 1061.73 934.34 1092.25 934.34 1092.25 877.4 1084.59 920.78"/><rect width="14.08" height="14.11" x="1108.61" y="888.62" fill="#82aca8"/><polygon fill="#fff" points="1122.69 895.84 1116.3 895.84 1116.3 888.62 1115 888.62 1115 895.84 1108.61 895.84 1108.61 897.14 1115 897.14 1115 902.73 1116.3 902.73 1116.3 897.14 1122.69 897.14 1122.69 895.84"/><rect width="14.08" height="14.11" x="1035.24" y="888.62" fill="#82aca8"/><polygon fill="#fff" points="1049.32 895.84 1042.93 895.84 1042.93 888.62 1041.63 888.62 1041.63 895.84 1035.24 895.84 1035.24 897.14 1041.63 897.14 1041.63 902.73 1042.93 902.73 1042.93 897.14 1049.32 897.14 1049.32 895.84"/><circle cx="1076.99" cy="843.92" r="16.15" fill="#82aca8"/><path fill="#fff" d="M1077.94,827.82c-.32,0-.63-.05-1-.05s-.63,0-1,.05v15.35h-15.16c0,.25,0,.5,0,.75s0,.77.06,1.15H1076V860c.32,0,.63.05,1,.05s.63,0,1-.05V845.07h15.14c0-.38.06-.76.06-1.15s0-.5,0-.75h-15.16Z"/><polygon fill="#366691" points="1127.23 612.48 1089.8 667.85 1096.07 666.9 1166.43 667.85 1127.23 612.48"/><polygon fill="#c2e3d8" points="1206.04 738.66 1161.34 743.76 1161.34 666.9 1206.04 666.9 1206.04 738.66"/><polygon fill="#b1d9cb" points="1170.16 726.06 1206.04 738.66 1161.34 743.76 1161.34 666.9 1170.16 726.06"/><polygon fill="#f2fdec" points="1096.07 666.9 1127.88 621.02 1161.34 666.9 1161.34 743.76 1096.07 737.61 1096.07 666.9"/><polygon fill="#265380" points="1128.71 612.11 1164.5 666.9 1216.37 666.9 1176.31 612.11 1128.71 612.11"/><polygon fill="#f2fdec" points="1210.42 663.88 1174.77 615.13 1134.29 615.13 1166.13 663.88 1210.42 663.88"/><polygon fill="#dff3e4" points="1170.25 651.06 1210.42 663.88 1166.13 663.88 1134.29 615.13 1170.25 651.06"/><path fill="#153f6e" d="M1089.8,669.36a1.54,1.54,0,0,0,1.26-.67l36.2-53.56,37.93,53.59a1.51,1.51,0,1,0,2.47-1.75l-39.2-55.37a1.5,1.5,0,0,0-1.25-.64,1.52,1.52,0,0,0-1.23.67L1088.55,667a1.51,1.51,0,0,0,.41,2.1A1.54,1.54,0,0,0,1089.8,669.36Z"/><path fill="#153f6e" d="M1165.76,668.41H1218a1.51,1.51,0,0,0,0-3h-52.22a1.51,1.51,0,0,0,0,3Z"/><rect width="17.38" height="16.94" x="1119.42" y="658.43" fill="#82aca8"/><rect width="1.16" height="16.94" x="1127.54" y="658.43" fill="#fff" transform="rotate(-180 1128.115 666.9)"/><rect width="1.16" height="17.38" x="1127.54" y="658.21" fill="#fff" transform="rotate(90 1128.115 666.895)"/><rect width="12.3" height="28.85" x="1100.73" y="701.58" fill="#82aca8"/><rect width="12.3" height=".63" x="1100.74" y="707.02" fill="#fff"/><rect width="12.3" height=".63" x="1100.74" y="715.69" fill="#fff"/><rect width=".63" height="28.85" x="1106.25" y="701.58" fill="#fff"/><rect width="12.3" height=".63" x="1100.74" y="724.36" fill="#fff"/><rect width="8.33" height="28.85" x="1142.52" y="701.58" fill="#82aca8"/><polygon fill="#82aca8" points="1120.29 739.89 1138.08 741.57 1138.08 699.69 1120.29 699.69 1120.29 739.89"/><polygon fill="#6f9b96" points="1129.18 734.06 1138.08 699.69 1138.08 741.57 1120.29 739.89 1129.18 734.06"/><rect width="8.33" height=".63" x="1142.52" y="707.02" fill="#fff"/><rect width="8.33" height=".63" x="1142.52" y="715.69" fill="#fff"/><rect width=".63" height="28.85" x="1146.21" y="701.58" fill="#fff"/><rect width="8.33" height=".63" x="1142.52" y="724.36" fill="#fff"/><polygon fill="#82aca8" points="1174.1 693.11 1174.1 722.47 1197.2 720.93 1197.2 691.57 1174.1 693.11"/><polygon fill="#fff" points="1174.1 714.11 1185.24 713.27 1185.24 700.83 1174.1 701.67 1174.1 700.85 1185.24 700.01 1185.24 692.37 1186.06 692.32 1186.06 699.95 1197.2 699.11 1197.2 699.93 1186.06 700.77 1186.06 713.21 1197.2 712.37 1197.2 713.19 1186.06 714.03 1186.06 721.67 1185.24 721.73 1185.24 714.09 1174.1 714.93 1174.1 714.11"/><path fill="#366691" d="M1163.81,660.32l7.23-.2,2.51,3.76h.73l-2.53-3.78,6.13-.16,2.64,3.94h.73l-2.65-4,6.12-.17,2.77,4.13h.73l-2.78-4.15,6.13-.17,2.89,4.32h.73l-2.91-4.34,6.13-.17,3,4.51h.72l-3-4.53,7.83-.21-.43-.59-7.79.21-3-4.53,7.59-.11-.44-.6-7.55.11-4.07-6.08,7.13-.17-.43-.6-7.1.17-3.43-5.11,6.81-.13-.43-.6-6.78.13-2.85-4.26,6.59,0-.45-.61-6.54,0-3.48-5.19,6.23,0-.44-.6-6.19,0-3.46-5.16,5.87,0-.44-.61-5.84,0-3.47-5.18,5.53,0-.44-.6-5.49,0-2.61-3.9h-.73l2.62,3.91-6.22,0-2.64-3.94h-.73l2.64,3.94-6.22,0-2.66-4h-.73l2.67,4-6.22,0-2.69-4h-.73l2.69,4-6.21,0-2.72-4h-.72l2.71,4-6.66,0,.39.6,6.67,0,3.48,5.19-6.75,0,.39.6,6.77,0,3.46,5.17-6.85,0,.39.6,6.86,0,3.47,5.18-7,0,.4.6,7,0,3.12,4.66-7,.14.39.6,7-.14,3.52,5.25-7,.17.39.6,7-.18,3.9,5.83-7.19.11.39.6,7.2-.11,3.26,4.87-7.22.2Zm0-12.1,6.14-.15,4,5.89-6.18.09Zm2.57-6.58-3-4.55,6.22,0,3,4.46Zm6.56.48,3.47,5.19-6.14.15-3.49-5.22Zm-10-5.63-3.47-5.18,6.21,0,3.48,5.19ZM1159,630.7l-3.46-5.16,6.22,0,3.46,5.17Zm3.48-5.2,6.22,0,3.46,5.17-6.22,0Zm10.08,5.73,3.48,5.19-6.22,0-3.47-5.18Zm3.88,5.79,2.93,4.37-6.16.12-3-4.45Zm3.33,5,3.45,5.15-6.14.15-3.47-5.18Zm3.85,5.74,4,6-6.17.09-4-6Zm-2.87,6.12-6.18.09-3.95-5.89,6.14-.15Zm-20.9-11.47,6.16-.12,3.49,5.21-6.14.15Zm-3.51-5.25,6.21,0,3.06,4.56-6.16.12Zm-3.88-5.78,6.22,0,3.47,5.18-6.22,0Zm-3.86-5.77,6.22,0,3.46,5.17-6.22,0Zm5.81-.64-6.21,0-3.48-5.2,6.22,0Zm7,0-6.22,0-3.48-5.19,6.22,0Zm6.94,0-6.22,0-3.47-5.19,6.22,0Zm6.94,0-6.22,0-3.47-5.19,6.22,0Zm3.86,5.77-6.22,0-3.45-5.16,6.21,0Zm3.88,5.79-6.22,0-3.47-5.19,6.21,0Zm3.27,4.88-6.16.12L1177.2,637l6.22,0Zm3.82,5.71-6.14.15-3.44-5.15,6.16-.12Zm4.47,6.67-6.18.1-4-6,6.14-.15Zm-5.77.7,6.17-.1,3,4.54-6.13.17Zm-6.9.1,6.17-.09,3.1,4.62-6.13.16Zm-6.9.1,6.18-.09,3.15,4.7-6.13.17Zm-6.9.11,6.18-.1,3.2,4.79-6.12.17Z"/><polygon fill="#dff3e4" points="1127.88 621.02 1151.69 671.43 1161.34 743.76 1161.34 666.9 1127.88 621.02"/><path fill="#567718" d="M478.1,935.44a10.61,10.61,0,0,1-2.65,3.63H384a7.35,7.35,0,0,1-.58-1.11,8,8,0,0,1,1.38-8.47,8.26,8.26,0,0,1,1.76-1.55,11,11,0,0,1,3.6-1.52,13.22,13.22,0,0,1,2-.31,15,15,0,0,1,7.08,1.1,10,10,0,0,1,3.7,2.63,5.47,5.47,0,0,1,.86-8,9.53,9.53,0,0,1,10-.46c-2.3-5.57-2.61-12.05,1.33-17s13-7.28,19-3.84a11.58,11.58,0,0,1,5.6,8.55,27.32,27.32,0,0,1-.8,9.33c1-3.59,6.47-6,10.75-4.51s6,6.57,3.22,9.59a11.29,11.29,0,0,1,2.21-1.68,12.39,12.39,0,0,1,3.7-1.44,11.76,11.76,0,0,1,2.37-.24,10.57,10.57,0,0,1,2.16.28c3.86.94,6.27,5.07,4,7.67a.36.36,0,0,1-.08.09l.08-.08h0a5.7,5.7,0,0,1,3.62-1.54h0a7.87,7.87,0,0,1,5.2,1.35A6.27,6.27,0,0,1,478.1,935.44Z"/><path fill="#4d6812" d="M413.86,930.36c.83,2.23.32,4.47-1.13,5s-3.3-.82-4.13-3-.33-4.47,1.12-5S413,928.13,413.86,930.36Z"/><path fill="#4d6812" d="M422.56,917.53c.83,2.23.33,4.48-1.12,5s-3.31-.83-4.14-3.06-.32-4.47,1.13-5S421.73,915.31,422.56,917.53Z"/><path fill="#4d6812" d="M430.92,907.53c.38,2.35-.55,4.45-2.08,4.7s-3.08-1.45-3.46-3.79.54-4.45,2.07-4.7S430.53,905.18,430.92,907.53Z"/><path fill="#4d6812" d="M448.35,924.16c-1.08,2.11-3.08,3.26-4.46,2.55s-1.62-3-.53-5.11,3.08-3.26,4.45-2.55S449.43,922,448.35,924.16Z"/><path fill="#4d6812" d="M461.21,930.08c-1.09,2.12-3.08,3.26-4.46,2.55s-1.62-3-.54-5.11,3.08-3.25,4.46-2.55S462.29,928,461.21,930.08Z"/><path fill="#428a6b" d="M473.38,936.31c-1.08,2.12-3.08,3.26-4.46,2.55s-1.62-3-.53-5.11,3.07-3.25,4.45-2.55S474.46,934.19,473.38,936.31Z"/><path fill="#ff9500" d="M503.65,939.07h-37.1a47.47,47.47,0,0,1-6.5-7.4,37.9,37.9,0,0,1-3.12-5.26,31.42,31.42,0,0,1-1.8-4.59,25.64,25.64,0,0,1-1.05-5.89c3.59-10.4,14.36,5.1,16.88,10.62.11.25.21.47.29.68l-.25-.69c-3.84-10.61-15.28-34.31-2-35.91,4-.47,7,2.87,8.25,4.72a44.84,44.84,0,0,1,7.62,19c-.13-9.23.93-17.89,7.59-24.31a6.16,6.16,0,0,1,9.57.59c7.73,11.41-1.16,27-5.36,38.85,3.25-5.88,10-19.87,18-12.83C517.65,923.69,509,932.88,503.65,939.07Z"/><path fill="#db7700" d="M481.65,939.07h-2.11a156.17,156.17,0,0,0-9.19-40c-.48-1.28,1.57-1.82,2-.57A157.5,157.5,0,0,1,481.65,939.07Z"/><path fill="#db7700" d="M473.3,939.07H471a2.4,2.4,0,0,0-.11-.23c-.77-1.71-1.61-3.39-2.52-5A68.56,68.56,0,0,0,459.1,921a1,1,0,0,1-.27-.58c-.11-.88,1-1.73,1.77-.91l.6.67a71,71,0,0,1,6.13,8s0,0,0,0q1.28,1.9,2.41,3.88,1.54,2.7,2.85,5.53C472.84,938,473.07,938.55,473.3,939.07Z"/><path fill="#db7700" d="M497.77,897.76a99.67,99.67,0,0,0-5.15,41.31h-2.09a101.58,101.58,0,0,1,5.21-41.88C496.18,895.92,498.22,896.47,497.77,897.76Z"/><path fill="#db7700" d="M509.13,923.09a54.7,54.7,0,0,0-6.52,16h-2.16a56.83,56.83,0,0,1,6.86-17C508,920.87,509.84,921.93,509.13,923.09Z"/><path fill="#96b02e" d="M399.25,927.21c0,3.95-4.07,8.51-7,11.86H367.81c-3.93-3.82-7.14-8.84-7.45-14.26,2.39-6.91,9.76,4.17,10.92,7.19-2.27-6.52-10.06-22.24-1.44-23.27,2.52-.31,4.44,1.82,5.24,3a28.41,28.41,0,0,1,4.85,12.07c-.08-5.86.59-11.37,4.83-15.45a3.91,3.91,0,0,1,6.08.37c3.5,5.16,1.65,11.66-.67,17.7-.94,2.46-2,4.83-2.74,7,1.07-1.92,2.71-5.19,4.74-7.32s4.21-3,6.68-.84A5,5,0,0,1,399.25,927.21Z"/><path fill="#86a226" d="M377.85,939.07H376.5a99,99,0,0,0-5.79-25c-.3-.81,1-1.16,1.3-.36A100.36,100.36,0,0,1,377.85,939.07Z"/><path fill="#86a226" d="M372.39,939.07h-1.48A43.33,43.33,0,0,0,363.56,928c-.58-.63.36-1.58.95-.94A45,45,0,0,1,372.39,939.07Z"/><path fill="#86a226" d="M384.81,929.49a62.53,62.53,0,0,0,0,9.58H383.5c0-.37-.05-.74-.07-1.11-.13-2-.15-4.06-.08-6.09a64.48,64.48,0,0,1,3.5-19c.29-.81,1.58-.46,1.3.36A62.75,62.75,0,0,0,384.81,929.49Z"/><path fill="#86a226" d="M395.37,929.37a34.72,34.72,0,0,0-4,9.7H390a36,36,0,0,1,4.25-10.38C394.66,928,395.82,928.63,395.37,929.37Z"/><path fill="#849c16" d="M200.84,960H116.45a109.21,109.21,0,0,1-14.77-16.84,84.89,84.89,0,0,1-7.1-12,69.77,69.77,0,0,1-4.1-10.44,58.63,58.63,0,0,1-2.39-13.39c8.17-23.67,32.67,11.6,38.4,24.15.26.56.48,1.08.66,1.55-.18-.5-.37-1-.56-1.56-8.75-24.15-34.78-78.06-4.61-81.69,9-1.08,15.87,6.52,18.76,10.74a101.9,101.9,0,0,1,17.33,43.21c-.28-21,2.13-40.7,17.28-55.29,8.13-7.83,18.07-4.31,21.77,1.33,17.59,26-2.64,61.36-12.19,88.38,7.39-13.37,22.7-45.19,40.82-29.18C232.69,925,212.91,945.91,200.84,960Z"/><path fill="#999" d="M150.8,960H146a355.8,355.8,0,0,0-20.89-91c-1.08-2.9,3.57-4.14,4.63-1.28A358.82,358.82,0,0,1,150.8,960Z"/><path fill="#999" d="M131.81,960h-5.26q-.1-.27-.24-.54c-1.75-3.88-3.67-7.7-5.75-11.42a154.68,154.68,0,0,0-21-29.23,2.37,2.37,0,0,1-.63-1.33c-.26-2,2.32-3.93,4-2.06.47.5.92,1,1.37,1.52A155.78,155.78,0,0,1,118.22,935h0q2.89,4.34,5.47,8.83,3.54,6.15,6.5,12.57C130.76,957.61,131.29,958.8,131.81,960Z"/><path fill="#999" d="M187.48,866a226.4,226.4,0,0,0-11.72,94H171a231.24,231.24,0,0,1,11.84-95.27C183.85,861.84,188.49,863.09,187.48,866Z"/><path fill="#999" d="M213.31,923.65A124,124,0,0,0,198.49,960h-4.91a128.74,128.74,0,0,1,15.59-38.77C210.77,918.59,214.92,921,213.31,923.65Z"/><path fill="#849c16" d="M1237,960h84.4a109.21,109.21,0,0,0,14.77-16.84,85.86,85.86,0,0,0,7.1-12,69.72,69.72,0,0,0,4.09-10.44,58.64,58.64,0,0,0,2.4-13.39c-8.17-23.67-32.67,11.6-38.4,24.15-.26.56-.48,1.08-.66,1.55.18-.5.36-1,.56-1.56,8.74-24.15,34.78-78.06,4.6-81.69-9-1.08-15.86,6.52-18.75,10.74a102.05,102.05,0,0,0-17.34,43.21c.28-21-2.12-40.7-17.27-55.29-8.14-7.83-18.07-4.31-21.77,1.33-17.59,26,2.64,61.36,12.18,88.38-7.39-13.37-22.69-45.19-40.82-29.18C1205.12,925,1224.89,945.91,1237,960Z"/><path fill="#999" d="M1287,960h4.81a356.22,356.22,0,0,1,20.89-91c1.09-2.9-3.56-4.14-4.62-1.28A358.83,358.83,0,0,0,1287,960Z"/><path fill="#999" d="M1306,960h5.25c.08-.18.15-.36.25-.54,1.75-3.88,3.66-7.7,5.74-11.42a154.73,154.73,0,0,1,21-29.23,2.37,2.37,0,0,0,.63-1.33c.25-2-2.32-3.93-4-2.06-.46.5-.92,1-1.36,1.52a157,157,0,0,0-14,18.09h0q-2.89,4.34-5.47,8.83-3.52,6.15-6.49,12.57C1307.05,957.61,1306.52,958.8,1306,960Z"/><path fill="#999" d="M1250.33,866a226.57,226.57,0,0,1,11.72,94h4.76A231.08,231.08,0,0,0,1255,864.73C1254,861.84,1249.32,863.09,1250.33,866Z"/><path fill="#999" d="M1224.49,923.65A124,124,0,0,1,1239.32,960h4.91a128.51,128.51,0,0,0-15.6-38.77C1227,918.59,1222.89,921,1224.49,923.65Z"/><path fill="#86a226" d="M840.62,827.52a1,1,0,0,0-1.08.44,1,1,0,0,0,.15,1.15c1.88,1.83,2.31,4.54,2.59,7a1,1,0,0,0,1.91,0,19.32,19.32,0,0,0-1.31-5.7,7.14,7.14,0,0,1,3.29,5.49,1,1,0,0,0,1,.95,1,1,0,0,0,1-.95A9.2,9.2,0,0,0,840.62,827.52Z"/><path fill="#86a226" d="M853.92,830.28a6.68,6.68,0,0,0-4.92,5.33,1,1,0,0,0,1.84.51,5.45,5.45,0,0,1,.18-.8l.12-.37,0-.06c0-.06.05-.12.08-.17a4.6,4.6,0,0,1,.39-.68l.11-.16,0,0,.26-.3a4.79,4.79,0,0,1,.47-.43c-.27.84-.5,1.7-.69,2.56a1,1,0,0,0,.67,1.18,1,1,0,0,0,1.17-.67,32,32,0,0,1,1.44-4.71.94.94,0,0,0-.25-.93A1,1,0,0,0,853.92,830.28Z"/><path fill="#86a226" d="M858.26,833.33a1,1,0,0,0-1.31.35,15.18,15.18,0,0,0-1.06,2.36,1,1,0,0,0,.09.73,1,1,0,0,0,1.31.34,1,1,0,0,0,.44-.57c.07-.21.15-.41.24-.62.19-.44.4-.86.63-1.28a1,1,0,0,0,.1-.73A1,1,0,0,0,858.26,833.33Z"/><path fill="#86a226" d="M839.23,833.36a1.07,1.07,0,0,0-.57-.44,1,1,0,0,0-.74.1,1,1,0,0,0-.44.57.93.93,0,0,0,.1.73,7.82,7.82,0,0,1,.86,1.48,6.94,6.94,0,0,1,.35,1.12,1,1,0,0,0,1.18.66,1,1,0,0,0,.66-1.17A8.16,8.16,0,0,0,839.23,833.36Z"/><path fill="#86a226" d="M274.91,898.23a1,1,0,0,0-1.07.44,1,1,0,0,0,.15,1.16c1.87,1.82,2.31,4.54,2.58,7a1,1,0,0,0,1,.95,1,1,0,0,0,1-.95,19.08,19.08,0,0,0-1.31-5.7,7.19,7.19,0,0,1,3.3,5.49,1,1,0,0,0,.95,1,1,1,0,0,0,1-1A9.22,9.22,0,0,0,274.91,898.23Z"/><path fill="#86a226" d="M288.22,901a6.67,6.67,0,0,0-4.93,5.32,1,1,0,0,0,.67,1.18,1,1,0,0,0,1.17-.67,5.45,5.45,0,0,1,.18-.8c0-.12.08-.24.13-.36l0-.07a1.3,1.3,0,0,1,.08-.17,5.51,5.51,0,0,1,.38-.67l.11-.16,0-.05a2.55,2.55,0,0,1,.26-.3,4.78,4.78,0,0,1,.46-.44c-.26.84-.49,1.7-.68,2.57a1,1,0,1,0,1.84.5,31.16,31.16,0,0,1,1.43-4.71.94.94,0,0,0-.24-.93A1,1,0,0,0,288.22,901Z"/><path fill="#86a226" d="M292.55,904.05a1,1,0,0,0-1.3.34,15.66,15.66,0,0,0-1.07,2.36.93.93,0,0,0,.1.73,1,1,0,0,0,.57.44.93.93,0,0,0,.73-.09,1,1,0,0,0,.44-.57c.08-.21.16-.42.25-.62a12.8,12.8,0,0,1,.63-1.29,1,1,0,0,0,.09-.73A1,1,0,0,0,292.55,904.05Z"/><path fill="#86a226" d="M273.52,904.07a1,1,0,0,0-.57-.44,1,1,0,0,0-.73.1,1,1,0,0,0-.35,1.3,7.32,7.32,0,0,1,.86,1.48,7.68,7.68,0,0,1,.36,1.12,1,1,0,0,0,1.17.66,1,1,0,0,0,.67-1.17A8.25,8.25,0,0,0,273.52,904.07Z"/><path fill="#86a226" d="M273.34,679a9.19,9.19,0,0,0-7.46-8.42,1,1,0,0,0-1.08.44,1,1,0,0,0,.15,1.15c1.88,1.83,2.32,4.54,2.59,7a1,1,0,0,0,1,1,1,1,0,0,0,.95-1,19.08,19.08,0,0,0-1.31-5.7,7.19,7.19,0,0,1,3.3,5.49,1,1,0,0,0,.95,1A1,1,0,0,0,273.34,679Z"/><path fill="#86a226" d="M274.92,679.81a1,1,0,0,0,1.18-.66,5.45,5.45,0,0,1,.18-.8c0-.12.08-.24.13-.37l0-.06c0-.06.05-.12.08-.17a5.7,5.7,0,0,1,.39-.68l.11-.16,0,0a3.47,3.47,0,0,1,.25-.29c.15-.16.31-.3.47-.44-.26.84-.49,1.7-.69,2.57a1,1,0,0,0,.67,1.17,1,1,0,0,0,1.17-.67,32.39,32.39,0,0,1,1.44-4.71.92.92,0,0,0-.25-.93,1,1,0,0,0-.92-.24,6.67,6.67,0,0,0-4.93,5.32A1,1,0,0,0,274.92,679.81Z"/><path fill="#86a226" d="M284,676.94a1,1,0,0,0-1.74-.23,14.34,14.34,0,0,0-1.07,2.36,1,1,0,0,0,1.4,1.07,1,1,0,0,0,.44-.57c.07-.2.16-.41.24-.62.19-.43.4-.86.63-1.28A.94.94,0,0,0,284,676.94Z"/><path fill="#86a226" d="M264.49,676.39a1,1,0,0,0-.57-.44,1,1,0,0,0-.74.1.92.92,0,0,0-.43.57.89.89,0,0,0,.09.73,7.82,7.82,0,0,1,.86,1.48,7,7,0,0,1,.36,1.12,1,1,0,0,0,1.17.66,1,1,0,0,0,.67-1.17A8.41,8.41,0,0,0,264.49,676.39Z"/><path fill="#86a226" d="M83.78,713.76a1,1,0,0,0-1.08.43,1,1,0,0,0,.15,1.16c1.88,1.83,2.32,4.54,2.59,7a1,1,0,0,0,1,1,1,1,0,0,0,1-1A19,19,0,0,0,86,716.69a7.18,7.18,0,0,1,3.3,5.49,1,1,0,0,0,1,1,1,1,0,0,0,.95-1A9.19,9.19,0,0,0,83.78,713.76Z"/><path fill="#86a226" d="M97.08,716.52a6.7,6.7,0,0,0-4.92,5.33,1,1,0,1,0,1.84.5,5.32,5.32,0,0,1,.18-.79c0-.13.08-.25.13-.37a.25.25,0,0,0,0-.07s0-.11.08-.17a5.07,5.07,0,0,1,.39-.67l.11-.16,0,0,.25-.3.47-.44c-.26.85-.5,1.71-.69,2.57a1,1,0,0,0,.67,1.18,1,1,0,0,0,1.17-.67,32,32,0,0,1,1.44-4.71.94.94,0,0,0-.25-.93A1,1,0,0,0,97.08,716.52Z"/><path fill="#86a226" d="M101.42,719.57a1,1,0,0,0-1.3.35,14.62,14.62,0,0,0-1.07,2.35,1,1,0,0,0,.1.74.94.94,0,0,0,.57.44,1,1,0,0,0,.73-.1,1.08,1.08,0,0,0,.44-.57c.07-.21.16-.41.24-.62a13.82,13.82,0,0,1,.63-1.28,1,1,0,0,0-.34-1.31Z"/><path fill="#86a226" d="M82.39,719.6a1,1,0,0,0-.57-.44,1,1,0,0,0-.74.09,1,1,0,0,0-.44.57,1,1,0,0,0,.1.74A7.52,7.52,0,0,1,81.6,722a7.19,7.19,0,0,1,.36,1.11,1,1,0,0,0,1.17.67,1,1,0,0,0,.67-1.17A8.26,8.26,0,0,0,82.39,719.6Z"/><path fill="#86a226" d="M300,754.55a1,1,0,0,0-1.08.44,1,1,0,0,0,.15,1.16c1.88,1.83,2.31,4.54,2.59,7a1,1,0,0,0,.95,1,1,1,0,0,0,1-1,19.39,19.39,0,0,0-1.31-5.7,7.18,7.18,0,0,1,3.29,5.5,1,1,0,0,0,1,.95,1,1,0,0,0,1-.95A9.22,9.22,0,0,0,300,754.55Z"/><path fill="#86a226" d="M313.25,757.32a6.68,6.68,0,0,0-4.93,5.32,1,1,0,0,0,.67,1.18,1,1,0,0,0,1.17-.67,7,7,0,0,1,.19-.79c0-.13.08-.25.12-.37l0-.07a1.3,1.3,0,0,1,.08-.17,5.51,5.51,0,0,1,.38-.67l.12-.16,0,0,.26-.3a3.94,3.94,0,0,1,.47-.44c-.27.85-.5,1.7-.69,2.57a1,1,0,0,0,1.84.51,29.89,29.89,0,0,1,1.44-4.72,1,1,0,0,0-.25-.93A1,1,0,0,0,313.25,757.32Z"/><path fill="#86a226" d="M317.59,760.37a1,1,0,0,0-1.31.34,16.07,16.07,0,0,0-1.06,2.36,1,1,0,0,0,.09.74,1,1,0,0,0,.57.43,1,1,0,0,0,.74-.09,1.14,1.14,0,0,0,.44-.57,6.62,6.62,0,0,1,.24-.62,13.82,13.82,0,0,1,.63-1.28,1.06,1.06,0,0,0,.1-.74A1,1,0,0,0,317.59,760.37Z"/><path fill="#86a226" d="M298.56,760.39A1.11,1.11,0,0,0,298,760a1,1,0,0,0-.73.1,1,1,0,0,0-.44.57,1,1,0,0,0,.1.74,8,8,0,0,1,.86,1.47,9.06,9.06,0,0,1,.35,1.12,1,1,0,0,0,1.18.67,1,1,0,0,0,.66-1.18A8.23,8.23,0,0,0,298.56,760.39Z"/><path fill="#86a226" d="M665.74,782.3a1,1,0,0,0-1.08.44,1,1,0,0,0,.15,1.15c1.88,1.83,2.31,4.54,2.59,7a1,1,0,0,0,1.91,0,19.39,19.39,0,0,0-1.31-5.7,7.18,7.18,0,0,1,3.29,5.49,1,1,0,0,0,1,1,1,1,0,0,0,1-1A9.2,9.2,0,0,0,665.74,782.3Z"/><path fill="#86a226" d="M679,785.07a6.68,6.68,0,0,0-4.93,5.32,1,1,0,0,0,.67,1.17,1,1,0,0,0,1.17-.66,7.16,7.16,0,0,1,.19-.8c0-.12.08-.24.12-.37l0-.06a.89.89,0,0,1,.08-.17,6.52,6.52,0,0,1,.38-.68l.12-.16,0,0a2.55,2.55,0,0,1,.26-.3,4.78,4.78,0,0,1,.46-.44c-.26.84-.49,1.7-.68,2.57a1,1,0,0,0,.67,1.17,1,1,0,0,0,1.17-.67,31.16,31.16,0,0,1,1.43-4.71.92.92,0,0,0-.24-.93A1,1,0,0,0,679,785.07Z"/><path fill="#86a226" d="M683.38,788.12a1,1,0,0,0-1.31.34,15.61,15.61,0,0,0-1.06,2.36,1,1,0,0,0,.09.73,1,1,0,0,0,.57.44,1,1,0,0,0,.74-.09,1.16,1.16,0,0,0,.44-.58c.07-.2.15-.41.24-.62.19-.43.4-.86.63-1.28a1,1,0,0,0,.1-.73A1,1,0,0,0,683.38,788.12Z"/><path fill="#86a226" d="M664.34,788.14a1,1,0,0,0-.57-.44,1,1,0,0,0-.73.1,1,1,0,0,0-.44.57.93.93,0,0,0,.1.73,8.4,8.4,0,0,1,.86,1.48,8.56,8.56,0,0,1,.35,1.12,1,1,0,0,0,1.84-.51A8.09,8.09,0,0,0,664.34,788.14Z"/><path fill="#86a226" d="M524,744.43a1,1,0,0,0-1.08.44,1,1,0,0,0,.15,1.15c1.88,1.83,2.32,4.54,2.59,7a1,1,0,0,0,1,1,1,1,0,0,0,1-1,19.08,19.08,0,0,0-1.31-5.7,7.19,7.19,0,0,1,3.3,5.49,1,1,0,1,0,1.91,0A9.21,9.21,0,0,0,524,744.43Z"/><path fill="#86a226" d="M537.34,747.2a6.67,6.67,0,0,0-4.93,5.32,1,1,0,0,0,.67,1.17,1,1,0,0,0,1.17-.66,5.45,5.45,0,0,1,.18-.8c0-.12.08-.24.13-.37a.14.14,0,0,0,0-.06l.08-.17c.12-.23.25-.46.39-.68l.11-.16,0,0a2.48,2.48,0,0,1,.25-.3c.15-.16.31-.3.47-.44-.26.84-.49,1.7-.68,2.57a1,1,0,0,0,.66,1.17,1,1,0,0,0,1.18-.67,31.16,31.16,0,0,1,1.43-4.71.92.92,0,0,0-.25-.93A1,1,0,0,0,537.34,747.2Z"/><path fill="#86a226" d="M541.67,750.25a1,1,0,0,0-1.3.34A15.66,15.66,0,0,0,539.3,753a1,1,0,0,0,1.4,1.07,1,1,0,0,0,.44-.57l.24-.62c.19-.43.4-.86.63-1.28a.94.94,0,0,0,.1-.73A1,1,0,0,0,541.67,750.25Z"/><path fill="#86a226" d="M522.64,750.27a1,1,0,0,0-1.31-.34.92.92,0,0,0-.43.57.89.89,0,0,0,.09.73,6.72,6.72,0,0,1,1.22,2.6,1,1,0,0,0,1.17.66,1,1,0,0,0,.67-1.17A8.41,8.41,0,0,0,522.64,750.27Z"/><path fill="#86a226" d="M51.57,876.9a1,1,0,0,0-1.08.44,1,1,0,0,0,.15,1.16c1.88,1.82,2.32,4.54,2.59,7a1,1,0,0,0,1,1,1,1,0,0,0,1-1,19.08,19.08,0,0,0-1.31-5.7,7.15,7.15,0,0,1,3.29,5.49,1,1,0,0,0,1,1,1,1,0,0,0,1-1A9.22,9.22,0,0,0,51.57,876.9Z"/><path fill="#86a226" d="M64.87,879.67A6.66,6.66,0,0,0,60,885a1,1,0,1,0,1.84.51,5.45,5.45,0,0,1,.18-.8c0-.12.08-.24.13-.36a.64.64,0,0,1,0-.07l.08-.17a5.17,5.17,0,0,1,.39-.68l.11-.15,0,0c.09-.11.17-.21.26-.3a4.89,4.89,0,0,1,.47-.44c-.27.84-.5,1.7-.69,2.57a1,1,0,0,0,.67,1.17,1,1,0,0,0,1.17-.67,32.39,32.39,0,0,1,1.44-4.71.94.94,0,0,0-.25-.93A1,1,0,0,0,64.87,879.67Z"/><path fill="#86a226" d="M69.21,882.72a1,1,0,0,0-1.31.34,15.61,15.61,0,0,0-1.06,2.36,1,1,0,0,0,.09.73,1,1,0,0,0,.57.44,1,1,0,0,0,.74-.09,1.08,1.08,0,0,0,.44-.57c.07-.21.16-.42.24-.62q.28-.66.63-1.29a1,1,0,0,0,.1-.73A1,1,0,0,0,69.21,882.72Z"/><path fill="#86a226" d="M50.18,882.74a1,1,0,0,0-.57-.44,1,1,0,0,0-1.18.67.93.93,0,0,0,.1.73,7.82,7.82,0,0,1,.86,1.48,7.63,7.63,0,0,1,.35,1.12,1,1,0,0,0,1.18.66,1,1,0,0,0,.66-1.17A8.23,8.23,0,0,0,50.18,882.74Z"/><path fill="#86a226" d="M877.52,930.22a1,1,0,0,0-1.08.43,1,1,0,0,0,.15,1.16c1.88,1.83,2.32,4.54,2.59,7a1,1,0,0,0,1,1,1,1,0,0,0,1-1,19,19,0,0,0-1.31-5.69,7.18,7.18,0,0,1,3.3,5.49,1,1,0,0,0,.95,1,1,1,0,0,0,1-1A9.21,9.21,0,0,0,877.52,930.22Z"/><path fill="#86a226" d="M890.83,933a6.7,6.7,0,0,0-4.93,5.33,1,1,0,0,0,1.84.5,5.32,5.32,0,0,1,.18-.79c0-.13.08-.25.13-.37l0-.07c0-.05,0-.11.07-.17.12-.23.25-.45.39-.67l.11-.16,0-.05.25-.3.47-.44c-.26.85-.49,1.71-.68,2.57a1,1,0,1,0,1.84.51,30.82,30.82,0,0,1,1.43-4.71.94.94,0,0,0-.24-.93A1,1,0,0,0,890.83,933Z"/><path fill="#86a226" d="M895.16,936a1,1,0,0,0-1.3.34,16.12,16.12,0,0,0-1.07,2.36,1,1,0,0,0,.1.74.94.94,0,0,0,1.3.34,1.08,1.08,0,0,0,.44-.57l.24-.62a11.75,11.75,0,0,1,.64-1.28,1,1,0,0,0,.09-.74A1,1,0,0,0,895.16,936Z"/><path fill="#86a226" d="M876.13,936.06a1,1,0,0,0-.57-.44.94.94,0,0,0-1.17.66.91.91,0,0,0,.09.74,7.06,7.06,0,0,1,.86,1.48,7.19,7.19,0,0,1,.36,1.11,1,1,0,0,0,1.17.67,1,1,0,0,0,.67-1.17A8.11,8.11,0,0,0,876.13,936.06Z"/><path fill="#86a226" d="M1207,825.21a1,1,0,0,0-1.08.44,1,1,0,0,0,.15,1.16c1.88,1.83,2.32,4.54,2.59,7a1,1,0,0,0,.95.95,1,1,0,0,0,1-.95,19.08,19.08,0,0,0-1.31-5.7,7.19,7.19,0,0,1,3.3,5.49,1,1,0,0,0,1,1,1,1,0,0,0,1-1A9.21,9.21,0,0,0,1207,825.21Z"/><path fill="#86a226" d="M1220.29,828a6.67,6.67,0,0,0-4.92,5.32,1,1,0,1,0,1.84.51,5.32,5.32,0,0,1,.18-.79c0-.13.08-.25.13-.37a.25.25,0,0,0,0-.07l.08-.17a4.5,4.5,0,0,1,.39-.67.91.91,0,0,1,.11-.16.1.1,0,0,1,0-.05l.25-.3c.15-.16.31-.3.47-.44-.26.85-.5,1.7-.69,2.57a1,1,0,0,0,.67,1.17,1,1,0,0,0,1.17-.66,32.14,32.14,0,0,1,1.44-4.72,1,1,0,0,0-.25-.93A1,1,0,0,0,1220.29,828Z"/><path fill="#86a226" d="M1224.63,831a1,1,0,0,0-1.3.34,14.73,14.73,0,0,0-1.07,2.36.93.93,0,0,0,.67,1.17.94.94,0,0,0,.73-.09,1.08,1.08,0,0,0,.44-.57c.07-.21.16-.42.24-.62a13.82,13.82,0,0,1,.63-1.28,1,1,0,0,0-.34-1.31Z"/><path fill="#86a226" d="M1205.6,831.05a1.08,1.08,0,0,0-.57-.44,1,1,0,0,0-1.18.67,1,1,0,0,0,.1.74,7.44,7.44,0,0,1,.86,1.47,7.68,7.68,0,0,1,.36,1.12,1,1,0,0,0,1.17.67,1,1,0,0,0,.67-1.18A8.41,8.41,0,0,0,1205.6,831.05Z"/><path fill="#86a226" d="M1276.7,752.54a1,1,0,0,0-1.08.43,1,1,0,0,0,.15,1.16c1.88,1.83,2.32,4.54,2.59,7a1,1,0,0,0,1,1,1,1,0,0,0,1-1,19,19,0,0,0-1.31-5.69,7.18,7.18,0,0,1,3.3,5.49,1,1,0,0,0,1,.95,1,1,0,0,0,1-.95A9.19,9.19,0,0,0,1276.7,752.54Z"/><path fill="#86a226" d="M1290,755.3a6.7,6.7,0,0,0-4.92,5.33,1,1,0,1,0,1.84.5,5.32,5.32,0,0,1,.18-.79c0-.13.08-.25.13-.37a.25.25,0,0,0,0-.07s0-.11.08-.17a5.07,5.07,0,0,1,.39-.67l.11-.16,0,0,.26-.3.47-.44c-.26.85-.5,1.71-.69,2.57a1,1,0,0,0,.67,1.18,1,1,0,0,0,1.17-.67,32,32,0,0,1,1.44-4.71.94.94,0,0,0-.25-.93A1,1,0,0,0,1290,755.3Z"/><path fill="#86a226" d="M1294.78,758.92a1,1,0,0,0-.44-.57,1,1,0,0,0-1.31.35,15.5,15.5,0,0,0-1.06,2.35,1,1,0,0,0,.09.74,1,1,0,0,0,.58.44,1,1,0,0,0,.73-.1,1.08,1.08,0,0,0,.44-.57c.07-.21.16-.41.24-.62a13.82,13.82,0,0,1,.63-1.28A1,1,0,0,0,1294.78,758.92Z"/><path fill="#86a226" d="M1275.31,758.37a1.07,1.07,0,0,0-.57-.43,1,1,0,0,0-.74.09,1,1,0,0,0-.44.57,1,1,0,0,0,.1.74,7.52,7.52,0,0,1,.86,1.48,7.19,7.19,0,0,1,.36,1.11,1,1,0,0,0,1.17.67,1,1,0,0,0,.67-1.17A8.38,8.38,0,0,0,1275.31,758.37Z"/><path fill="#86a226" d="M1153.56,768.2a1,1,0,0,0-1.08.44,1,1,0,0,0,.15,1.16c1.88,1.83,2.31,4.54,2.59,7a1,1,0,0,0,1,1,1,1,0,0,0,1-1,19.25,19.25,0,0,0-1.31-5.69,7.12,7.12,0,0,1,3.29,5.49,1,1,0,0,0,1,1,1,1,0,0,0,1-1A9.22,9.22,0,0,0,1153.56,768.2Z"/><path fill="#86a226" d="M1166.86,771a6.68,6.68,0,0,0-4.92,5.33,1,1,0,1,0,1.84.5,5.32,5.32,0,0,1,.18-.79l.12-.37a.36.36,0,0,0,0-.07c0-.05.05-.11.08-.17a4.5,4.5,0,0,1,.39-.67l.11-.16,0-.05.26-.3a4.89,4.89,0,0,1,.47-.44c-.27.85-.5,1.7-.69,2.57a1,1,0,0,0,.67,1.18,1,1,0,0,0,1.17-.67,32,32,0,0,1,1.44-4.71.94.94,0,0,0-.25-.93A1,1,0,0,0,1166.86,771Z"/><path fill="#86a226" d="M1171.2,774a1,1,0,0,0-1.31.34,16.07,16.07,0,0,0-1.06,2.36,1,1,0,0,0,.09.74,1,1,0,0,0,.57.44,1,1,0,0,0,.74-.1,1.08,1.08,0,0,0,.44-.57,6.62,6.62,0,0,1,.24-.62,13.82,13.82,0,0,1,.63-1.28,1.05,1.05,0,0,0,.1-.74A1,1,0,0,0,1171.2,774Z"/><path fill="#86a226" d="M1152.17,774a1.11,1.11,0,0,0-.57-.43,1,1,0,0,0-.74.09,1,1,0,0,0-.44.57,1,1,0,0,0,.1.74,7.52,7.52,0,0,1,.86,1.48,7.15,7.15,0,0,1,.35,1.11,1,1,0,1,0,1.84-.51A8.23,8.23,0,0,0,1152.17,774Z"/><path fill="#86a226" d="M973,865.46a1,1,0,0,0-1.08.44,1,1,0,0,0,.15,1.15c1.88,1.83,2.32,4.54,2.59,7a1,1,0,0,0,1,.95,1,1,0,0,0,1-.95,19.08,19.08,0,0,0-1.31-5.7,7.19,7.19,0,0,1,3.3,5.49,1,1,0,0,0,1,1,1,1,0,0,0,1-1A9.19,9.19,0,0,0,973,865.46Z"/><path fill="#86a226" d="M986.29,868.23a6.67,6.67,0,0,0-4.92,5.32,1,1,0,0,0,1.84.51,5.45,5.45,0,0,1,.18-.8c0-.12.08-.24.13-.37a.14.14,0,0,0,0-.06c0-.06.05-.12.08-.17A5.17,5.17,0,0,1,984,872l.11-.16,0,0a2.48,2.48,0,0,1,.25-.3c.15-.16.31-.3.47-.44-.26.84-.5,1.7-.69,2.57a1,1,0,0,0,.67,1.17,1,1,0,0,0,1.17-.67,32.39,32.39,0,0,1,1.44-4.71.94.94,0,0,0-.25-.93A1,1,0,0,0,986.29,868.23Z"/><path fill="#86a226" d="M990.63,871.28a1,1,0,0,0-1.3.34,14.73,14.73,0,0,0-1.07,2.36.94.94,0,0,0,.67,1.17.94.94,0,0,0,.73-.1,1,1,0,0,0,.44-.57c.07-.2.16-.41.24-.62.19-.43.4-.86.63-1.28a.94.94,0,0,0,.1-.73A1,1,0,0,0,990.63,871.28Z"/><path fill="#86a226" d="M971.6,871.3a1,1,0,0,0-.57-.44,1,1,0,0,0-.74.1,1,1,0,0,0-.44.57.93.93,0,0,0,.1.73,7.82,7.82,0,0,1,.86,1.48,7.31,7.31,0,0,1,.36,1.12,1,1,0,0,0,1.17.66,1,1,0,0,0,.67-1.17A8.41,8.41,0,0,0,971.6,871.3Z"/><path fill="#86a226" d="M1192,893.17a1,1,0,0,0-1.08.44,1,1,0,0,0,.15,1.15c1.88,1.83,2.32,4.54,2.59,7a1,1,0,0,0,.95,1,1,1,0,0,0,1-1,19.08,19.08,0,0,0-1.31-5.7,7.19,7.19,0,0,1,3.3,5.49,1,1,0,0,0,1,1,1,1,0,0,0,1-1A9.19,9.19,0,0,0,1192,893.17Z"/><path fill="#86a226" d="M1205.31,895.94a6.67,6.67,0,0,0-4.92,5.32,1,1,0,0,0,1.84.51,5.45,5.45,0,0,1,.18-.8c0-.12.08-.24.13-.37a.14.14,0,0,0,0-.06c0-.06,0-.12.08-.17a5.17,5.17,0,0,1,.39-.68l.11-.16,0,0a2.48,2.48,0,0,1,.25-.3c.15-.16.31-.3.47-.44-.26.84-.5,1.7-.69,2.57a1,1,0,0,0,.67,1.17,1,1,0,0,0,1.17-.67,32.39,32.39,0,0,1,1.44-4.71.94.94,0,0,0-.25-.93A1,1,0,0,0,1205.31,895.94Z"/><path fill="#86a226" d="M1209.65,899a1,1,0,0,0-1.31.34,15.18,15.18,0,0,0-1.06,2.36.94.94,0,0,0,.67,1.17.94.94,0,0,0,.73-.1,1,1,0,0,0,.44-.57c.07-.2.16-.41.24-.62.19-.43.4-.86.63-1.28a.94.94,0,0,0,.1-.73A1,1,0,0,0,1209.65,899Z"/><path fill="#86a226" d="M1190.62,899a1,1,0,0,0-.57-.44,1,1,0,0,0-.74.1,1,1,0,0,0-.44.57.93.93,0,0,0,.1.73,7.82,7.82,0,0,1,.86,1.48,7.31,7.31,0,0,1,.36,1.12,1,1,0,0,0,1.17.66,1,1,0,0,0,.67-1.17A8.41,8.41,0,0,0,1190.62,899Z"/><path fill="#86a226" d="M647.34,935.28a1,1,0,0,0-1.08.43,1,1,0,0,0,.15,1.16c1.88,1.83,2.31,4.54,2.59,7a1,1,0,0,0,1,1,1,1,0,0,0,.95-1,19,19,0,0,0-1.3-5.69,7.16,7.16,0,0,1,3.29,5.49,1,1,0,0,0,1,.95,1,1,0,0,0,.95-.95A9.2,9.2,0,0,0,647.34,935.28Z"/><path fill="#86a226" d="M660.64,938a6.7,6.7,0,0,0-4.93,5.33,1,1,0,0,0,.67,1.17,1,1,0,0,0,1.17-.67,7.55,7.55,0,0,1,.19-.79c0-.12.08-.25.12-.37a.16.16,0,0,1,0-.06.89.89,0,0,1,.08-.17,5.63,5.63,0,0,1,.38-.68l.11-.16,0,0,.26-.3c.14-.15.3-.3.46-.44-.26.85-.49,1.71-.68,2.57a1,1,0,1,0,1.84.51,30.82,30.82,0,0,1,1.43-4.71.92.92,0,0,0-.24-.93A1,1,0,0,0,660.64,938Z"/><path fill="#86a226" d="M665,941.09a1,1,0,0,0-1.31.35,16.6,16.6,0,0,0-1.07,2.35,1,1,0,0,0,.67,1.18,1,1,0,0,0,.74-.1,1,1,0,0,0,.43-.57c.08-.21.16-.41.25-.62.19-.44.4-.86.63-1.28a1,1,0,0,0-.34-1.31Z"/><path fill="#86a226" d="M645.94,941.12a1,1,0,0,0-.57-.44,1,1,0,0,0-.73.09,1,1,0,0,0-.44.57,1,1,0,0,0,.1.74,6.52,6.52,0,0,1,1.21,2.59,1,1,0,1,0,1.84-.5A8,8,0,0,0,645.94,941.12Z"/><path fill="#86a226" d="M124.64,822.2a1,1,0,0,0-1.08.43,1,1,0,0,0,.15,1.16c1.88,1.83,2.32,4.54,2.59,7a1,1,0,0,0,1,1,1,1,0,0,0,1-1,19,19,0,0,0-1.31-5.69,7.18,7.18,0,0,1,3.3,5.49,1,1,0,0,0,1,1,1,1,0,0,0,1-1A9.21,9.21,0,0,0,124.64,822.2Z"/><path fill="#86a226" d="M138,825a6.7,6.7,0,0,0-4.93,5.33,1,1,0,0,0,.67,1.17,1,1,0,0,0,1.17-.67A5.62,5.62,0,0,1,135,830c0-.13.08-.25.13-.37l0-.07.07-.16a7.51,7.51,0,0,1,.39-.68l.11-.16,0,0,.25-.3.47-.44c-.26.85-.49,1.71-.68,2.57a1,1,0,0,0,.66,1.18,1,1,0,0,0,1.18-.67,30.82,30.82,0,0,1,1.43-4.71.94.94,0,0,0-.24-.93A1,1,0,0,0,138,825Z"/><path fill="#86a226" d="M142.28,828a1,1,0,0,0-1.3.35,15.55,15.55,0,0,0-1.07,2.35,1,1,0,0,0,.1.74.94.94,0,0,0,.57.44,1,1,0,0,0,.73-.1,1,1,0,0,0,.44-.57l.24-.62a11.75,11.75,0,0,1,.64-1.28,1,1,0,0,0,.09-.74A1,1,0,0,0,142.28,828Z"/><path fill="#86a226" d="M123.25,828a1,1,0,0,0-.57-.44.93.93,0,0,0-.73.09,1,1,0,0,0-.44.57.91.91,0,0,0,.09.74,7.06,7.06,0,0,1,.86,1.48,7.19,7.19,0,0,1,.36,1.11,1,1,0,0,0,1.84-.5A8.26,8.26,0,0,0,123.25,828Z"/><path fill="#86a226" d="M597.86,851.63a1,1,0,0,0-1.08.44,1,1,0,0,0,.15,1.16c1.88,1.83,2.32,4.54,2.59,7a1,1,0,0,0,1,1,1,1,0,0,0,1-1,19,19,0,0,0-1.31-5.69,7.16,7.16,0,0,1,3.3,5.49,1,1,0,0,0,1,1,1,1,0,0,0,1-1A9.21,9.21,0,0,0,597.86,851.63Z"/><path fill="#86a226" d="M611.16,854.4a6.69,6.69,0,0,0-4.92,5.32,1,1,0,1,0,1.84.51,5.32,5.32,0,0,1,.18-.79c0-.13.08-.25.13-.37a.25.25,0,0,0,0-.07s.05-.11.08-.17a4.5,4.5,0,0,1,.39-.67A.91.91,0,0,1,609,858l0,0,.26-.3c.15-.16.31-.3.47-.44-.27.85-.5,1.7-.69,2.57a1,1,0,0,0,1.84.51,32.52,32.52,0,0,1,1.44-4.72.93.93,0,0,0-.25-.92A1,1,0,0,0,611.16,854.4Z"/><path fill="#86a226" d="M615.5,857.45a1,1,0,0,0-1.31.34,16.07,16.07,0,0,0-1.06,2.36,1,1,0,0,0,.09.74,1,1,0,0,0,.57.43,1,1,0,0,0,.74-.09,1.08,1.08,0,0,0,.44-.57c.07-.21.16-.42.24-.62a13.82,13.82,0,0,1,.63-1.28,1,1,0,0,0,.1-.74A1,1,0,0,0,615.5,857.45Z"/><path fill="#86a226" d="M596.47,857.47a1.14,1.14,0,0,0-.57-.44,1,1,0,0,0-1.18.67,1,1,0,0,0,.1.74,7.74,7.74,0,0,1,.86,1.47A9.12,9.12,0,0,1,596,861a1,1,0,0,0,1.17.67,1,1,0,0,0,.67-1.18A8.41,8.41,0,0,0,596.47,857.47Z"/><path fill="#ffb403" d="M272.42,135.55c3.62-1.73,14.23-3.35,17.84-5.08-4.07-.64-15.05-1.92-18.83-3.56l11.12-4.45c-4-.17-8-1.92-11.93-3.41a22.35,22.35,0,0,1,6.86-5.75c-2.82-.32-5-.44-7.83-.76a108,108,0,0,1,11.17-15.68c-5.1,2.54-18.81,5.83-18.81,5.83s4.14-6.33,5.69-7.29h-8.41l4.85-7.16c-2.76.3-8.57.43-8.57.43l10.28-15.81L248,81.92s.93-7.22,2.69-10.37l-10.17,7.73L241.49,66c-3.66,3.73-8.12,10.28-12.53,13.08.24-1.8.85-6.85,1.08-8.65L224.09,74q-1.84-8.36-3.7-16.7c-1.5,4.78-6.82,17.26-6.82,17.26s-2.13-6.4-3.24-7.64q-1.35,2.15-2.72,4.29l-7.71-10.4c-.26,4.71-.25,17.64-.25,17.64l-6.06-7.32s-.62,3.7-1.72,5.32c-2.89-2.93-8.18-6.22-11.08-9.16-1.16,5.81.08,12-1.08,17.8l-5.44-3.08,0,9c-4.29-1.2-15.41-2.75-15.41-2.75s4.42,11,4.89,18.08c-3.44-.14-8.56-.71-12-.85,3,3.23,11.15,13.52,11.15,13.52l-21-1.39,16,13.22s-6.28,4.28-9.18,4.31l8.5,3.82-15.29,8.21s12.48-1.67,19.53-1.15c-3.61,4.25-12.35,10.8-14.92,13.6,3.44-.14,21.37-2.44,21.37-2.44L159,175.51s11-1.24,15.28-2.43l0,9,5.44-3.08c1.16,5.81-.08,12,1.08,17.79,2.9-2.93,12.18-12.47,12.18-12.47l-.23,9.37s3.34-3.11,3.8-4.08a38.26,38.26,0,0,1,3.36,13.66l7.71-10.4,2.72,4.3,3.34-3.74a46.55,46.55,0,0,1,6.72,13.35q1.86-8.34,3.7-16.69l5.95,3.63c-.23-1.8-.4-9.93-.4-9.93s8.19,10.64,11.85,14.36l-.94-13.31,10.17,7.74A21.26,21.26,0,0,1,248,182.2c5.48,3.82,17.82,9.05,17.82,9.05s-6.86-10.54-10.28-15.81c2.76.3,5.81.13,8.57.44l-4.85-7.17h8.41c-1.55-1-5.58-9.94-5.58-9.94l18.7,8.49s-7.92-10.14-11.17-15.68c2.83-.32,5-.45,7.83-.76a22.29,22.29,0,0,1-7.45-6.54c6.36-2.61,20.23-2.82,20.23-2.82S278.23,137.91,272.42,135.55Z"/><circle cx="216.06" cy="132.06" r="49.69" fill="#ff9500"/><circle cx="216.06" cy="132.06" r="46.62" fill="#fdd51a"/><path fill="#fff" d="M87.94,161a37.73,37.73,0,0,1,7.1.67A51.29,51.29,0,0,1,195.66,143c9.21-3.19,39.8-12.14,40.43,9.29,0,0,20.58-3.92,19.84,15.92,0,0,21.57-1.71,29.41,19.12l66.89,13L52.32,212.08V212h0v0a38,38,0,0,1,35.64-51Z"/><path fill="#d8ede6" d="M85.55,161a37.74,37.74,0,0,1,9.49.59,51.3,51.3,0,0,1,42.59-56.33s-42.48,28.94-23.35,58.93h-.09c-22.15.83-22.12,33.71,0,34.54L256,204.09h0l-203.63,8V212h0v0A38,38,0,0,1,85.55,161Z"/><path fill="#fff" d="M1213.49,113.68a37.71,37.71,0,0,0-7.09.67,51.29,51.29,0,0,0-100.62-18.62c-9.22-3.19-39.81-12.14-40.43,9.29,0,0-20.59-3.92-19.85,15.93,0,0-21.56-1.72-29.4,19.11l-66.9,13,299.92,11.76v-.07h0a38,38,0,0,0-35.64-51Z"/><path fill="#d8ede6" d="M1215.89,113.76a38.22,38.22,0,0,0-9.49.59A51.3,51.3,0,0,0,1163.8,58S1206.28,87,1187.16,117h.08c22.16.82,22.12,33.7,0,34.54l-141.73,5.32h0l203.64,8v-.07h0a38,38,0,0,0-33.24-51Z"/><path fill="#0a635e" d="M1141.16,345.21c-3.4-3.34-9-4.65-13.1-1.94a14.77,14.77,0,0,1,10.64,4.94l-2.16,2.42,8.13.78-1.81-2.81a14.72,14.72,0,0,1,11.53-2.79C1150.87,342.35,1145.13,342.57,1141.16,345.21Z"/><path fill="#0a635e" d="M90.83,427.06c-3.4-3.34-9-4.65-13.1-1.94a14.75,14.75,0,0,1,10.63,4.94l-2.15,2.42,8.12.78-1.8-2.81a14.76,14.76,0,0,1,11.53-2.8C100.53,424.2,94.8,424.42,90.83,427.06Z"/><path fill="#0a635e" d="M973,58.52c-3.4-3.34-9-4.65-13.1-1.94a14.75,14.75,0,0,1,10.63,4.94l-2.15,2.42,8.12.78-1.8-2.81a14.76,14.76,0,0,1,11.53-2.8C982.72,55.66,977,55.88,973,58.52Z"/><path fill="#0a635e" d="M681.53,478.59c-4-2.63-9.71-2.85-13.23.6a14.76,14.76,0,0,1,11.53,2.8L678,484.8l8.12-.78L684,481.6a14.75,14.75,0,0,1,10.63-4.94C690.51,474,684.93,475.26,681.53,478.59Z"/><path fill="#0a635e" d="M352.37,79.58c-4-2.64-9.71-2.86-13.23.6A14.72,14.72,0,0,1,350.67,83l-1.81,2.81L357,85l-2.16-2.42a14.77,14.77,0,0,1,10.64-4.94C361.35,74.93,355.77,76.24,352.37,79.58Z"/><path fill="#0a635e" d="M1279.55,210.69c-4.11-2.71-9.7-1.41-13.09,1.93-4-2.63-9.71-2.85-13.24.6a14.76,14.76,0,0,1,11.53,2.8l-1.8,2.8,8.13-.78-2.16-2.41A14.71,14.71,0,0,1,1279.55,210.69Z"/></g></svg>