<svg xmlns="http://www.w3.org/2000/svg" viewBox="0 0 1364 960"><path fill="#a0eff7" d="M1270.17,698.05c-15.22-73.83-59.05-138.64-120.9-181.73-15.46-10.77-30.29-22.24-41.73-37.39-31.81-42.19-27.31-100.52-34-152.68-12.31-106-95.92-199.56-199.58-224.54-100-24.13-212.64,17-273.64,99.82-27.75,37.72-50,86.43-95,99.33-42.8,12.26-85.61-14.12-129.4-24.15-25.83-5.92-53.06-3.33-76.7,8.64-74.71,37.83-85.72,148-110.63,226.12-18.24,50.95-58.09,69.31-79.32,119.25C86.75,680.3,82.47,758.35,98.38,814.61H1267.19a281.25,281.25,0,0,0,7.25-46.24C1276.9,746,1275.11,722,1270.17,698.05Z"/><ellipse cx="472.77" cy="246.02" fill="#a0eff7" rx="68.74" ry="39.53"/><path fill="#fff" d="M1109,414.9a16.53,16.53,0,0,0-22.32-23.06c-1.51-17.64-18-32.66-35.74-32.48s-33.93,15.53-35.08,33.2a12.71,12.71,0,0,0-21.33,13.56c.56.14-1.24.14-.68.28a35.16,35.16,0,0,0-33.3,13.15c-10.58-.13-21.61,2.63-31.8,5.46l200,0C1127.65,416.33,1116.6,410.69,1109,414.9Z"/><path fill="#fff" d="M545.51,428.66c.56-.13-1.24-.14-.68-.28a12.71,12.71,0,0,0-21.33-13.56c-1.15-17.67-17.38-33-35.08-33.2s-34.23,14.85-35.74,32.49a16.52,16.52,0,0,0-22.32,23.05c-7.62-4.2-18.67,1.44-19.73,10.07l200,0c-10.19-2.84-21.22-5.6-31.8-5.47A35.16,35.16,0,0,0,545.51,428.66Z"/><path fill="#fff" d="M868.34,219.56A16.53,16.53,0,0,0,846,196.51c-1.51-17.64-18-32.67-35.74-32.49s-33.93,15.53-35.08,33.2a12.71,12.71,0,0,0-21.33,13.56c.56.14-1.24.15-.68.28a35.14,35.14,0,0,0-33.3,13.16c-10.58-.14-21.6,2.63-31.8,5.46l200-.05C887,221,876,215.36,868.34,219.56Z"/><path fill="#fff" d="M1267.19,814.61a281.25,281.25,0,0,0,7.25-46.24c2.46-22.37.67-46.36-4.27-70.32a285.93,285.93,0,0,0-10.92-38.83,47,47,0,0,0-49.77-3.91,54,54,0,0,0-94.65-12.76,47.1,47.1,0,0,0-29.06.51,52.3,52.3,0,0,0-68.22-30.67,88.15,88.15,0,0,0-133.32,11,54,54,0,0,0-71.07,36.26,48,48,0,0,0-50.81,18.59A48.06,48.06,0,0,0,718,683.67a55.79,55.79,0,0,0-83.25-12A69.7,69.7,0,0,0,543,679.85a56.13,56.13,0,0,0-91,33.79,48,48,0,0,0-48.05-.09,48.07,48.07,0,0,0-58.2-32,69.74,69.74,0,0,0-111.88-38.81,48.07,48.07,0,0,0-81.25-2.54,47.77,47.77,0,0,0-25.17,2.37,47.85,47.85,0,0,0-11.55-25.36c-2.34,4.27-4.56,8.77-6.6,13.56C86.75,680.3,82.47,758.35,98.38,814.61Z"/><path fill="#aeca06" d="M831.49,717c3.93-27.93,19.12-64.67,26.76-65,7.65.32,23.37,37,26.77,65,4,32.81-26.77,32.81-26.77,32.81S826.87,749.82,831.49,717Z"/><path fill="#76a12b" d="M885,717c-3.4-28-19.12-64.67-26.77-65a4.67,4.67,0,0,0-2.66,1.28c7.44,12.69,15.8,36.43,18.17,56,4,32.82-26.76,32.82-26.76,32.82A34.72,34.72,0,0,1,836.28,740c7.91,9.84,22,9.84,22,9.84S889,749.82,885,717Z"/><polygon fill="#3d281c" points="849.89 706.74 850.2 706.55 857.28 717.38 857.74 697.39 858.77 697.39 858.99 706.98 862.58 702.84 862.87 703.04 859.05 709.62 859.41 725.43 868.41 713.85 868.7 714.06 859.48 728.17 860.64 779.13 855.87 779.13 857.21 720.47 849.89 706.74"/><polygon fill="#54cdd9" points="899.85 777.04 1019.77 776.98 1019.77 428.1 899.85 395.83 899.85 777.04"/><rect width="64.77" height="61.46" x="911.53" y="715.57" fill="#02345a"/><polygon fill="#54cdd9" points="979.41 727.51 965.95 727.51 965.95 713.22 964.65 713.22 964.65 727.51 944.57 727.51 944.57 713.22 943.27 713.22 943.27 727.51 923.41 727.51 923.41 713.22 922.11 713.22 922.11 727.51 909.43 727.51 909.43 728.6 922.11 728.6 922.11 777.04 923.41 777.04 923.41 728.6 943.27 728.6 943.27 777.04 944.57 777.04 944.57 728.6 964.65 728.6 964.65 777.04 965.95 777.04 965.95 728.6 979.41 728.6 979.41 727.51"/><polygon fill="#2ca3b0" points="984.26 418.55 1019.77 428.1 1019.77 777.04 984.26 777.04 984.26 418.55"/><rect width="9" height="19.11" x="912.53" y="444.03" fill="#a0eff7"/><rect width="9" height="19.11" x="935.41" y="444.03" fill="#a0eff7"/><rect width="9" height="19.11" x="912.53" y="480" fill="#a0eff7"/><rect width="9" height="19.11" x="935.41" y="480" fill="#a0eff7"/><rect width="9" height="19.11" x="912.53" y="515.97" fill="#a0eff7"/><rect width="9" height="19.11" x="935.41" y="515.97" fill="#a0eff7"/><rect width="9" height="19.11" x="912.53" y="551.93" fill="#a0eff7"/><rect width="9" height="19.11" x="935.41" y="551.93" fill="#a0eff7"/><rect width="9" height="19.11" x="912.53" y="587.9" fill="#a0eff7"/><rect width="9" height="19.11" x="935.41" y="587.9" fill="#a0eff7"/><rect width="9" height="19.11" x="912.53" y="623.87" fill="#a0eff7"/><rect width="9" height="19.11" x="935.41" y="623.87" fill="#a0eff7"/><rect width="9" height="19.11" x="912.53" y="659.83" fill="#a0eff7"/><rect width="9" height="19.11" x="935.41" y="659.83" fill="#a0eff7"/><rect width="9" height="19.11" x="958.3" y="480" fill="#a0eff7"/><rect width="9" height="19.11" x="958.3" y="515.97" fill="#a0eff7"/><rect width="9" height="19.11" x="958.3" y="551.93" fill="#a0eff7"/><rect width="9" height="19.11" x="958.3" y="587.9" fill="#a0eff7"/><rect width="9" height="19.11" x="958.3" y="623.87" fill="#a0eff7"/><rect width="9" height="19.11" x="958.3" y="659.83" fill="#a0eff7"/><rect width="6.5" height="16.07" x="992.39" y="475.57" fill="#88e5ea"/><rect width="6.5" height="16.07" x="992.39" y="505.81" fill="#88e5ea"/><rect width="6.5" height="16.07" x="1008.92" y="505.81" fill="#88e5ea"/><rect width="6.5" height="16.07" x="992.39" y="536.06" fill="#88e5ea"/><rect width="6.5" height="16.07" x="1008.92" y="536.06" fill="#88e5ea"/><rect width="6.5" height="16.07" x="992.39" y="566.3" fill="#88e5ea"/><rect width="6.5" height="16.07" x="1008.92" y="566.3" fill="#88e5ea"/><rect width="6.5" height="16.07" x="992.39" y="596.54" fill="#88e5ea"/><rect width="6.5" height="16.07" x="1008.92" y="596.54" fill="#88e5ea"/><rect width="6.5" height="16.07" x="992.39" y="626.78" fill="#88e5ea"/><rect width="6.5" height="16.07" x="1008.92" y="626.78" fill="#88e5ea"/><rect width="6.5" height="16.07" x="992.39" y="657.03" fill="#88e5ea"/><rect width="6.5" height="16.07" x="1008.92" y="657.03" fill="#88e5ea"/><rect width="125.17" height="4.94" x="895.47" y="695.6" fill="#012c4f"/><path fill="#76a12b" d="M566.66,776.85s-14.67,1.26-18.75.52c-4.08.74-18.76-.52-18.76-.52l7.37-48.14-3,1.54,7.56-24.56-2.73,2.83,3.68-18.29-1.88,1.5,7.57-28.61v-.19c0-.64,0-1,0-1l.15.57.15-.57s0,.42,0,1.18l7.56,28.61-1.87-1.5,3.67,18.29-3.67-2.95,7.15,25.78-3.17-2.25Z"/><path fill="#8eb31b" d="M547.91,662.51V777.37c-4.08.74-18.76-.52-18.76-.52l7.37-48.14-3,1.54,7.56-24.56-2.73,2.83,3.68-18.29-1.88,1.5,7.57-28.61v-.19Z"/><path fill="#76a12b" d="M540.62,777.44s-10.09.87-12.89.36c-2.8.51-12.89-.36-12.89-.36l5.07-33.08-2,1,5.2-16.87-1.88,1.94,2.53-12.57-1.29,1,5.2-19.67v-.13c0-.43,0-.67,0-.67l.1.39.1-.39s0,.28,0,.8l5.2,19.67-1.29-1,2.53,12.57-2.53-2,4.92,17.72-2.18-1.55Z"/><path fill="#8eb31b" d="M527.73,698.86V777.8c-2.8.51-12.89-.36-12.89-.36l5.07-33.08-2,1,5.2-16.87-1.88,1.94,2.53-12.57-1.29,1,5.2-19.67v-.13Z"/><path fill="#76a12b" d="M1182.25,776.85s14.68,1.26,18.76.52c4.08.74,18.75-.52,18.75-.52l-7.37-48.14,3,1.54-7.56-24.56,2.73,2.83-3.68-18.29,1.88,1.5-7.57-28.61v-.19c0-.64,0-1,0-1l-.15.57-.15-.57s0,.42,0,1.18l-7.57,28.61,1.88-1.5-3.68,18.29,3.68-2.95L1188,731.35l3.17-2.25Z"/><path fill="#8eb31b" d="M1201,662.51V777.37c4.08.74,18.75-.52,18.75-.52l-7.37-48.14,3,1.54-7.56-24.56,2.73,2.83-3.68-18.29,1.88,1.5-7.57-28.61v-.19Z"/><path fill="#76a12b" d="M1208.29,777.44s10.09.87,12.89.36c2.81.51,12.89-.36,12.89-.36L1229,744.36l2,1-5.19-16.87,1.87,1.94-2.52-12.57,1.29,1-5.21-19.67v-.8l-.11.39-.1-.39v.8l-5.21,19.67,1.29-1-2.52,12.57,2.52-2-4.91,17.72,2.18-1.55Z"/><path fill="#8eb31b" d="M1221.18,698.86V777.8c2.81.51,12.89-.36,12.89-.36L1229,744.36l2,1-5.19-16.87,1.87,1.94-2.52-12.57,1.29,1-5.21-19.67v-.13Z"/><path fill="#76a12b" d="M172.68,791.79s-14.67,1.27-18.75.53c-4.08.74-18.76-.53-18.76-.53l7.38-48.13-3,1.53,7.56-24.55-2.73,2.83,3.68-18.3-1.88,1.51,7.57-28.62v-.18c0-.64,0-1,0-1l.15.57.15-.57s0,.41,0,1.17l7.56,28.62-1.87-1.51,3.67,18.3-3.67-3,7.15,25.78L163.76,744Z"/><path fill="#8eb31b" d="M153.93,677.46V792.32c-4.08.74-18.76-.53-18.76-.53l7.38-48.13-3,1.53,7.56-24.55-2.73,2.83,3.68-18.3-1.88,1.51,7.57-28.62v-.18Z"/><path fill="#76a12b" d="M146.64,792.39s-10.08.87-12.89.36c-2.8.51-12.89-.36-12.89-.36l5.07-33.09-2.05,1.06,5.2-16.88-1.88,1.95,2.53-12.58-1.29,1,5.2-19.67v-.13c0-.44,0-.68,0-.68l.1.39.1-.39s0,.29,0,.81l5.2,19.67-1.29-1,2.53,12.58-2.53-2,4.92,17.72-2.18-1.55Z"/><path fill="#8eb31b" d="M133.75,713.8v79c-2.8.51-12.89-.36-12.89-.36l5.07-33.09-2.05,1.06,5.2-16.88-1.88,1.95,2.53-12.58-1.29,1,5.2-19.67v-.13Z"/><polygon fill="#02345a" points="1126.85 368.08 1049.96 365 1049.96 330.02 1126.85 320.4 1126.85 368.08"/><polygon fill="#012c4f" points="1151.87 362.46 1126.85 361.43 1126.85 320.4 1151.87 330 1151.87 362.46"/><polygon fill="#f54d42" points="1145.41 330.71 1145.41 804.95 1017.31 811.32 1017.31 346.64 1145.41 330.71"/><polygon fill="#ff9292" points="1038.92 374.13 1038.92 721.15 1034.59 721.29 1034.59 374.7 1038.92 374.13"/><polygon fill="#ff9292" points="1054.87 372.06 1054.87 720.64 1050.5 720.78 1050.5 372.63 1054.87 372.06"/><polygon fill="#ff9292" points="1070.98 369.96 1070.98 720.13 1066.58 720.27 1066.58 370.54 1070.98 369.96"/><polygon fill="#ff9292" points="1087.26 367.83 1087.26 719.61 1082.79 719.75 1082.79 368.41 1087.26 367.83"/><polygon fill="#ff9292" points="1103.69 365.68 1103.69 719.09 1099.19 719.23 1099.19 366.27 1103.69 365.68"/><polygon fill="#ff9292" points="1120.29 363.52 1120.29 718.56 1115.75 718.71 1115.75 364.12 1120.29 363.52"/><polygon fill="#b3261e" points="1190.27 342.56 1190.27 803.52 1145.41 804.95 1145.41 330.71 1190.27 342.56"/><path fill="#aeca06" d="M798.11,356.3H762.44a17.84,17.84,0,1,1,35.67,0Z"/><path fill="#aeca06" d="M768.35,347.7a17.74,17.74,0,0,1-2.21,8.6H734.87a17.74,17.74,0,0,1-2.21-8.6,16.71,16.71,0,0,1,.16-2.36,17.84,17.84,0,0,1,35-1.83A17.61,17.61,0,0,1,768.35,347.7Z"/><path fill="#76a12b" d="M743.8,356.3h54.31a17.82,17.82,0,0,0-11.67-16.73c.59.53,7.64,7.07,2.42,11.14-5.44,4.25-45,5.3-43.41-3.86s7.32-15.5,13.08-15.07a17.84,17.84,0,0,0-25.71,13.56,15.06,15.06,0,0,0-2.44-.21A13.64,13.64,0,0,0,717,356.3H743.8Z"/><path fill="#aeca06" d="M743.8,356.3H717a13.64,13.64,0,0,1,13.42-11.17,15.06,15.06,0,0,1,2.44.21A13.67,13.67,0,0,1,743.8,356.3Z"/><rect width="222.58" height="418.55" x="596.78" y="359.92" fill="#ffa218"/><rect width="58.71" height="64.55" x="748.37" y="713.93" fill="#02345a"/><polygon fill="#ffa218" points="816.6 723.42 802.05 723.42 802.05 707.97 800.64 707.97 800.64 723.42 778.93 723.42 778.93 707.97 777.52 707.97 777.52 723.42 756.06 723.42 756.06 707.97 754.65 707.97 754.65 723.42 740.94 723.42 740.94 724.6 754.65 724.6 754.65 776.98 756.06 776.98 756.06 724.6 777.52 724.6 777.52 776.98 778.93 776.98 778.93 724.6 800.64 724.6 800.64 776.98 802.05 776.98 802.05 724.6 816.6 724.6 816.6 723.42"/><rect width="50.2" height="418.55" x="596.78" y="359.92" fill="#ff8e00" transform="rotate(-180 621.88 569.2)"/><rect width="162.1" height="373.79" x="577.42" y="404.68" fill="#54cdd9"/><rect width="69.56" height="373.79" x="577.42" y="404.68" fill="#2ca3b0"/><rect width="174.07" height="8.68" x="570.44" y="401.63" fill="#02345a" transform="rotate(-180 657.475 405.97)"/><rect width="240.08" height="8.84" x="588.03" y="353.95" fill="#02345a"/><rect width="36.19" height="4.71" x="680.63" y="344.48" fill="#02345a" transform="rotate(-180 698.725 346.83)"/><rect width="33.2" height="14.24" x="682.14" y="346.81" fill="#02345a" transform="rotate(-180 698.745 353.93)"/><rect width="69.56" height="4.13" x="577.42" y="434.45" fill="#54cdd9"/><rect width="69.56" height="4.13" x="577.42" y="465.04" fill="#54cdd9"/><rect width="69.56" height="4.13" x="577.42" y="495.64" fill="#54cdd9"/><rect width="69.56" height="4.13" x="577.42" y="526.23" fill="#54cdd9"/><rect width="69.56" height="4.13" x="577.42" y="556.83" fill="#54cdd9"/><rect width="69.56" height="4.13" x="577.42" y="587.42" fill="#54cdd9"/><rect width="69.56" height="4.13" x="577.42" y="618.02" fill="#54cdd9"/><rect width="69.56" height="4.13" x="577.42" y="648.62" fill="#54cdd9"/><rect width="69.56" height="4.13" x="577.42" y="679.21" fill="#54cdd9"/><rect width="69.56" height="4.13" x="577.42" y="709.81" fill="#54cdd9"/><rect width="69.56" height="4.13" x="577.42" y="740.4" fill="#54cdd9"/><rect width="21.89" height="46.18" x="703.96" y="442.8" fill="#012c4f"/><rect width="21.89" height="46.18" x="703.96" y="516.18" fill="#012c4f"/><rect width="21.89" height="46.18" x="703.96" y="589.56" fill="#012c4f"/><rect width="31.3" height="2.99" x="701.31" y="467.38" fill="#54cdd9"/><rect width="31.3" height="2.99" x="701.31" y="545.43" fill="#54cdd9"/><rect width="31.3" height="2.99" x="701.31" y="623.47" fill="#54cdd9"/><rect width="21.89" height="46.18" x="703.96" y="661.67" fill="#012c4f"/><rect width="31.3" height="2.99" x="701.31" y="695.58" fill="#54cdd9"/><rect width="21.89" height="46.18" x="661.12" y="442.8" fill="#012c4f"/><rect width="21.89" height="46.18" x="661.12" y="516.18" fill="#012c4f"/><rect width="21.89" height="46.18" x="661.12" y="589.56" fill="#012c4f"/><rect width="31.3" height="2.99" x="658.47" y="467.38" fill="#54cdd9"/><rect width="31.3" height="2.99" x="658.47" y="545.43" fill="#54cdd9"/><rect width="31.3" height="2.99" x="658.47" y="623.47" fill="#54cdd9"/><rect width="21.89" height="46.18" x="661.12" y="661.67" fill="#012c4f"/><rect width="31.3" height="2.99" x="658.47" y="695.58" fill="#54cdd9"/><rect width="11.72" height="18.24" x="783.74" y="383.06" fill="#ffeb66" transform="rotate(-180 789.6 392.185)"/><rect width="11.72" height="18.24" x="759.98" y="383.06" fill="#ffeb66" transform="rotate(-180 765.845 392.185)"/><rect width="11.72" height="18.24" x="783.74" y="416.14" fill="#ffeb66" transform="rotate(-180 789.6 425.265)"/><rect width="11.72" height="18.24" x="759.98" y="416.14" fill="#ffeb66" transform="rotate(-180 765.845 425.265)"/><rect width="11.72" height="18.24" x="783.74" y="467.71" fill="#ffeb66" transform="rotate(-180 789.6 476.825)"/><rect width="11.72" height="18.24" x="759.98" y="467.71" fill="#ffeb66" transform="rotate(-180 765.845 476.825)"/><rect width="11.72" height="18.24" x="783.74" y="500.78" fill="#ffeb66" transform="rotate(-180 789.6 509.905)"/><rect width="11.72" height="18.24" x="759.98" y="500.78" fill="#ffeb66" transform="rotate(-180 765.845 509.905)"/><rect width="11.72" height="18.24" x="783.74" y="552.35" fill="#ffeb66" transform="rotate(-180 789.6 561.47)"/><rect width="11.72" height="18.24" x="759.98" y="552.35" fill="#ffeb66" transform="rotate(-180 765.845 561.47)"/><rect width="11.72" height="18.24" x="783.74" y="585.43" fill="#ffeb66" transform="rotate(-180 789.6 594.545)"/><rect width="11.72" height="18.24" x="759.98" y="585.43" fill="#ffeb66" transform="rotate(-180 765.845 594.545)"/><rect width="11.72" height="18.24" x="783.74" y="636.99" fill="#ffeb66" transform="rotate(-180 789.6 646.11)"/><rect width="11.72" height="18.24" x="759.98" y="636.99" fill="#ffeb66" transform="rotate(-180 765.845 646.11)"/><rect width="11.72" height="18.24" x="783.74" y="670.07" fill="#ffeb66" transform="rotate(-180 789.6 679.19)"/><rect width="11.72" height="18.24" x="759.98" y="670.07" fill="#ffeb66" transform="rotate(-180 765.845 679.19)"/><path fill="#aeca06" d="M581.29,401.62h25.49a12.75,12.75,0,0,0-25.49,0Z"/><path fill="#aeca06" d="M602.55,395.49a12.67,12.67,0,0,0,1.58,6.13h22.34a12.67,12.67,0,0,0,1.57-6.13,11.8,11.8,0,0,0-.11-1.69,12.74,12.74,0,0,0-25-1.31A12.39,12.39,0,0,0,602.55,395.49Z"/><path fill="#76a12b" d="M620.09,401.62h-38.8a12.75,12.75,0,0,1,8.34-11.95c-.42.38-5.45,5.06-1.73,8,3.89,3,32.17,3.78,31-2.76s-5.23-11.08-9.35-10.76a12.74,12.74,0,0,1,18.37,9.68,10.05,10.05,0,0,1,1.74-.15,9.74,9.74,0,0,1,9.59,8H620.09Z"/><path fill="#aeca06" d="M620.09,401.62h19.17a9.74,9.74,0,0,0-9.59-8,10.05,10.05,0,0,0-1.74.15A9.77,9.77,0,0,0,620.09,401.62Z"/><rect width="94.95" height="564.69" x="334.62" y="213.78" fill="#02345a"/><rect width="3.91" height="43.92" x="479.12" y="166.78" fill="#02345a"/><rect width="10.41" height="43.92" x="461.81" y="185.64" fill="#02345a"/><rect width="5.21" height="43.92" x="405.09" y="194" fill="#02345a"/><rect width="2.75" height="43.92" x="306.42" y="166.78" fill="#02345a"/><rect width="2.75" height="43.92" x="312.04" y="172.03" fill="#02345a"/><rect width="7.33" height="43.92" x="284.99" y="185.64" fill="#02345a"/><rect width="90.09" height="579.65" x="276.56" y="198.82" fill="#ffb52f"/><rect width="90.09" height="2.58" x="276.56" y="217.25" fill="#ff8e00"/><rect width="90.09" height="2.58" x="276.56" y="241.9" fill="#ff8e00"/><rect width="90.09" height="2.58" x="276.56" y="266.55" fill="#ff8e00"/><rect width="90.09" height="2.58" x="276.56" y="291.2" fill="#ff8e00"/><rect width="90.09" height="2.58" x="276.56" y="315.85" fill="#ff8e00"/><rect width="90.09" height="2.58" x="276.56" y="340.5" fill="#ff8e00"/><rect width="90.09" height="2.58" x="276.56" y="365.15" fill="#ff8e00"/><rect width="90.09" height="2.58" x="276.56" y="389.8" fill="#ff8e00"/><rect width="90.09" height="2.58" x="276.56" y="414.45" fill="#ff8e00"/><rect width="90.09" height="2.58" x="276.56" y="439.1" fill="#ff8e00"/><rect width="90.09" height="2.58" x="276.56" y="463.75" fill="#ff8e00"/><rect width="90.09" height="2.58" x="276.56" y="488.4" fill="#ff8e00"/><rect width="90.09" height="2.58" x="276.56" y="513.05" fill="#ff8e00"/><rect width="90.09" height="2.58" x="276.56" y="537.7" fill="#ff8e00"/><rect width="90.09" height="2.58" x="276.56" y="562.35" fill="#ff8e00"/><rect width="90.09" height="2.58" x="276.56" y="587" fill="#ff8e00"/><rect width="90.09" height="2.58" x="276.56" y="611.65" fill="#ff8e00"/><rect width="90.09" height="2.58" x="276.56" y="636.3" fill="#ff8e00"/><rect width="90.09" height="2.58" x="276.56" y="660.95" fill="#ff8e00"/><rect width="90.09" height="2.58" x="276.56" y="685.6" fill="#ff8e00"/><rect width="90.09" height="2.58" x="276.56" y="710.25" fill="#ff8e00"/><rect width="90.09" height="2.58" x="276.56" y="734.9" fill="#ff8e00"/><rect width="114.12" height="579.65" x="388.97" y="198.82" fill="#54cdd9"/><rect width="76.73" height="72.81" x="407.66" y="705.66" fill="#02345a"/><rect width="92.68" height="8.69" x="399.69" y="687.9" fill="#c4fbfe"/><polygon fill="#54cdd9" points="488.06 719.8 472.13 719.8 472.13 702.87 470.58 702.87 470.58 719.8 446.8 719.8 446.8 702.87 445.25 702.87 445.25 719.8 421.73 719.8 421.73 702.87 420.19 702.87 420.19 719.8 405.17 719.8 405.17 721.09 420.19 721.09 420.19 778.48 421.73 778.48 421.73 721.09 445.25 721.09 445.25 778.48 446.8 778.48 446.8 721.09 470.58 721.09 470.58 778.48 472.13 778.48 472.13 721.09 488.06 721.09 488.06 719.8"/><rect width="114.12" height="2.58" x="388.97" y="217.25" fill="#1c7c96"/><rect width="114.12" height="2.58" x="388.97" y="241.9" fill="#1c7c96"/><rect width="114.12" height="2.58" x="388.97" y="266.55" fill="#1c7c96"/><rect width="114.12" height="2.58" x="388.97" y="291.2" fill="#1c7c96"/><rect width="114.12" height="2.58" x="388.97" y="315.85" fill="#1c7c96"/><rect width="114.12" height="2.58" x="388.97" y="340.5" fill="#1c7c96"/><rect width="114.12" height="2.58" x="388.97" y="365.15" fill="#1c7c96"/><rect width="114.12" height="2.58" x="388.97" y="389.8" fill="#1c7c96"/><rect width="114.12" height="2.58" x="388.97" y="414.45" fill="#1c7c96"/><rect width="114.12" height="2.58" x="388.97" y="439.1" fill="#1c7c96"/><rect width="114.12" height="2.58" x="388.97" y="463.75" fill="#1c7c96"/><rect width="114.12" height="2.58" x="388.97" y="488.4" fill="#1c7c96"/><rect width="114.12" height="2.58" x="388.97" y="513.05" fill="#1c7c96"/><rect width="114.12" height="2.58" x="388.97" y="537.7" fill="#1c7c96"/><rect width="114.12" height="2.58" x="388.97" y="562.35" fill="#1c7c96"/><rect width="114.12" height="2.58" x="388.97" y="587" fill="#1c7c96"/><rect width="114.12" height="2.58" x="388.97" y="611.65" fill="#1c7c96"/><rect width="114.12" height="2.58" x="388.97" y="636.3" fill="#1c7c96"/><rect width="114.12" height="2.58" x="388.97" y="660.95" fill="#1c7c96"/><rect width="2.6" height="185.79" x="330.75" y="198.82" fill="#ffeb66"/><rect width="2.6" height="63.28" x="297.2" y="198.82" fill="#ffeb66"/><rect width="139.66" height="400.72" x="172.18" y="377.75" fill="#54cdd9"/><rect width="150.55" height="5.24" x="167.32" y="372.51" fill="#03416b"/><rect width="8.08" height="299.68" x="293.81" y="408.12" fill="#a0eff7" transform="rotate(-180 297.855 557.955)"/><rect width="8.08" height="299.68" x="271.76" y="408.12" fill="#a0eff7" transform="rotate(-180 275.805 557.955)"/><rect width="8.08" height="299.68" x="249.71" y="408.12" fill="#a0eff7" transform="rotate(-180 253.755 557.955)"/><rect width="8.08" height="299.68" x="227.67" y="408.12" fill="#a0eff7" transform="rotate(-180 231.71 557.955)"/><rect width="26.27" height="400.72" x="172.18" y="377.75" fill="#2ca3b0"/><path fill="#aeca06" d="M297.88,372.51H255.45a21.22,21.22,0,1,1,42.43,0Z"/><path fill="#aeca06" d="M262.48,362.29a21.08,21.08,0,0,1-2.63,10.22h-37.2A21.07,21.07,0,0,1,220,362.29a19.85,19.85,0,0,1,.19-2.8,21.22,21.22,0,0,1,41.65-2.18A20.52,20.52,0,0,1,262.48,362.29Z"/><path fill="#76a12b" d="M233.28,372.51h64.6A21.21,21.21,0,0,0,284,352.62c.7.63,9.08,8.41,2.88,13.25-6.47,5.05-53.57,6.3-51.64-4.59s8.7-18.44,15.56-17.92a21.2,21.2,0,0,0-30.58,16.13,16.25,16.25,0,0,0-18.87,13h31.93Z"/><path fill="#aeca06" d="M233.28,372.51H201.35a16.24,16.24,0,0,1,31.93,0Z"/><path fill="#8eb31b" d="M1280.56,807.72a91.76,91.76,0,0,0-71-33.67H154.47a91.76,91.76,0,0,0-71,33.67H1280.56Z"/><path fill="#447086" d="M471.9,856.29H198.5a4.43,4.43,0,1,0,0,8.85H471.9a4.43,4.43,0,1,0,0-8.85Z"/><path fill="#447086" d="M566.46,856.29H515.05a4.43,4.43,0,1,0,0,8.85h51.41a4.43,4.43,0,0,0,0-8.85Z"/><path fill="#447086" d="M1081.7,856.29h-51.41a4.43,4.43,0,0,0,0,8.85h51.41a4.43,4.43,0,1,0,0-8.85Z"/><rect width="1235.53" height="35.16" x="64.23" y="797.03" fill="#447086" rx="17.58"/><polygon fill="#012c4f" points="1258.36 596.95 1256.36 596.95 1254.64 755.08 1260.08 755.08 1258.36 596.95"/><path fill="#012c4f" d="M1257.36,750.26c-8.2,0-9.63,8.25-9.63,8.25V797H1267V758.51S1265.55,750.26,1257.36,750.26Z"/><path fill="#012c4f" d="M1257.39,643.84h-.06a2.69,2.69,0,0,1-2.69-2.7h0a2.69,2.69,0,0,1,2.69-2.7h.06a2.69,2.69,0,0,1,2.69,2.7h0A2.69,2.69,0,0,1,1257.39,643.84Z"/><path fill="#ffc40f" d="M1271.58,588.56a14.22,14.22,0,1,1-14.22-14.23A14.22,14.22,0,0,1,1271.58,588.56Z"/><path fill="#eb9e05" d="M1271.2,585.3a13.12,13.12,0,0,1-26-2.57,14.44,14.44,0,0,1,.12-1.76,14.22,14.22,0,1,0,25.87,4.33Z"/><polygon fill="#012c4f" points="1249.23 600.25 1252.62 608.82 1262.1 608.82 1265.49 600.25 1249.23 600.25"/><ellipse cx="1260.99" cy="580.45" fill="#ffeb66" rx="4.13" ry="7.74" transform="rotate(-60 1260.986 580.448)"/><polygon fill="#012c4f" points="107.64 596.95 105.64 596.95 103.92 755.08 109.36 755.08 107.64 596.95"/><path fill="#012c4f" d="M106.64,750.26c-8.19,0-9.63,8.25-9.63,8.25V797h19.26V758.51S114.83,750.26,106.64,750.26Z"/><path fill="#012c4f" d="M106.67,643.84h-.06a2.69,2.69,0,0,1-2.69-2.7h0a2.69,2.69,0,0,1,2.69-2.7h.06a2.69,2.69,0,0,1,2.69,2.7h0A2.69,2.69,0,0,1,106.67,643.84Z"/><path fill="#ffc40f" d="M120.86,588.56a14.22,14.22,0,1,1-14.22-14.23A14.22,14.22,0,0,1,120.86,588.56Z"/><path fill="#eb9e05" d="M120.48,585.3a13.12,13.12,0,0,1-26-2.57,12.68,12.68,0,0,1,.13-1.76,14.22,14.22,0,1,0,25.86,4.33Z"/><polygon fill="#012c4f" points="98.51 600.25 101.9 608.82 111.38 608.82 114.77 600.25 98.51 600.25"/><ellipse cx="110.27" cy="580.45" fill="#ffeb66" rx="4.13" ry="7.74" transform="rotate(-60 110.268 580.45)"/><path fill="#2ca3b0" d="M842.08,312.66s4.9,11.12,13.2,15.8c.57-1,4.21.34,4,1.48,9.34,1.91,20.33-3.29,20.33-3.29-6.61,7.91-20.92,6.72-20.92,6.72L862,336a11.28,11.28,0,0,1-6.75.08h0c-.31-.1-.61-.21-.91-.34h0a11.29,11.29,0,0,1-5-4.49l4.22.2S841.89,323,842.08,312.66Z"/><path fill="#2ca3b0" d="M529.05,340.72s7.09,2.9,12.9,1.38c-.19-.71,2-1.68,2.44-1.06,5.07-3.22,7.78-10.38,7.78-10.38.46,6.47-6.54,12.19-6.54,12.19l2.65-.27a7.05,7.05,0,0,1-3,3h0l-.56.25h0a7.1,7.1,0,0,1-4.26.18l2-1.76S533.47,345.47,529.05,340.72Z"/><path fill="#2ca3b0" d="M669.05,226s-7.09,2.89-12.9,1.38c.19-.71-2.06-1.69-2.45-1.07-5.06-3.22-7.77-10.38-7.77-10.38-.47,6.47,6.54,12.2,6.54,12.2l-2.65-.27a7.12,7.12,0,0,0,3,3h0l.57.25h0a7.07,7.07,0,0,0,4.25.17l-2-1.75S664.62,230.77,669.05,226Z"/><path fill="#2ca3b0" d="M1007.22,251.15s-7.09,2.89-12.9,1.38c.19-.71-2.06-1.69-2.45-1.07-5.06-3.22-7.77-10.38-7.77-10.38-.47,6.47,6.54,12.2,6.54,12.2L988,253a7.06,7.06,0,0,0,3,3h0c.19.09.38.18.57.25h0a7.07,7.07,0,0,0,4.25.17l-2-1.75S1002.79,255.89,1007.22,251.15Z"/><path fill="#ffa218" d="M1033.33,764.3l-19.67-7-26.83-19.93a6.11,6.11,0,0,0-3.31-1l-70.7-1.22a6.15,6.15,0,0,0-3.18.83l-33.11,22.32-56.84,7h-.14l-9.87,16.47v23a2.22,2.22,0,0,0,2.2,2.24h212.94a2.2,2.2,0,0,0,2-1.45l5.73-15.5-3-22,3.79-.17Z"/><path fill="#012c4f" d="M947.6,742.06v18.09a2.21,2.21,0,0,1-2.19,2.24H891.82a2.25,2.25,0,0,1-1.33-4L912,741.73l2.45-1.89a2.07,2.07,0,0,1,1.35-.46l2.82,0,26.83.4A2.22,2.22,0,0,1,947.6,742.06Z"/><polygon fill="#215680" points="933.48 739.64 941.51 762.39 937.49 762.39 929.23 739.58 933.48 739.64"/><path fill="#215680" d="M927.72,762.39h-8L912,741.73l2.45-1.89a2.07,2.07,0,0,1,1.35-.46l2.82,0Z"/><path fill="#012c4f" d="M987.94,762.39H952.61a2.21,2.21,0,0,1-2.19-2.24v-18a2.21,2.21,0,0,1,2.22-2.24l25.34.38a2.16,2.16,0,0,1,1.86,1.11l10,17.61A2.24,2.24,0,0,1,987.94,762.39Z"/><polygon fill="#215680" points="975.07 740.27 986.64 762.39 983.18 762.39 972.05 740.22 975.07 740.27"/><polygon fill="#215680" points="963.32 740.09 972.39 762.39 965.09 762.39 957.57 740 963.32 740.09"/><path fill="#012c4f" d="M908.36,737.4l-.52-.27-31.31,21.1,2.92,1.61a2,2,0,0,0,2.19-.17L908.5,739A1,1,0,0,0,908.36,737.4Z"/><path fill="#ffae00" d="M819.69,765.25h-.14a49.72,49.72,0,0,0-9.87,16.47,22.64,22.64,0,0,0,5.48.16c5.41-.69,8.46-3.55,9.08-8S822.36,766.22,819.69,765.25Z"/><path fill="#e64835" d="M820.12,784.29H809.68v4l10.42.15c.72,0,1.3-.91,1.3-2S820.82,784.29,820.12,784.29Z"/><path fill="#ffae00" d="M1029.59,768l-6.73.12a1,1,0,0,0-.77,1.48l2.25,3.55a.94.94,0,0,0,.79.44h5.22Z"/><polygon fill="#e64835" points="1032.6 790.04 1023.06 789.88 1023.06 792.86 1031.56 792.86 1032.6 790.04"/><path fill="#012c4f" d="M989.57,739.37l24.09,17.9-4.33,1.38a1.23,1.23,0,0,1-1.21-.27L989,740.7a.71.71,0,0,1,.16-1.14Z"/><path fill="#ffeb66" d="M972.28,773.58l-95.86,8.06a1.23,1.23,0,0,0-1.13,1.26h0a1.24,1.24,0,0,0,1.23,1.23h92.91a1.21,1.21,0,0,0,1.14-.81l3-8.05A1.25,1.25,0,0,0,972.28,773.58Z"/><path fill="#eb711a" d="M997.06,768.68v-.13H882.91V807h1.34l-.3-37,61.46-.14V807l.62-.16.32-37,49.75-.1-.29,15.65c-22.54.64-23.42,21.58-23.42,21.58h1.21c2.18-22.22,23.31-20.68,23.31-20.68l.15-16.55h0Z"/><path fill="#eb711a" d="M809.68,800.66v4.76a1.56,1.56,0,0,0,1.54,1.57h214.93l2.74-6.33Z"/><ellipse cx="994.83" cy="806.99" fill="#012c4f" rx="15.86" ry="16.19"/><ellipse cx="994.83" cy="806.99" fill="#abbec4" rx="10.26" ry="10.48"/><path fill="#062530" d="M985.6,807a9.55,9.55,0,0,0,.45,2.89,9.32,9.32,0,0,0,1.94,3.43,9.15,9.15,0,0,0,4.9,2.89h0a8.94,8.94,0,0,0,1.94.21,8.81,8.81,0,0,0,1.94-.21,9.18,9.18,0,0,0,4.91-2.89,9.57,9.57,0,0,0,0-12.65,9.24,9.24,0,0,0-4.91-2.89,8.81,8.81,0,0,0-1.94-.21,8.94,8.94,0,0,0-1.94.21h0a9.15,9.15,0,0,0-4.9,2.89,9.4,9.4,0,0,0-1.94,3.43A9.56,9.56,0,0,0,985.6,807Z"/><ellipse cx="994.83" cy="806.99" fill="#abbec4" rx="3.94" ry="4.03"/><ellipse cx="994.83" cy="806.99" fill="#012c4f" rx="2.03" ry="2.08"/><path fill="#abbec4" d="M992.89,797.77l.65,5.41.15,1.3H996l.16-1.3.64-5.41a8.81,8.81,0,0,0-1.94-.21A8.94,8.94,0,0,0,992.89,797.77Z"/><path fill="#abbec4" d="M996.38,804.73l1.15,2,1.18-.51,4.91-2.14a9.7,9.7,0,0,0-1.94-3.43l-4.27,3.28Z"/><path fill="#abbec4" d="M996.38,809.24l1,.79,4.27,3.28a9.61,9.61,0,0,0,1.94-3.43l-4.91-2.14-1.18-.51Z"/><path fill="#abbec4" d="M992.89,816.2a8.94,8.94,0,0,0,1.94.21,8.81,8.81,0,0,0,1.94-.21l-.64-5.41-.16-1.3h-2.28l-.15,1.3Z"/><path fill="#abbec4" d="M986.05,809.88a9.32,9.32,0,0,0,1.94,3.43l4.27-3.28,1-.79-1.14-2-1.18.51Z"/><path fill="#abbec4" d="M986.05,804.09l4.91,2.14,1.18.51,1.14-2-1-.79L988,800.66A9.4,9.4,0,0,0,986.05,804.09Z"/><ellipse cx="856.83" cy="806.99" fill="#012c4f" rx="15.86" ry="16.19"/><ellipse cx="856.83" cy="806.99" fill="#abbec4" rx="10.26" ry="10.48"/><path fill="#062530" d="M847.6,807a9.55,9.55,0,0,0,.45,2.89,9.32,9.32,0,0,0,1.94,3.43,9.15,9.15,0,0,0,4.9,2.89h0a9.07,9.07,0,0,0,3.88,0,9.18,9.18,0,0,0,4.91-2.89,9.57,9.57,0,0,0,0-12.65,9.24,9.24,0,0,0-4.91-2.89,9.07,9.07,0,0,0-3.88,0h0a9.15,9.15,0,0,0-4.9,2.89,9.4,9.4,0,0,0-1.94,3.43A9.56,9.56,0,0,0,847.6,807Z"/><ellipse cx="856.83" cy="806.99" fill="#abbec4" rx="3.94" ry="4.03"/><ellipse cx="856.83" cy="806.99" fill="#012c4f" rx="2.03" ry="2.08"/><path fill="#abbec4" d="M854.89,797.77l.65,5.41.15,1.3H858l.16-1.3.64-5.41a9.07,9.07,0,0,0-3.88,0Z"/><path fill="#abbec4" d="M858.38,804.73l1.15,2,1.18-.51,4.91-2.14a9.7,9.7,0,0,0-1.94-3.43l-4.27,3.28Z"/><path fill="#abbec4" d="M858.38,809.24l1,.79,4.27,3.28a9.61,9.61,0,0,0,1.94-3.43l-4.91-2.14-1.18-.51Z"/><path fill="#abbec4" d="M854.89,816.2a9.07,9.07,0,0,0,3.88,0l-.64-5.41-.16-1.3h-2.28l-.15,1.3Z"/><path fill="#abbec4" d="M848.05,809.88a9.32,9.32,0,0,0,1.94,3.43l4.27-3.28,1-.79-1.14-2-1.18.51Z"/><path fill="#abbec4" d="M848.05,804.09l4.91,2.14,1.18.51,1.14-2-1-.79L850,800.66A9.4,9.4,0,0,0,848.05,804.09Z"/></svg>