<svg width="336" height="298" viewBox="0 0 336 298" fill="none" xmlns="http://www.w3.org/2000/svg">
<mask id="mask0" mask-type="alpha" maskUnits="userSpaceOnUse" x="0" y="0" width="336" height="298">
<rect width="336" height="298" fill="#C4C4C4"/>
</mask>
<g mask="url(#mask0)">
<mask id="mask1" mask-type="alpha" maskUnits="userSpaceOnUse" x="2" y="0" width="333" height="299">
<path d="M231.202 0.0909513C245.492 0.090949 258.697 7.71491 265.843 20.0909L328.84 129.205C335.985 141.581 335.985 156.829 328.839 169.205L265.843 278.319C258.697 290.695 245.492 298.319 231.202 298.319L105.208 298.319C90.917 298.319 77.712 290.695 70.5666 278.319L7.56967 169.205C0.42436 156.829 0.424375 141.581 7.56968 129.205L70.5666 20.0909C77.712 7.71488 90.917 0.0909435 105.208 0.0909458L231.202 0.0909513Z" fill="#F9F9FD"/>
</mask>
<g mask="url(#mask1)">
<path d="M231.202 1.59095C244.956 1.59095 257.666 8.92901 264.544 20.8409L327.54 129.955C334.418 141.867 334.418 156.543 327.54 168.455L264.543 277.569C257.666 289.481 244.956 296.819 231.202 296.819L105.208 296.819C91.4529 296.819 78.7431 289.481 71.8657 277.569L8.86871 168.455C1.99135 156.543 1.99136 141.867 8.86872 129.955L71.8657 20.8409C78.743 8.92898 91.4529 1.59094 105.208 1.59095L231.202 1.59095Z" fill="#F9F9FD" stroke="#E6E6F1" stroke-width="3"/>
<path fill-rule="evenodd" clip-rule="evenodd" d="M40.7852 107.061C40.7852 107.061 162.831 49.0931 230.777 88.6516C298.719 128.211 278.834 176.733 267.63 188.833C264.719 186.538 260.42 183.227 254.802 179.109C253.713 174.298 251.364 162.107 250.844 144.485C250.161 121.357 250.821 112.505 250.821 112.505C250.821 112.505 247.414 128.851 248.399 150.555C249.092 165.81 249.417 172.605 249.55 175.299C244.117 171.405 237.738 166.964 230.454 162.106C229.175 156.92 226.701 145.098 225.761 128.276C224.476 105.174 224.905 96.3071 224.905 96.3071C224.905 96.3071 221.924 112.737 223.477 134.406C224.511 148.848 225.017 155.694 225.239 158.659C218.406 154.181 210.873 149.396 202.656 144.388C201.564 140.029 199.531 130.452 198.687 116.918C197.508 97.9895 196.653 84.5766 196.653 84.5766C196.653 84.5766 195.462 104.2 196.848 121.955C197.774 133.785 198.222 139.395 198.424 141.826C194.983 139.756 191.433 137.657 187.771 135.523C183.498 133.036 179.218 130.73 174.962 128.594C173.886 125.059 171.765 117.058 170.548 105.599C168.871 89.8039 167.665 78.6138 167.665 78.6138C167.665 78.6138 167.332 95.0766 169.146 109.882C170.424 120.301 171.001 124.933 171.235 126.769C122.857 103.53 78.5176 101.951 78.7955 102.911C79.0988 103.948 122.786 105.59 168.642 128.839C166.324 129.53 161.467 130.987 151.928 133.867C136.589 138.495 123.716 145.535 123.716 145.535C123.716 145.535 132.049 142.203 148.302 137.022C160.637 133.089 169.668 131.713 173.309 131.278C181.041 135.433 188.771 140.059 196.29 144.893C193.237 146.003 186.31 148.534 171.907 153.832C150.036 161.875 134.204 172.883 134.204 172.883C134.204 172.883 143.765 167.655 166.917 158.728C183.419 152.364 195.889 149.527 201.692 148.422C208.858 153.18 215.777 158.07 222.269 162.85C220.505 163.489 213.839 165.913 194.846 172.898C171.784 181.379 155.088 192.99 155.088 192.99C155.088 192.99 165.171 187.475 189.586 178.061C208.55 170.749 222.463 167.854 227.733 166.924C234.897 172.325 241.416 177.492 247.01 182.053L245.498 181.418C245.498 181.418 240.69 183.677 218.041 194.543C195.391 205.408 180.601 217.751 180.601 217.751C180.601 217.751 189.26 212.254 213.192 200.307C231.786 191.026 245.67 186.733 250.94 185.28C257.864 191.015 262.973 195.486 265.554 197.778C263.987 212.936 255.892 244.517 209.016 240.704C162.139 236.89 128.673 192.346 110.588 150.793C96.7471 113.854 40.7852 107.061 40.7852 107.061Z" fill="url(#paint0_linear)"/>
<path d="M344.242 238.111L270.586 195.74L333.935 238.646L344.242 238.111Z" fill="url(#paint1_linear)"/>
</g>
</g>
<defs>
<linearGradient id="paint0_linear" x1="52.7576" y1="97.8766" x2="280.573" y2="215.556" gradientUnits="userSpaceOnUse">
<stop stop-color="#C9D7CF" stop-opacity="0.33"/>
<stop offset="1" stop-color="#DFE9E3" stop-opacity="0"/>
</linearGradient>
<linearGradient id="paint1_linear" x1="52.7576" y1="97.8766" x2="280.573" y2="215.556" gradientUnits="userSpaceOnUse">
<stop stop-color="#C9D7CF" stop-opacity="0.33"/>
<stop offset="1" stop-color="#DFE9E3" stop-opacity="0"/>
</linearGradient>
</defs>
</svg>
