<svg xmlns="http://www.w3.org/2000/svg" enable-background="new 0 0 3000 2414.323" viewBox="0 0 3000 2414.323"><ellipse cx="1291.504" cy="1043.35" fill="#9ae45f" class="colorffe381 svgShape" rx="676.927" ry="624.141"/><path fill="#9ae45f" d="M2737.26,2082.737c27.982,33.516,8.307,60.938-43.723,60.938H317.659
			c-52.03,0-71.705-27.422-43.723-60.938l305.955-366.458c27.982-33.516,93.447-60.938,145.477-60.938h1560.46
			c52.03,0,117.495,27.422,145.478,60.938L2737.26,2082.737z" class="colorffe381 svgShape"/><ellipse cx="730.641" cy="1393.667" fill="#9ae45f" class="colorffe381 svgShape" rx="480.641" ry="443.161"/><circle cx="2143.614" cy="1183.765" r="559.176" fill="#9ae45f" class="colorffe381 svgShape"/><ellipse cx="861.364" cy="1261.852" fill="#fff" class="colorffffff svgShape" rx="249.818" ry="67.146"/><ellipse cx="2036.527" cy="967.446" fill="#9ae45f" class="colorffe381 svgShape" rx="559.176" ry="515.572"/><ellipse cx="2281.243" cy="1226.48" fill="#fff" class="colorffffff svgShape" rx="263.107" ry="67.146"/><ellipse cx="1699.618" cy="1269.952" fill="#fff" class="colorffffff svgShape" rx="263.107" ry="67.146"/><path fill="#26d7fe" d="M1066.082,910.674c-0.925,0-1.72-0.697-1.823-1.637c-0.11-1.009,0.618-1.915,1.627-2.026
			c271.643-29.675,480.366-107.712,607.631-167.951c137.836-65.243,212.358-124.179,213.094-124.767
			c0.488-0.388,1.139-0.505,1.727-0.306c0.76,0.253,77.155,25.427,187.604,34.292c101.876,8.178,254.394,3.754,402.448-63.755
			c0.925-0.422,2.014-0.014,2.433,0.909c0.422,0.923,0.014,2.012-0.908,2.433c-65.718,29.966-137.774,50.168-214.171,60.047
			c-61.096,7.9-125.09,9.253-190.204,4.019c-104.229-8.378-178.291-31.236-187.42-34.155
			c-8.324,6.464-82.363,62.753-213.031,124.603c-81.152,38.412-167.969,71.438-258.041,98.161
			c-112.582,33.402-230.596,56.994-350.764,70.121C1066.217,910.67,1066.15,910.674,1066.082,910.674z" class="color30cfff svgShape"/><path fill="#26d7fe" d="M1233.844,924.947c-16.272,0-32.092-0.304-47.447-0.914c-1.014-0.04-1.803-0.895-1.762-1.908
			c0.04-1.013,0.917-1.801,1.908-1.763c173.715,6.891,374.965-27.034,513.209-56.711c149.835-32.165,259.983-66.403,261.078-66.745
			c0.335-0.104,0.693-0.111,1.031-0.019c0.785,0.214,79.709,21.458,189.662,26.021c101.403,4.21,250.699-5.313,386.074-74.583
			c0.907-0.46,2.012-0.104,2.472,0.799c0.462,0.903,0.105,2.01-0.798,2.472c-60.117,30.762-127.938,52.469-201.581,64.521
			c-58.885,9.636-121.606,13.154-186.416,10.459c-105.649-4.396-182.794-24.144-189.858-26.005
			c-8.322,2.571-116.093,35.586-260.856,66.664c-88.098,18.912-172.463,33.42-250.752,43.119
			C1371.464,920.061,1299.051,924.947,1233.844,924.947z" class="color30cfff svgShape"/><path fill="#26d7fe" d="M1527.272,1096.448l-10.565-631.391h-22.218l-10.565,631.391h0.078
				c-0.047,0.263-0.078,0.528-0.078,0.796c0,5.374,9.703,9.731,21.674,9.731c11.97,0,21.674-4.357,21.674-9.731
				c0-0.268-0.031-0.533-0.078-0.796H1527.272z" class="color30cfff svgShape"/><ellipse cx="1505.598" cy="463.566" fill="#26d7fe" class="color30cfff svgShape" rx="20.536" ry="20.535" transform="rotate(-26.064 1505.45 463.53)"/><path fill="#26d7fe" d="M1571.392,250c-9.133,8.528-74.109,156.751-68.336,167.855
					c5.084,9.779,4.228,37.492,3.951,43.971l-0.387,1.272c0,0,0.125-0.206,0.356-0.579c-0.021,0.438-0.034,0.678-0.034,0.678
					l0.368-1.216c3.37-5.406,18.389-28.885,28.14-34.096C1546.489,421.987,1574.108,262.197,1571.392,250z" class="color30cfff svgShape"/><path fill="#26d7fe" d="M1654.654,636.861c-2.197-12.301-91.332-147.382-103.792-148.568
					c-10.972-1.045-33.772-16.821-39.062-20.573l-0.857-1.015c0,0,0.105,0.216,0.293,0.613c-0.357-0.255-0.551-0.397-0.551-0.397
					l0.821,0.969c2.707,5.766,14.259,31.131,13.336,42.149C1523.796,522.511,1642.938,632.514,1654.654,636.861z" class="color30cfff svgShape"/><path fill="#26d7fe" d="M1287.589,525.283c12.118,3.05,171.891-22.727,178.091-33.599
					c5.46-9.574,29.209-23.882,34.803-27.162l1.278-0.365c0,0-0.24,0.007-0.679,0.015c0.379-0.22,0.588-0.34,0.588-0.34l-1.221,0.35
					c-6.369,0.099-34.24,0.212-43.906-5.156C1445.6,452.951,1296.365,516.388,1287.589,525.283z" class="color30cfff svgShape"/><path fill="#26d7fe" d="M1200.341,1072.929l-10.565-567.204h-22.218l-10.565,567.204h0.078
				c-0.047,0.236-0.078,0.474-0.078,0.715c0,4.828,9.703,8.742,21.674,8.742c11.97,0,21.674-3.914,21.674-8.742
				c0-0.241-0.031-0.479-0.078-0.715H1200.341z" class="color30cfff svgShape"/><circle cx="1180.327" cy="530.317" r="24.802" fill="#26d7fe" class="color30cfff svgShape" transform="rotate(-70.117 1180.266 530.317)"/><path fill="#26d7fe" d="M1259.791,272.38c-11.031,10.3-89.506,189.317-82.533,202.729
					c6.14,11.811,5.106,45.281,4.772,53.106l-0.467,1.536c0,0,0.151-0.248,0.429-0.699c-0.025,0.529-0.041,0.819-0.041,0.819
					l0.444-1.469c4.071-6.529,22.209-34.886,33.986-41.18C1229.713,480.099,1263.071,287.112,1259.791,272.38z" class="color30cfff svgShape"/><path fill="#26d7fe" d="M1360.35,739.615c-2.654-14.857-110.307-178.001-125.355-179.434
					c-13.251-1.262-40.789-20.315-47.177-24.848l-1.036-1.226c0,0,0.126,0.261,0.353,0.74c-0.431-0.308-0.666-0.479-0.666-0.479
					l0.992,1.171c3.269,6.964,17.221,37.599,16.106,50.906C1202.306,601.508,1346.2,734.365,1360.35,739.615z" class="color30cfff svgShape"/><path fill="#26d7fe" d="M917.024,604.856c14.636,3.683,207.602-27.448,215.091-40.579
					c6.594-11.563,35.278-28.843,42.034-32.805l1.544-0.44c0,0-0.29,0.008-0.82,0.018c0.458-0.266,0.71-0.41,0.71-0.41l-1.475,0.423
					c-7.693,0.12-41.354,0.256-53.028-6.227C1107.864,517.497,927.623,594.112,917.024,604.856z" class="color30cfff svgShape"/><path fill="#26d7fe" d="M786.095,1267.125l-9.387-503.95h-19.74l-9.387,503.95h0.07c-0.042,0.21-0.07,0.421-0.07,0.635
				c0,4.29,8.621,7.767,19.257,7.767c10.635,0,19.257-3.477,19.257-7.767c0-0.214-0.027-0.426-0.07-0.635H786.095z" class="color30cfff svgShape"/><circle cx="768.548" cy="769.409" r="22.036" fill="#26d7fe" class="color30cfff svgShape" transform="rotate(-85.739 768.57 769.437)"/><path fill="#26d7fe" d="M1002.279,823.021c-9.845-9.103-173.582-66.979-185.012-59.927
					c-10.065,6.21-39.79,7.474-46.746,7.687l-1.391-0.314c0,0,0.23,0.117,0.647,0.335c-0.471,0.012-0.729,0.017-0.729,0.017
					l1.33,0.298c6.05,3.182,32.358,17.407,38.702,27.433C816.263,809.899,989.439,826.887,1002.279,823.021z" class="color30cfff svgShape"/><path fill="#26d7fe" d="M594.817,942.559c12.992-3.319,150.54-109.336,150.83-122.763
					c0.255-11.824,15.344-37.466,18.944-43.421l1.019-0.998c0,0-0.223,0.129-0.633,0.361c0.245-0.402,0.381-0.621,0.381-0.621
					l-0.973,0.955c-5.958,3.35-32.194,17.708-44.058,17.587C706.898,793.522,598.547,929.679,594.817,942.559z" class="color30cfff svgShape"/><path fill="#26d7fe" d="M685.35,540.954c-2.31,13.208,37.844,182.167,49.967,187.946
					c10.676,5.09,27.855,29.38,31.806,35.109l0.491,1.339c0,0-0.026-0.257-0.069-0.726c0.266,0.389,0.41,0.603,0.41,0.603
					l-0.471-1.279c-0.607-6.809-2.92-36.627,2.064-47.394C775.188,704.366,695.56,549.646,685.35,540.954z" class="color30cfff svgShape"/><ellipse cx="2123.952" cy="1905.252" fill="#fff" class="colorffffff svgShape" rx="553.727" ry="227.441"/><g fill="#d85b53" class="color000000 svgShape"><ellipse cx="1441.029" cy="1795.079" fill="#fff" class="colorffffff svgShape" rx="616.738" ry="215.943"/></g><g fill="#d85b53" class="color000000 svgShape"><ellipse cx="912.543" cy="1954.52" fill="#fff" class="colorffffff svgShape" rx="599.2" ry="209.802"/></g><g fill="#d85b53" class="color000000 svgShape"><path fill="#26d7fe" d="M1963.141,780.299c0-0.095-0.016-0.185-0.023-0.278c-0.003-0.03-0.004-0.06-0.008-0.089
			c-0.035-0.313-0.112-0.612-0.228-0.892c-0.011-0.028-0.024-0.055-0.037-0.082c-0.069-0.154-0.148-0.301-0.239-0.442
			c-0.021-0.033-0.042-0.066-0.064-0.098c-0.088-0.126-0.184-0.244-0.288-0.356c-0.031-0.034-0.061-0.07-0.094-0.102
			c-0.059-0.059-0.122-0.114-0.185-0.169c-0.054-0.046-0.11-0.089-0.167-0.132c-0.086-0.064-0.174-0.124-0.266-0.18
			c-0.076-0.046-0.153-0.089-0.233-0.13c-0.056-0.028-0.112-0.057-0.17-0.082c-0.124-0.054-0.252-0.099-0.382-0.137
			c-0.021-0.006-0.041-0.017-0.063-0.023l-140.455-44.96V600.475h63.388v27.841c0,1.825,1.479,3.303,3.303,3.303
			s3.303-1.479,3.303-3.303v-31.116c0-0.009,0.001-0.018,0.001-0.027c0-0.021-0.004-0.042-0.004-0.063
			c-0.002-0.118-0.011-0.235-0.025-0.35c-0.006-0.051-0.014-0.101-0.023-0.151c-0.017-0.098-0.038-0.195-0.064-0.29
			c-0.01-0.039-0.018-0.078-0.03-0.116c-0.038-0.123-0.083-0.242-0.135-0.358c-0.019-0.043-0.04-0.085-0.061-0.127
			c-0.041-0.084-0.086-0.165-0.134-0.245c-0.023-0.038-0.045-0.077-0.069-0.114c-0.07-0.106-0.145-0.208-0.226-0.304
			c-0.025-0.03-0.052-0.057-0.079-0.086c-0.065-0.073-0.133-0.142-0.204-0.209c-0.033-0.03-0.065-0.061-0.099-0.09
			c-0.098-0.084-0.199-0.164-0.306-0.237c-0.018-0.012-0.037-0.022-0.055-0.034c-0.096-0.062-0.195-0.118-0.298-0.17
			c-0.018-0.009-0.035-0.022-0.054-0.031l-45.518-25.272c-0.49-0.272-1.042-0.415-1.603-0.415h-21.25
			c-0.104-0.528-0.339-1.034-0.704-1.471l-7.282-34.076c-0.001-0.005-0.002-0.01-0.003-0.016l-13.498-63.163
			c-0.326-1.524-1.672-2.613-3.23-2.613c-1.558,0-2.905,1.089-3.23,2.613l-13.262,62.058c-0.002,0.008-0.003,0.015-0.005,0.023
			l-7.831,36.646h-20.498c-0.561,0-1.113,0.143-1.604,0.415l-45.639,25.339c-0.005,0.003-0.011,0.006-0.016,0.009l-0.019,0.011
			c-0.006,0.003-0.01,0.008-0.016,0.011c-0.145,0.082-0.283,0.175-0.413,0.277c-0.015,0.012-0.031,0.022-0.046,0.034
			c-0.123,0.1-0.237,0.21-0.344,0.326c-0.022,0.024-0.044,0.047-0.065,0.071c-0.102,0.117-0.197,0.241-0.282,0.372
			c-0.013,0.02-0.025,0.041-0.037,0.061c-0.17,0.275-0.301,0.576-0.385,0.897c-0.007,0.026-0.014,0.052-0.02,0.079
			c-0.036,0.152-0.063,0.308-0.077,0.468c-0.002,0.028-0.002,0.056-0.004,0.084c-0.004,0.069-0.01,0.138-0.01,0.208v31.144
			c0,1.825,1.479,3.303,3.303,3.303c1.825,0,3.303-1.479,3.303-3.303v-27.841h62.238v40.484c-0.001,0.047-0.004,0.095-0.003,0.142
			c-0.175,0.604-0.175,1.248,0.003,1.854v42.017c-0.179,0.609-0.178,1.258,0,1.865v45.632l-139.415,44.671
			c-0.011,0.003-0.021,0.007-0.032,0.01l-0.007,0.002c-0.021,0.007-0.041,0.016-0.061,0.023c-0.126,0.043-0.248,0.094-0.367,0.152
			c-0.043,0.021-0.086,0.039-0.128,0.062c-0.034,0.018-0.066,0.039-0.099,0.059c-0.057,0.033-0.114,0.066-0.168,0.102
			c-0.03,0.02-0.058,0.042-0.087,0.062c-0.055,0.039-0.109,0.078-0.161,0.121c-0.029,0.023-0.056,0.048-0.083,0.072
			c-0.049,0.043-0.097,0.085-0.144,0.131c-0.029,0.028-0.056,0.057-0.084,0.087c-0.041,0.043-0.082,0.087-0.121,0.133
			c-0.029,0.034-0.057,0.069-0.084,0.104c-0.034,0.043-0.067,0.087-0.099,0.132c-0.028,0.039-0.055,0.079-0.082,0.12
			c-0.028,0.043-0.054,0.086-0.079,0.13c-0.026,0.044-0.052,0.089-0.075,0.135c-0.022,0.043-0.043,0.087-0.063,0.132
			c-0.022,0.048-0.045,0.095-0.065,0.144c-0.02,0.048-0.036,0.097-0.053,0.146c-0.016,0.046-0.034,0.092-0.049,0.139
			c-0.028,0.093-0.053,0.187-0.073,0.283c-0.004,0.019-0.006,0.038-0.01,0.057c-0.017,0.088-0.031,0.176-0.04,0.265
			c-0.003,0.03-0.004,0.06-0.007,0.09c-0.006,0.076-0.011,0.153-0.011,0.23c0,0.012-0.002,0.024-0.002,0.036v31.144
			c0,1.824,1.479,3.303,3.303,3.303c1.824,0,3.303-1.479,3.303-3.303v-27.84h133.483l-7.447,148.126l-104.545,71.504
			c-1.196,0.818-1.719,2.319-1.291,3.703c0.428,1.384,1.707,2.327,3.156,2.327h98.783l-3.395,67.524l-48.375,227.987
			c-0.207,0.975,0.038,1.991,0.665,2.765c0.627,0.774,1.57,1.224,2.567,1.224h172.732c0.996,0,1.94-0.45,2.567-1.224
			c0.627-0.774,0.871-1.79,0.665-2.765l-28.737-135.435c0-0.002-0.001-0.004-0.001-0.006l-19.637-92.545l-3.395-67.524h100.198
			c0.003,0,0.006,0,0.01,0c1.824,0,3.303-1.479,3.303-3.303c0-1.203-0.643-2.255-1.604-2.833l-105.856-72.4l-7.397-147.123h134.899
			v27.84c0,1.824,1.479,3.303,3.303,3.303s3.303-1.479,3.303-3.303v-30.956C1963.135,780.424,1963.141,780.362,1963.141,780.299z
			 M1713.235,1300.833c-0.045,0.04-0.084,0.084-0.126,0.126l25.162-118.586l52.095,48.56L1713.235,1300.833z M1795.216,1235.453
			l71.558,66.701h-145.159L1795.216,1235.453z M1783.932,539.384l7.434,7.827l-11.75,12.372L1783.932,539.384z M1813.638,756.198
			c0.001,0.028-0.001,0.055,0,0.083l0.776,15.427l-14.559-14.828l13.779-13.944v13.18
			C1813.634,756.143,1813.637,756.17,1813.638,756.198z M1809.236,737.987l-14.011,14.178l-13.771-14.025L1809.236,737.987z
			 M1777.046,731.557l17.963-18.913l17.776,18.716L1777.046,731.557z M1799.565,707.848l14.069-14.813v29.626L1799.565,707.848z
			 M1813.634,648.433v31.061l-14.75-15.53L1813.634,648.433z M1794.327,659.167l-16.677-17.559l16.809-17.698l16.677,17.559
			L1794.327,659.167z M1810.952,686.265l-15.944,16.787l-16.625-17.504l15.944-16.787L1810.952,686.265z M1790.453,707.848
			l-13.526,14.241v-28.482L1790.453,707.848z M1776.585,757.573c0.217-0.44,0.343-0.934,0.343-1.458v-13.156l13.654,13.906
			l-14.709,14.885L1776.585,757.573z M1795.21,761.58l15.137,15.416h-30.37L1795.21,761.58z M1810.892,783.602l-16.182,16.376
			l-16.079-16.376H1810.892z M1799.015,619.114l14.619-15.392v30.784L1799.015,619.114z M1794.459,614.317l-13.147-13.842h26.294
			L1794.459,614.317z M1810.573,557.841l-10.096-10.63l6.387-6.725L1810.573,557.841z M1811.594,568.51h-31.345l15.673-16.502
			L1811.594,568.51z M1776.927,575.116h36.706v18.752h-36.706V575.116z M1789.903,619.114l-12.976,13.662v-27.324L1789.903,619.114z
			 M1789.771,663.964l-12.844,13.523V650.44L1789.771,663.964z M1774.989,789.323l15.077,15.355l-16.698,16.898L1774.989,789.323z
			 M1794.694,809.392l19.197,19.551l-19.213,19.383l-19.166-19.522L1794.694,809.392z M1772.675,835.345l17.352,17.675
			l-19.215,19.385L1772.675,835.345z M1794.656,857.734l22.188,22.6l-21.385,20.025l-22.328-20.909L1794.656,857.734z
			 M1770.143,885.705l20.482,19.18l-22.506,21.075L1770.143,885.705z M1773.756,929.732l21.702-20.322l21.702,20.322H1773.756z
			 M1817.953,936.339l-23.457,25.739l-23.561-25.739H1817.953z M1767.305,942.157l22.723,24.823l-25.371,27.839L1767.305,942.157z
			 M1766.455,1002.655l28.052-30.781l28.177,30.781H1766.455z M1823.867,1009.261l-28.461,26.652l-28.461-26.652H1823.867z
			 M1763.632,1015.21l26.941,25.228l-29.603,27.721L1763.632,1015.21z M1764.493,1073.911l30.913-28.948l30.913,28.948H1764.493z
			 M1827.099,1080.518l-32.166,30.132l-31.778-30.132H1827.099z M1758.823,1085.515l31.28,29.659l-46.894,43.929L1758.823,1085.515z
			 M1740.048,1174.998c-0.058-0.054-0.119-0.102-0.179-0.151l0.943-4.445l54.094-50.673l54.855,52.013l0.955,4.501l-55.436,50.239
			L1740.048,1174.998z M1799.735,1115.203l31.723-29.717l15.883,74.857L1799.735,1115.203z M1800.239,1040.438l26.44-24.759
			l2.612,51.965L1800.239,1040.438z M1798.976,966.971l23.934-26.262l2.788,55.453L1798.976,966.971z M1800.291,904.885
			l19.882-18.618l1.964,39.075L1800.291,904.885z M1799.307,853.042l18.269-18.431l1.963,39.038L1799.307,853.042z
			 M1799.339,804.693l15.923-16.114l1.713,34.076L1799.339,804.693z M1874.169,593.868h-53.929v-18.752h20.153L1874.169,593.868z
			 M1795.281,486.28l9.91,46.375l-9.269,9.76l-10.316-10.862L1795.281,486.28z M1751.31,575.116h19.011v18.752h-52.786
			L1751.31,575.116z M1770.321,739.407v15.397c-0.153,0.353-0.249,0.738-0.269,1.145l-1.058,21.046H1653.01L1770.321,739.407z
			 M1760.797,940.017l-3.142,62.494c-0.041,0.048-0.081,0.095-0.119,0.144h-88.322L1760.797,940.017z M1876.463,1302.155
			l-76.334-71.154l52.173-47.281l25.13,118.435H1876.463z M1922.489,1002.655h-89.849l-3.2-63.641L1922.489,1002.655z
			 M1821.294,776.996l-1.054-20.964v-16.947l118.433,37.911H1821.294z" class="color30cfff svgShape"/></g><g fill="#d85b53" class="color000000 svgShape"><path fill="#26d7fe" d="M2544.35,722.111c0-0.085-0.014-0.166-0.021-0.249c-0.002-0.027-0.004-0.054-0.007-0.08
			c-0.031-0.28-0.1-0.547-0.204-0.797c-0.01-0.025-0.022-0.049-0.033-0.073c-0.062-0.138-0.133-0.269-0.214-0.395
			c-0.019-0.029-0.038-0.059-0.058-0.088c-0.078-0.113-0.165-0.218-0.258-0.318c-0.028-0.03-0.054-0.062-0.084-0.091
			c-0.053-0.053-0.109-0.102-0.166-0.151c-0.048-0.041-0.098-0.08-0.149-0.118c-0.077-0.057-0.155-0.111-0.238-0.161
			c-0.068-0.041-0.137-0.08-0.208-0.116c-0.05-0.025-0.1-0.051-0.152-0.073c-0.111-0.048-0.225-0.088-0.342-0.123
			c-0.019-0.006-0.037-0.015-0.056-0.02l-125.606-40.207V561.298h56.687v24.897c0,1.632,1.323,2.954,2.954,2.954
			s2.954-1.322,2.954-2.954v-27.827c0-0.008,0.001-0.016,0.001-0.024c0-0.019-0.004-0.037-0.004-0.057
			c-0.002-0.106-0.01-0.21-0.022-0.313c-0.006-0.046-0.013-0.09-0.021-0.135c-0.015-0.088-0.034-0.174-0.057-0.259
			c-0.009-0.035-0.016-0.07-0.027-0.104c-0.034-0.11-0.075-0.217-0.12-0.321c-0.017-0.039-0.036-0.076-0.055-0.113
			c-0.037-0.075-0.077-0.148-0.12-0.219c-0.021-0.034-0.04-0.069-0.062-0.102c-0.062-0.095-0.129-0.186-0.202-0.272
			c-0.022-0.027-0.047-0.051-0.07-0.077c-0.058-0.065-0.119-0.127-0.183-0.187c-0.029-0.027-0.058-0.054-0.089-0.081
			c-0.087-0.075-0.178-0.147-0.274-0.211c-0.016-0.011-0.033-0.02-0.05-0.03c-0.086-0.055-0.175-0.106-0.266-0.153
			c-0.017-0.008-0.031-0.02-0.048-0.028l-40.706-22.6c-0.439-0.244-0.932-0.371-1.434-0.371h-19.004
			c-0.093-0.472-0.303-0.925-0.63-1.315l-6.512-30.474c-0.001-0.005-0.002-0.009-0.003-0.014l-12.071-56.486
			c-0.291-1.363-1.495-2.337-2.889-2.337c-1.394,0-2.598,0.974-2.889,2.337l-11.86,55.497c-0.002,0.007-0.003,0.013-0.004,0.02
			l-7.003,32.771h-18.331c-0.502,0-0.995,0.128-1.434,0.371l-40.814,22.66c-0.005,0.003-0.01,0.005-0.014,0.008l-0.018,0.01
			c-0.005,0.003-0.009,0.007-0.014,0.01c-0.129,0.073-0.252,0.156-0.369,0.247c-0.013,0.01-0.028,0.02-0.041,0.031
			c-0.11,0.089-0.212,0.188-0.308,0.292c-0.02,0.021-0.039,0.042-0.058,0.064c-0.092,0.105-0.176,0.216-0.252,0.333
			c-0.012,0.018-0.022,0.037-0.033,0.055c-0.152,0.246-0.269,0.515-0.344,0.802c-0.006,0.023-0.012,0.047-0.018,0.07
			c-0.032,0.136-0.056,0.276-0.068,0.419c-0.002,0.025-0.002,0.05-0.004,0.075c-0.004,0.062-0.01,0.123-0.01,0.186v27.851
			c0,1.632,1.323,2.954,2.954,2.954s2.954-1.322,2.954-2.954v-24.897h55.658v36.204c-0.001,0.042-0.003,0.085-0.003,0.127
			c-0.156,0.54-0.156,1.116,0.003,1.658v37.575c-0.16,0.545-0.159,1.125,0,1.668v40.808l-124.676,39.949
			c-0.01,0.003-0.019,0.006-0.029,0.009l-0.006,0.002c-0.019,0.006-0.036,0.014-0.055,0.02c-0.113,0.039-0.222,0.084-0.328,0.136
			c-0.038,0.018-0.077,0.035-0.115,0.055c-0.03,0.016-0.059,0.035-0.088,0.052c-0.051,0.03-0.102,0.059-0.15,0.091
			c-0.026,0.018-0.052,0.037-0.077,0.056c-0.049,0.035-0.098,0.07-0.144,0.108c-0.025,0.021-0.05,0.043-0.075,0.065
			c-0.044,0.038-0.087,0.076-0.128,0.117c-0.026,0.025-0.05,0.051-0.075,0.078c-0.037,0.039-0.073,0.078-0.108,0.119
			c-0.026,0.03-0.051,0.061-0.075,0.093c-0.03,0.039-0.06,0.078-0.088,0.118c-0.025,0.035-0.05,0.071-0.073,0.108
			c-0.025,0.038-0.048,0.077-0.071,0.117c-0.023,0.04-0.046,0.08-0.067,0.121c-0.02,0.039-0.038,0.078-0.057,0.118
			c-0.02,0.043-0.04,0.085-0.058,0.129c-0.018,0.043-0.032,0.087-0.048,0.131c-0.015,0.041-0.031,0.082-0.043,0.124
			c-0.025,0.083-0.047,0.168-0.065,0.253c-0.003,0.017-0.006,0.034-0.009,0.051c-0.015,0.078-0.028,0.157-0.036,0.237
			c-0.003,0.027-0.003,0.054-0.006,0.081c-0.006,0.068-0.01,0.137-0.01,0.206c0,0.011-0.002,0.021-0.002,0.032v27.851
			c0,1.632,1.323,2.954,2.954,2.954c1.631,0,2.954-1.322,2.954-2.954v-24.897h119.372l-6.66,132.466l-93.493,63.945
			c-1.069,0.731-1.537,2.073-1.155,3.311c0.383,1.237,1.527,2.081,2.822,2.081h88.34l-3.036,60.386l-43.261,203.884
			c-0.185,0.872,0.034,1.78,0.594,2.473c0.561,0.692,1.405,1.095,2.295,1.095h154.471c0.891,0,1.735-0.402,2.295-1.095
			c0.561-0.692,0.779-1.601,0.594-2.473l-25.699-121.117c0-0.002-0.001-0.004-0.001-0.005l-17.561-82.762l-3.036-60.386h89.606
			h0.008c1.632,0,2.954-1.323,2.954-2.954c0-1.076-0.575-2.017-1.434-2.534l-94.665-64.746l-6.615-131.569h120.637v24.897
			c0,1.632,1.323,2.954,2.954,2.954s2.954-1.322,2.954-2.954v-27.684C2544.345,722.223,2544.35,722.167,2544.35,722.111z
			 M2320.864,1187.615c-0.04,0.036-0.075,0.075-0.113,0.113l22.502-106.049l46.588,43.426L2320.864,1187.615z M2394.178,1129.148
			l63.993,59.65h-129.813L2394.178,1129.148z M2384.087,506.665l6.648,7l-10.508,11.064L2384.087,506.665z M2410.652,700.558
			c0,0.025-0.001,0.049,0,0.075l0.694,13.796l-13.02-13.26l12.323-12.47v11.786C2410.648,700.509,2410.651,700.533,2410.652,700.558
			z M2406.716,684.272l-12.53,12.68l-12.315-12.542L2406.716,684.272z M2377.928,678.522l16.064-16.913l15.896,16.737
			L2377.928,678.522z M2398.066,657.32l12.582-13.247v26.494L2398.066,657.32z M2410.648,604.186v27.777l-13.191-13.888
			L2410.648,604.186z M2393.383,613.785l-14.914-15.703l15.032-15.827l14.914,15.703L2393.383,613.785z M2408.25,638.018
			l-14.258,15.012l-14.867-15.654l14.258-15.012L2408.25,638.018z M2389.918,657.32l-12.096,12.735v-25.47L2389.918,657.32z
			 M2377.516,701.788c0.194-0.394,0.306-0.835,0.306-1.304v-11.766l12.21,12.436l-13.154,13.311L2377.516,701.788z
			 M2394.173,705.371l13.536,13.786h-27.16L2394.173,705.371z M2408.196,725.065l-14.472,14.645l-14.379-14.645H2408.196z
			 M2397.575,577.966l13.073-13.765v27.529L2397.575,577.966z M2393.501,573.677l-11.757-12.379h23.514L2393.501,573.677z
			 M2407.912,523.171l-9.029-9.506l5.712-6.014L2407.912,523.171z M2408.825,532.711h-28.032l14.016-14.757L2408.825,532.711z
			 M2377.823,538.62h32.826v16.77h-32.826V538.62z M2389.427,577.966l-11.604,12.218v-24.436L2389.427,577.966z M2389.309,618.075
			l-11.486,12.094v-24.187L2389.309,618.075z M2376.089,730.181l13.483,13.732l-14.933,15.112L2376.089,730.181z M2393.711,748.129
			l17.167,17.484l-17.182,17.334l-17.14-17.459L2393.711,748.129z M2374.02,771.337l15.518,15.806l-17.184,17.336L2374.02,771.337z
			 M2393.677,791.36l19.842,20.211l-19.125,17.908l-19.968-18.698L2393.677,791.36z M2371.755,816.374l18.317,17.152l-20.127,18.847
			L2371.755,816.374z M2374.986,855.747l19.408-18.174l19.408,18.174H2374.986z M2414.511,861.655l-20.977,23.018l-21.07-23.018
			H2414.511z M2369.217,866.858l20.321,22.199l-22.688,24.896L2369.217,866.858z M2368.458,920.96l25.086-27.527l25.198,27.527
			H2368.458z M2419.8,926.868l-25.452,23.834l-25.452-23.834H2419.8z M2365.933,932.188l24.093,22.561l-26.473,24.79
			L2365.933,932.188z M2366.703,984.683l27.645-25.887l27.645,25.887H2366.703z M2422.69,990.591l-28.765,26.946l-28.418-26.946
			H2422.69z M2361.632,995.06l27.973,26.524l-41.937,39.285L2361.632,995.06z M2344.842,1075.083
			c-0.052-0.048-0.106-0.091-0.16-0.135l0.844-3.975l48.375-45.316l49.055,46.514l0.854,4.025l-49.575,44.928L2344.842,1075.083z
			 M2398.219,1021.61l28.369-26.575l14.204,66.944L2398.219,1021.61z M2398.669,954.749l23.645-22.142l2.336,46.471
			L2398.669,954.749z M2397.54,889.048l21.404-23.486l2.493,49.591L2397.54,889.048z M2398.716,833.526l17.78-16.65l1.757,34.944
			L2398.716,833.526z M2397.836,787.164l16.337-16.482l1.755,34.911L2397.836,787.164z M2397.865,743.926l14.24-14.41l1.532,30.473
			L2397.865,743.926z M2464.784,555.39h-48.228v-16.77h18.023L2464.784,555.39z M2394.236,459.175l8.863,41.472l-8.289,8.728
			l-9.226-9.713L2394.236,459.175z M2354.913,538.62h17.001v16.77h-47.206L2354.913,538.62z M2371.914,685.542v13.769
			c-0.136,0.316-0.223,0.66-0.241,1.024l-0.946,18.821h-103.722L2371.914,685.542z M2363.398,864.944l-2.81,55.887
			c-0.036,0.043-0.073,0.085-0.106,0.129h-78.985L2363.398,864.944z M2466.836,1188.798l-68.264-63.631l46.657-42.283
			l22.473,105.914H2466.836z M2507.995,920.96h-80.351l-2.861-56.913L2507.995,920.96z M2417.499,719.157l-0.942-18.748v-15.155
			l105.913,33.903H2417.499z" class="color30cfff svgShape"/></g><g fill="#d85b53" class="color000000 svgShape"><path fill="#590020" d="M1634.095,955.523c-0.253,0-0.508-0.01-0.764-0.031l-586.036-48.281
				c-5.055-0.417-8.816-4.852-8.399-9.908c0.416-5.056,4.87-8.813,9.907-8.399l586.036,48.281c5.055,0.417,8.816,4.852,8.399,9.907
				C1642.843,951.891,1638.826,955.523,1634.095,955.523z" class="color000359 svgShape"/><polygon fill="#009cbe" points="1712.042 960.889 1014.383 911.94 1126.363 1228.859 1911.024 1308.554 1927.692 1302.36" class="color0045be svgShape"/><polygon fill="#590020" points="1692.473 964.464 1018.526 917.533 1101.802 1224.529 1911.024 1308.554" class="color000359 svgShape"/><polygon fill="#00d1ff" points="1866.399 1800.683 1447.696 1854.073 1447.696 1355.377 1866.399 1298.631" class="color0077ff svgShape"/><polygon fill="#009cbe" points="1447.696 1854.073 805.031 1800.683 805.031 1298.631 1447.696 1355.377" class="color0045be svgShape"/><polygon fill="#00d1ff" points="1447.696 1355.377 1657.047 955.296 1866.399 1298.631" class="color0077ff svgShape"/><polygon fill="#d45985" points="805.031 1308.554 805.031 1346.35 886.126 1352.145 922.883 1527.595 1172.648 1380.027 1447.696 1392.273 1447.696 1365.638" class="color552278 svgShape" opacity=".3"/><polygon fill="#00d1ff" points="805.031 1298.631 1014.383 898.55 1223.734 1241.885" class="color0077ff svgShape"/><polygon fill="#26d7fe" points="1479.064 1351.126 1479.064 1800.405 1842.321 1751.173 1842.321 1301.895" class="color30cfff svgShape"/><polygon fill="#26d7fe" points="1479.064 1351.649 1654.763 1015.881 1842.321 1301.895" class="color30cfff svgShape"/><path fill="#fff" d="M1545.831,1795.079c0,0-18.609-196.156,60.378-292.593s70.72,31.227,96.437,0
				s34.688-256.711,62.21-318.722l60.99,93.005c0,0-34.11,95.297-39.621,208.266c-5.511,112.969-80.823,182.771-111.132,124.909
				c-30.309-57.862-25.565,167.357-25.565,167.357L1545.831,1795.079z" class="colorffffff svgShape"/><path fill="#009cbe" d="M1583.905,1788.345c-2.029,0-3.674-1.645-3.674-3.673v-629.335c0-2.029,1.645-3.674,3.674-3.674
				c2.029,0,3.674,1.645,3.674,3.674v629.335C1587.578,1786.701,1585.934,1788.345,1583.905,1788.345z" class="color0045be svgShape"/><path fill="#009cbe" d="M1739.094,1772.967c-2.029,0-3.674-1.645-3.674-3.674v-622.906c0-2.029,1.645-3.674,3.674-3.674
				s3.674,1.645,3.674,3.674v622.906C1742.767,1771.322,1741.123,1772.967,1739.094,1772.967z" class="color0045be svgShape"/><rect width="366.585" height="7.348" x="1477.4" y="1323.33" fill="#590020" class="color000359 svgShape" transform="rotate(-7.735 1660.696 1327.266)"/><path fill="#009cbe" d="M1479.06,1566.623c-1.81,0-3.386-1.337-3.636-3.18c-0.273-2.01,1.136-3.861,3.146-4.134
				l363.256-49.29c2.015-0.271,3.862,1.137,4.135,3.146c0.273,2.011-1.136,3.862-3.146,4.135l-363.256,49.29
				C1479.391,1566.612,1479.224,1566.623,1479.06,1566.623z" class="color0045be svgShape"/><polygon fill="#26d7fe" points="1377.662 1654.617 1377.662 1479.436 1269.597 1471.281 1269.597 1646.461" class="color30cfff svgShape"/><rect width="120.343" height=".918" x="1036.636" y="1596.902" fill="#009cbe" class="color0045be svgShape" transform="rotate(-7.068 1096.459 1596.77)"/><path fill="#26d7fe" d="M1323.629,1475.358c0,0-36.582,61.111-18.213,65.703c18.369,4.592,33.064-6.429,21.583,17.91
				c-11.481,24.339-35.496,76.236-35.496,76.236l46.46,3.506c0,0,39.55-85.716,26.692-100.409s-42.708-7.502-32.605-24.645
				c10.103-17.143,23.421-29.542,23.421-29.542L1323.629,1475.358z" class="color30cfff svgShape" opacity=".5"/><polygon fill="#d45985" points="1663.611 1068.061 1825.845 1304.127 1866.399 1298.631 1693.002 1013.413" class="color552278 svgShape" opacity=".3"/><polygon fill="#009cbe" points="1047.035 1856.541 1047.035 1534.453 848.346 1519.458 848.346 1841.545" class="color0045be svgShape"/><polygon fill="#590020" points="1285.132 1634.726 1285.132 1472.453 1269.597 1471.28 1269.597 1646.461 1377.662 1654.617 1377.662 1641.709" class="color000359 svgShape"/><polygon fill="#00d1ff" points="1047.035 1534.453 1047.035 1856.541 1208.564 1834.207 1202.083 1369.938" class="color0077ff svgShape"/><polygon fill="#d45985" points="848.346 1538.612 848.346 1526.366 1047.035 1544.057 1202.165 1375.884 1202.64 1410.03 1047.035 1563.494" class="color552278 svgShape" opacity=".3"/><polygon fill="#590020" points="1025.397 1855.434 1025.215 1566.166 869.984 1556.167 869.984 1842.121" class="color000359 svgShape"/><polygon fill="#009cbe" points="1219.374 1363.45 1216.265 1350.5 1004.283 1344.949 831.238 1511.133 831.037 1527.595 1049.161 1544.057 1219.374 1363.45" class="color0045be svgShape"/><polygon fill="#590020" points="1219.575 1346.987 1004.483 1328.486 831.238 1511.133 1049.361 1527.595 1219.575 1346.987" class="color000359 svgShape"/><path fill="#00819e" d="M1377.668,1485.407c-0.151,0-0.302-0.006-0.456-0.018l-108.066-8.156
				c-3.288-0.248-5.752-3.115-5.504-6.402c0.249-3.288,3.103-5.751,6.402-5.504l108.066,8.156c3.288,0.248,5.752,3.115,5.504,6.402
				C1383.378,1483.021,1380.761,1485.407,1377.668,1485.407z" class="color003a9e svgShape"/><path fill="#009cbe" d="M1479.064,1804.078c-0.883,0-1.744-0.318-2.417-0.907c-0.798-0.698-1.257-1.707-1.257-2.767
					v-449.278c0-1.838,1.359-3.393,3.18-3.641l363.256-49.232c1.049-0.143,2.112,0.176,2.91,0.874
					c0.798,0.697,1.257,1.706,1.257,2.766v449.278c0,1.838-1.359,3.393-3.18,3.641l-363.256,49.232
					C1479.394,1804.067,1479.229,1804.078,1479.064,1804.078z M1482.738,1354.336v441.863l355.908-48.236V1306.1L1482.738,1354.336z
					" class="color0045be svgShape"/><path fill="#009cbe" d="M1479.064,1355.323c-1.186,0-2.311-0.575-3.006-1.562c-0.79-1.125-0.886-2.597-0.249-3.815
					l175.699-335.769c0.604-1.154,1.773-1.902,3.075-1.966c1.263-0.07,2.537,0.565,3.252,1.655l187.557,286.014
					c0.691,1.054,0.794,2.389,0.272,3.537c-0.522,1.147-1.596,1.947-2.845,2.118l-363.256,49.755
					C1479.396,1355.312,1479.229,1355.323,1479.064,1355.323z M1655.119,1023.123l-169.498,323.92l350.437-47.999L1655.119,1023.123
					z" class="color0045be svgShape"/><polygon fill="#009cbe" points="1024.118 911.94 1718.567 975.803 1509.215 1375.884 787.295 1313.329 787.295 1296.142" class="color0045be svgShape"/><polygon fill="#590020" points="1003.707 893.862 1712.042 960.889 1502.691 1360.97 787.295 1296.142" class="color000359 svgShape"/><g class="color000000 svgShape"><polygon fill="#00d1ff" points="1069.386 902.88 1615.736 937.451 1623.193 952.365 1457.008 1269.952 903.201 1220.467 895.744 1205.553" class="color0077ff svgShape"/><polygon fill="#66e3ff" points="1061.929 887.966 1615.736 937.451 1449.552 1255.038 895.744 1205.553" class="color66ffd3 svgShape"/><path fill="#66e3ff" d="M1314.142,908.241c0,0-171.444,78.078-159.198,125.225
					c12.246,47.147,103.465,0.334,79.286,47.314c-24.179,46.98-161.383,140.599-161.383,140.599l135.717,12.127
					c0,0,136.805-106.358,153.95-171.874c17.144-65.516-115.724-34.901-94.294-60.005c21.43-25.104,155.909-81.296,155.909-81.296
					L1314.142,908.241z" class="color66ffd3 svgShape"/><path fill="#00d1ff" d="M1341.034,1247.966c-0.43,0-0.866-0.101-1.274-0.314c-1.349-0.705-1.869-2.371-1.164-3.719
							l166.185-317.587c0.706-1.348,2.37-1.87,3.719-1.164c1.349,0.705,1.869,2.37,1.164,3.719l-166.185,317.587
							C1342.985,1247.427,1342.026,1247.966,1341.034,1247.966z" class="color0077ff svgShape"/><path fill="#00d1ff" d="M1227.485,1238.275c-0.431,0-0.867-0.101-1.275-0.314c-1.349-0.705-1.87-2.371-1.164-3.719
							l166.184-317.587c0.706-1.348,2.372-1.87,3.719-1.164c1.349,0.705,1.869,2.37,1.164,3.719l-166.184,317.587
							C1229.437,1237.737,1228.478,1238.275,1227.485,1238.275z" class="color0077ff svgShape"/><path fill="#00d1ff" d="M1113.936,1228.584c-0.43,0-0.867-0.101-1.274-0.314c-1.349-0.705-1.869-2.371-1.164-3.719
							l166.184-317.587c0.706-1.348,2.372-1.869,3.719-1.164c1.349,0.705,1.87,2.37,1.164,3.719l-166.184,317.587
							C1115.887,1228.046,1114.929,1228.584,1113.936,1228.584z" class="color0077ff svgShape"/><path fill="#00d1ff" d="M1000.386,1218.893c-0.431,0-0.867-0.101-1.275-0.314c-1.349-0.705-1.87-2.37-1.164-3.719
							l166.184-317.587c0.705-1.349,2.371-1.869,3.719-1.164c1.349,0.705,1.869,2.371,1.164,3.719l-166.184,317.587
							C1002.338,1218.356,1001.379,1218.893,1000.386,1218.893z" class="color0077ff svgShape"/><g class="color000000 svgShape"><path fill="#00d1ff" d="M1449.555,1257.794c-0.083,0-0.165-0.004-0.249-0.011l-553.807-49.485
							c-1.516-0.135-2.635-1.474-2.5-2.99c0.135-1.515,1.461-2.629,2.99-2.499l553.807,49.485c1.516,0.135,2.635,1.474,2.5,2.99
							C1452.168,1256.716,1450.966,1257.794,1449.555,1257.794z" class="color0077ff svgShape"/><path fill="#00d1ff" d="M1504.95,1151.675c-0.082,0-0.165-0.004-0.248-0.011l-553.808-49.485
							c-1.516-0.135-2.635-1.474-2.5-2.99c0.135-1.516,1.48-2.631,2.99-2.499l553.808,49.485c1.516,0.135,2.635,1.474,2.5,2.99
							C1507.563,1150.598,1506.361,1151.675,1504.95,1151.675z" class="color0077ff svgShape"/><path fill="#00d1ff" d="M1560.345,1045.557c-0.083,0-0.165-0.004-0.248-0.011l-553.808-49.485
							c-1.516-0.135-2.635-1.474-2.5-2.99c0.136-1.516,1.486-2.631,2.989-2.499l553.808,49.485c1.516,0.135,2.635,1.474,2.5,2.99
							C1562.958,1044.479,1561.756,1045.557,1560.345,1045.557z" class="color0077ff svgShape"/><path fill="#00d1ff" d="M1615.74,939.438c-0.083,0-0.165-0.004-0.249-0.011l-553.808-49.485
							c-1.516-0.135-2.635-1.474-2.5-2.99c0.135-1.516,1.476-2.631,2.989-2.499l553.808,49.485c1.516,0.135,2.635,1.474,2.5,2.99
							C1618.353,938.36,1617.151,939.438,1615.74,939.438z" class="color0077ff svgShape"/></g></g><g class="color000000 svgShape"><path fill="#00d1ff" d="M983.498,1736.692c-2.04,0-3.902-1.368-4.441-3.434c-0.64-2.454,0.83-4.963,3.285-5.603
				l28.166-7.348c2.458-0.643,4.962,0.83,5.602,3.284s-0.83,4.963-3.284,5.603l-28.166,7.348
				C984.271,1736.643,983.881,1736.692,983.498,1736.692z" class="color0077ff svgShape"/></g></g><g fill="#d85b53" class="color000000 svgShape"><path fill="#20b6d7" d="M1386.783,1955.707c0,0,7.215,19.348,4.135,38.65c-3.374,21.147,11.738,14.055,22.24,9.922
				c20.871-8.212,33.147-16.007,36.247-41.364C1452.507,1937.559,1387.438,1943.061,1386.783,1955.707z" class="color20d3d7 svgShape"/><path fill="#66e3ff" d="M1439.519,1898.725c-10.008-32.883-117.502-109.501-379.294-125.354
				c-95.115-5.76-158.805,25.085-282.745,67.015c-123.94,41.93-160.891,79.7-163.97,97.115c-1.21,6.843,3.167,12.83,8.926,17.579
				v22.511c-0.019,0.743-0.015,1.466,0,2.179v1.243h0.042c1.823,36.427,48.873,33.481,59.72,31.821
				c11.177-1.711,6.958-10.607,7.3-26.864c0.342-16.256,5.91-30.396,5.911-30.398c11.867-23.82,35.453-40.053,62.616-40.053
				c23.467,0,44.265,12.117,57.142,30.774l0,0l0,0c3.236,4.689,5.974,9.791,8.126,15.218l0.089,0.002
				c4.251,10.296,8.045,25.003,5.373,41.57c0,0-2.053,6.159,9.751,7.185c11.804,1.027,353.105-5.132,376.714-4.106
				c23.609,1.026,39.006,10.265,37.466-3.079c-1.54-13.344-2.109-24.635,1.255-39.775c9.481-28.437,36.312-48.939,67.935-48.939
				c37.727,0,68.637,29.178,71.399,66.199c17.321-0.679,41.102-2.391,50.86-6.71
				C1454.262,1969.374,1449.638,1931.976,1439.519,1898.725z" class="color66ffd3 svgShape"/><path fill="#00d1ff" d="M626.677,1941.367c0,0,0.513-10.094,6.33-16.937c5.817-6.843,42.77-30.452,44.138-24.635
				c1.369,5.817-9.067,22.582-17.792,33.189C650.628,1943.591,624.282,1956.422,626.677,1941.367z" class="color0077ff svgShape"/><path fill="#3fb7d1" d="M689.157,1930.972c0,0,54.745-67.661,124.203-22.155c0,0,37.975,22.582,32.163,81.433
				c0,0,2.053,8.554,4.448-12.66c2.395-21.214,6.793-71.505-48.244-90.671c-53.547-18.647-94.093,10.607-115.649,42.77
				C686.077,1929.689,673.76,1949.705,689.157,1930.972z" class="color3fd1a7 svgShape"/><path fill="#3fb7d1" d="M689.674,1982.175c0,0-51.383,0.539-64.898-7.356c0,0-3.965-1.932-6.735-0.505
				c-1.72,0.886-6.973,2.7-6.46,7.49c0.603,5.624,2.975,17.001,20.383,25.897c17.409,8.896,46.816,6.212,55.028,5.013
				c6.298-0.919,5.331-15.152,4.989-18.636C691.639,1990.593,691.901,1982.214,689.674,1982.175z" class="color3fd1a7 svgShape"/><path fill="#3fb7d1" d="M1448.01,1935.369l-62.198,18.344c0,0-1.086,1.382,0,4.462c1.086,3.079,5.448,15.302,4.422,27.796
				c-1.026,12.493-3.336,26.351,7.442,24.554c10.778-1.796,39.776-10.008,48.757-29.511S1457.773,1932.49,1448.01,1935.369z" class="color3fd1a7 svgShape"/><path fill="#26d7fe" d="M840.774,1843.031c0,0,88.555-50.603,192.679-52.549c98.843-1.848,286.841,21.781,256.756,54.009
				c-26.761,28.667-132.196,24.815-162.363,24.815c-8.525,0-35.159,0.493-68.983,1.199c2.428,1.361,5.152,3.089,8.087,5.304
				c13.629,10.287,26.46,27.656,30.543,33.749c9.045,13.5,0.724,24.637-23.118,23.287c-10.852-0.614,20.587,42.017,20.587,42.017
				l-62.025,1.833c0,0-23.138-54.045,2.104-55.44c45.071-2.49,13.199-39.768-3.486-42.409c-12.93-2.047-18.833-4.864-21.455-7.289
				c-79.62,1.761-169.327,3.914-169.327,3.914S784.461,1875.471,840.774,1843.031z" class="color30cfff svgShape" opacity=".5"/><path fill="#3fb7d1" d="M1149.24,1974.233c0,0,28.542,2.674,52.406-26.249c23.864-28.923,41.738-69.686,82.839-79.712
				c41.101-10.026,5.953-17.004-21.122-7.356c-27.075,9.648-50.17,36.208-75.573,58.339s-61.414,58.638-110.132,56.493
				C1028.94,1973.602,1136.094,1990.144,1149.24,1974.233z" class="color3fd1a7 svgShape"/><circle cx="757.321" cy="1985.969" r="58.515" fill="#590020" class="color000359 svgShape" transform="rotate(-77.05 757.243 1985.873)"/><circle cx="757.321" cy="1985.969" r="37.392" fill="#3fb7d1" class="color3fd1a7 svgShape"/><path fill="#590020" d="M758.186,1970.426c-0.536,0-1.051-0.296-1.307-0.807c-4.185-8.371-0.15-15.954,0.024-16.273
					c0.386-0.707,1.274-0.968,1.98-0.583c0.707,0.385,0.968,1.27,0.584,1.977c-0.144,0.268-3.465,6.6,0.022,13.573
					c0.361,0.721,0.069,1.598-0.653,1.959C758.628,1970.376,758.406,1970.426,758.186,1970.426z" class="color000359 svgShape"/><path fill="#590020" d="M756.454,2019.082c-0.219,0-0.442-0.05-0.652-0.154c-0.721-0.361-1.013-1.237-0.653-1.959
					c3.487-6.974,0.165-13.307,0.022-13.573c-0.381-0.708-0.118-1.594,0.59-1.977c0.708-0.384,1.59-0.124,1.976,0.583
					c0.174,0.319,4.21,7.902,0.024,16.273C757.505,2018.786,756.99,2019.082,756.454,2019.082z" class="color000359 svgShape"/><path fill="#590020" d="M732.293,1989.475c-4.179,0-7.191-1.404-7.392-1.5c-0.727-0.348-1.035-1.219-0.687-1.947
					c0.347-0.726,1.217-1.033,1.943-0.689c0.282,0.133,6.778,3.107,13.553-0.743c0.701-0.398,1.592-0.153,1.99,0.548
					c0.398,0.701,0.153,1.592-0.548,1.99C738.011,1988.92,734.921,1989.475,732.293,1989.475z" class="color000359 svgShape"/><path fill="#590020" d="M774.214,1987.259c-0.492,0-0.971-0.248-1.247-0.697c-0.42-0.686-0.208-1.581,0.477-2.004
					c0.309-0.191,7.667-4.623,16.249-0.889c0.739,0.322,1.078,1.182,0.756,1.921c-0.322,0.738-1.182,1.078-1.921,0.756
					c-7.149-3.113-13.297,0.542-13.555,0.699C774.735,1987.19,774.473,1987.259,774.214,1987.259z" class="color000359 svgShape"/><path fill="#590020" d="M764.708,1972.106c-0.765,0-1.407-0.595-1.456-1.369c-0.58-9.341,6.099-14.743,6.384-14.969
					c0.632-0.5,1.55-0.394,2.05,0.238c0.5,0.631,0.394,1.547-0.235,2.048c-0.244,0.196-5.768,4.725-5.285,12.502
					c0.05,0.804-0.562,1.497-1.366,1.547C764.769,1972.105,764.739,1972.106,764.708,1972.106z" class="color000359 svgShape"/><path fill="#590020" d="M744.099,2016.215c-0.413,0-0.823-0.174-1.112-0.513c-0.523-0.614-0.449-1.535,0.165-2.058
					c5.936-5.056,5.354-12.184,5.326-12.484c-0.074-0.801,0.514-1.513,1.315-1.589c0.803-0.069,1.512,0.509,1.591,1.309
					c0.035,0.362,0.786,8.919-6.339,14.988C744.77,2016.1,744.433,2016.215,744.099,2016.215z" class="color000359 svgShape"/><path fill="#590020" d="M739.831,1980.833c-8.057,0-12.966-5.45-13.188-5.701c-0.533-0.604-0.476-1.527,0.129-2.06
					c0.604-0.532,1.525-0.476,2.058,0.126c0.21,0.235,5.026,5.515,12.764,4.613c0.799-0.093,1.525,0.481,1.618,1.282
					c0.093,0.801-0.481,1.525-1.282,1.618C741.208,1980.794,740.508,1980.833,739.831,1980.833z" class="color000359 svgShape"/><path fill="#590020" d="M786.903,1998.961c-0.387,0-0.773-0.152-1.06-0.456c-5.364-5.658-12.452-4.697-12.75-4.655
					c-0.794,0.117-1.538-0.433-1.657-1.229c-0.119-0.795,0.427-1.537,1.222-1.658c0.359-0.056,8.865-1.259,15.304,5.534
					c0.555,0.585,0.53,1.509-0.055,2.063C787.625,1998.828,787.264,1998.961,786.903,1998.961z" class="color000359 svgShape"/><path fill="#590020" d="M770.318,1976.508c-0.172,0-0.348-0.031-0.518-0.095c-0.754-0.286-1.132-1.13-0.846-1.884
					c3.325-8.748,11.638-10.914,11.99-11.002c0.78-0.193,1.575,0.281,1.77,1.063c0.195,0.781-0.279,1.572-1.059,1.769
					c-0.301,0.077-7.203,1.923-9.972,9.208C771.461,1976.149,770.906,1976.508,770.318,1976.508z" class="color000359 svgShape"/><path fill="#590020" d="M733.343,2008.183c-0.634,0-1.218-0.417-1.402-1.056c-0.223-0.775,0.224-1.584,0.999-1.807
					c7.544-2.172,9.978-9.102,10.001-9.171c0.259-0.764,1.09-1.17,1.852-0.913c0.763,0.259,1.172,1.089,0.912,1.852
					c-0.117,0.344-2.964,8.449-11.958,11.037C733.612,2008.165,733.476,2008.183,733.343,2008.183z" class="color000359 svgShape"/><path fill="#590020" d="M745.86,1974.887c-0.148,0-0.298-0.023-0.446-0.07c-8.913-2.856-11.517-11.042-11.623-11.389
					c-0.236-0.771,0.197-1.587,0.967-1.824c0.77-0.235,1.585,0.195,1.823,0.964c0.096,0.306,2.309,7.092,9.724,9.469
					c0.768,0.246,1.191,1.068,0.945,1.835C747.051,1974.492,746.477,1974.887,745.86,1974.887z" class="color000359 svgShape"/><path fill="#590020" d="M779.454,2010.127c-0.605,0-1.17-0.379-1.379-0.983c-2.552-7.368-9.403-9.417-9.693-9.501
					c-0.773-0.223-1.222-1.03-1.002-1.803c0.22-0.773,1.021-1.225,1.797-1.006c0.349,0.098,8.594,2.511,11.657,11.355
					c0.264,0.762-0.14,1.593-0.902,1.857C779.774,2010.101,779.613,2010.127,779.454,2010.127z" class="color000359 svgShape"/><path fill="#590020" d="M773.091,1981.25c-0.327,0-0.656-0.109-0.929-0.334c-0.622-0.513-0.71-1.433-0.197-2.055
					c5.957-7.218,14.525-6.601,14.887-6.572c0.803,0.066,1.401,0.771,1.335,1.575c-0.066,0.802-0.771,1.408-1.571,1.335
					c-0.313-0.023-7.441-0.489-12.399,5.52C773.929,1981.068,773.511,1981.25,773.091,1981.25z" class="color000359 svgShape"/><path fill="#590020" d="M728.701,1999.401c-0.283,0-0.57-0.007-0.861-0.02c-0.805-0.037-1.428-0.721-1.39-1.526
					c0.037-0.806,0.727-1.426,1.526-1.39c7.852,0.369,12.371-5.418,12.416-5.476c0.491-0.639,1.407-0.759,2.047-0.27
					c0.64,0.491,0.76,1.407,0.27,2.047C742.493,1993.044,737.513,1999.401,728.701,1999.401z" class="color000359 svgShape"/><path fill="#590020" d="M750.446,1971.865c-0.302,0-0.606-0.093-0.867-0.286c-7.524-5.565-7.363-14.154-7.353-14.517
					c0.023-0.806,0.7-1.433,1.501-1.417c0.804,0.023,1.438,0.693,1.417,1.497c-0.007,0.303-0.098,7.453,6.171,12.089
					c0.648,0.479,0.785,1.394,0.306,2.042C751.335,1971.66,750.893,1971.865,750.446,1971.865z" class="color000359 svgShape"/><path fill="#590020" d="M770.955,2016.023c-0.802,0-1.454-0.647-1.459-1.45c-0.052-7.798-5.883-11.937-6.131-12.11
					c-0.661-0.459-0.827-1.367-0.37-2.029c0.457-0.662,1.361-0.83,2.025-0.376c0.299,0.206,7.333,5.136,7.396,14.495
					c0.006,0.806-0.644,1.464-1.45,1.47C770.961,2016.023,770.958,2016.023,770.955,2016.023z" class="color000359 svgShape"/><g class="color000000 svgShape"><circle cx="758.185" cy="1984.724" r="10.185" fill="#590020" class="color000359 svgShape" transform="rotate(-80.811 758.187 1984.672)"/></g><g class="color000000 svgShape"><circle cx="1321.878" cy="1985.969" r="58.515" fill="#590020" class="color000359 svgShape" transform="rotate(-45.001 1321.861 1985.994)"/><circle cx="1321.878" cy="1985.969" r="37.392" fill="#3fb7d1" class="color3fd1a7 svgShape"/><path fill="#590020" d="M1322.744,1970.426c-0.535,0-1.05-0.296-1.307-0.807c-4.185-8.371-0.15-15.954,0.024-16.273
					c0.386-0.708,1.272-0.968,1.98-0.583c0.707,0.385,0.968,1.27,0.584,1.977c-0.144,0.268-3.464,6.6,0.022,13.573
					c0.36,0.721,0.068,1.598-0.653,1.959C1323.186,1970.376,1322.963,1970.426,1322.744,1970.426z" class="color000359 svgShape"/><path fill="#590020" d="M1321.012,2019.082c-0.219,0-0.442-0.05-0.652-0.154c-0.721-0.361-1.013-1.237-0.653-1.959
					c3.511-7.021,0.059-13.505,0.024-13.569c-0.386-0.708-0.125-1.594,0.583-1.98c0.708-0.386,1.594-0.125,1.98,0.583
					c0.174,0.319,4.209,7.902,0.024,16.273C1322.062,2018.786,1321.547,2019.082,1321.012,2019.082z" class="color000359 svgShape"/><path fill="#590020" d="M1296.85,1989.475c-4.179,0-7.191-1.404-7.393-1.5c-0.727-0.348-1.034-1.219-0.687-1.947
					c0.347-0.726,1.216-1.033,1.943-0.689c0.281,0.133,6.776,3.107,13.552-0.743c0.701-0.398,1.592-0.153,1.99,0.548
					c0.398,0.701,0.153,1.592-0.548,1.99C1302.568,1988.92,1299.478,1989.475,1296.85,1989.475z" class="color000359 svgShape"/><path fill="#590020" d="M1338.771,1987.259c-0.492,0-0.972-0.248-1.247-0.697c-0.42-0.686-0.208-1.581,0.477-2.004
					c0.309-0.19,7.666-4.623,16.249-0.889c0.739,0.322,1.078,1.182,0.756,1.921c-0.322,0.739-1.182,1.078-1.921,0.756
					c-7.149-3.113-13.296,0.542-13.555,0.699C1339.293,1987.19,1339.03,1987.259,1338.771,1987.259z" class="color000359 svgShape"/><path fill="#590020" d="M1329.266,1972.106c-0.765,0-1.407-0.595-1.455-1.369c-0.58-9.341,6.099-14.743,6.384-14.969
					c0.631-0.5,1.55-0.394,2.05,0.238c0.5,0.631,0.394,1.547-0.235,2.048c-0.245,0.196-5.768,4.726-5.285,12.502
					c0.05,0.804-0.562,1.497-1.367,1.547C1329.327,1972.105,1329.296,1972.106,1329.266,1972.106z" class="color000359 svgShape"/><path fill="#590020" d="M1308.656,2016.215c-0.413,0-0.823-0.174-1.112-0.513c-0.523-0.614-0.449-1.535,0.165-2.058
					c5.976-5.09,5.334-12.407,5.327-12.48c-0.079-0.803,0.508-1.517,1.31-1.595c0.797-0.078,1.517,0.508,1.595,1.31
					c0.036,0.362,0.786,8.919-6.339,14.988C1309.327,2016.1,1308.991,2016.215,1308.656,2016.215z" class="color000359 svgShape"/><path fill="#590020" d="M1304.388,1980.833c-8.057,0-12.966-5.45-13.188-5.701c-0.533-0.604-0.476-1.527,0.129-2.06
					c0.604-0.532,1.524-0.475,2.058,0.126c0.21,0.235,5.018,5.512,12.764,4.613c0.798-0.098,1.525,0.481,1.618,1.282
					c0.093,0.801-0.482,1.525-1.282,1.618C1305.766,1980.794,1305.066,1980.833,1304.388,1980.833z" class="color000359 svgShape"/><path fill="#590020" d="M1351.461,1998.961c-0.387,0-0.773-0.152-1.06-0.456c-5.365-5.658-12.451-4.697-12.75-4.655
					c-0.799,0.116-1.539-0.433-1.657-1.229c-0.118-0.795,0.427-1.537,1.222-1.658c0.36-0.053,8.865-1.259,15.303,5.534
					c0.555,0.585,0.53,1.509-0.055,2.063C1352.182,1998.828,1351.821,1998.961,1351.461,1998.961z" class="color000359 svgShape"/><path fill="#590020" d="M1334.875,1976.508c-0.172,0-0.347-0.031-0.518-0.095c-0.754-0.286-1.132-1.13-0.846-1.884
					c3.326-8.748,11.639-10.914,11.991-11.002c0.784-0.193,1.574,0.281,1.77,1.063c0.195,0.781-0.279,1.572-1.059,1.769
					c-0.301,0.077-7.203,1.923-9.972,9.208C1336.018,1976.149,1335.463,1976.508,1334.875,1976.508z" class="color000359 svgShape"/><path fill="#590020" d="M1297.901,2008.183c-0.634,0-1.218-0.417-1.402-1.056c-0.223-0.775,0.224-1.584,0.999-1.807
					c7.544-2.172,9.977-9.102,10.001-9.171c0.26-0.763,1.089-1.172,1.852-0.913c0.764,0.259,1.172,1.089,0.913,1.852
					c-0.117,0.344-2.964,8.449-11.958,11.037C1298.17,2008.165,1298.034,2008.183,1297.901,2008.183z" class="color000359 svgShape"/><path fill="#590020" d="M1310.418,1974.887c-0.148,0-0.298-0.023-0.446-0.07c-8.913-2.856-11.517-11.042-11.623-11.389
					c-0.237-0.771,0.197-1.587,0.967-1.824c0.771-0.237,1.585,0.196,1.823,0.964c0.096,0.306,2.309,7.092,9.724,9.469
					c0.768,0.246,1.191,1.068,0.945,1.835C1311.609,1974.492,1311.035,1974.887,1310.418,1974.887z" class="color000359 svgShape"/><path fill="#590020" d="M1344.011,2010.127c-0.605,0-1.17-0.379-1.379-0.983c-2.552-7.368-9.403-9.417-9.693-9.501
					c-0.773-0.223-1.223-1.03-1.002-1.803c0.22-0.774,1.024-1.222,1.797-1.006c0.35,0.098,8.595,2.511,11.657,11.355
					c0.264,0.762-0.14,1.593-0.902,1.857C1344.331,2010.101,1344.17,2010.127,1344.011,2010.127z" class="color000359 svgShape"/><path fill="#590020" d="M1337.648,1981.25c-0.327,0-0.656-0.109-0.928-0.334c-0.622-0.513-0.71-1.433-0.197-2.055
					c5.957-7.219,14.524-6.601,14.887-6.572c0.803,0.066,1.401,0.771,1.335,1.575c-0.067,0.802-0.767,1.396-1.571,1.335
					c-0.313-0.021-7.441-0.488-12.4,5.52C1338.486,1981.068,1338.069,1981.25,1337.648,1981.25z" class="color000359 svgShape"/><path fill="#590020" d="M1293.258,1999.401c-0.283,0-0.57-0.007-0.861-0.02c-0.805-0.037-1.428-0.721-1.39-1.526
					c0.038-0.805,0.712-1.424,1.526-1.39c7.783,0.364,12.233-5.241,12.418-5.48c0.493-0.635,1.409-0.754,2.046-0.262
					c0.637,0.491,0.757,1.404,0.268,2.042C1307.051,1993.044,1302.071,1999.401,1293.258,1999.401z" class="color000359 svgShape"/><path fill="#590020" d="M1315.004,1971.865c-0.302,0-0.606-0.093-0.867-0.286c-7.524-5.565-7.363-14.154-7.353-14.517
					c0.023-0.792,0.672-1.417,1.458-1.417c0.015,0,0.029,0,0.043,0c0.804,0.023,1.438,0.693,1.417,1.497
					c-0.007,0.303-0.098,7.453,6.17,12.089c0.648,0.479,0.785,1.394,0.306,2.042
					C1315.892,1971.66,1315.45,1971.865,1315.004,1971.865z" class="color000359 svgShape"/><path fill="#590020" d="M1335.512,2016.023c-0.802,0-1.454-0.647-1.46-1.45c-0.052-7.797-5.883-11.937-6.131-12.109
					c-0.661-0.458-0.827-1.367-0.37-2.029c0.457-0.663,1.362-0.83,2.025-0.376c0.299,0.206,7.334,5.136,7.396,14.496
					c0.005,0.806-0.644,1.464-1.45,1.469C1335.522,2016.023,1335.515,2016.023,1335.512,2016.023z" class="color000359 svgShape"/><g class="color000000 svgShape"><circle cx="1322.743" cy="1984.724" r="10.185" fill="#590020" class="color000359 svgShape" transform="rotate(-76.714 1322.898 1984.832)"/></g></g><g class="color000000 svgShape"><path fill="#3fb7d1" d="M828.831,1981.013l423.533-8.962c0,0,1.36,0.074,1.612,4.518c0.251,4.444,1.288,17.275,0,21.894
				c-1.289,4.619,4.713,13.952-7.961,11.92c-12.674-2.031-149.496-0.854-196.641,0.285c-47.145,1.139-206.338,2.841-206.338,2.841
				s-16.333,0.864-16.846-8.374C825.677,1995.896,826.188,1981.069,828.831,1981.013z" class="color3fd1a7 svgShape"/></g><g class="color000000 svgShape"><path fill="#00d1ff" d="M830.432,1838.475c0,0,88.555-50.603,192.679-52.549c98.843-1.848,286.841,21.781,256.756,54.009
				c-26.761,28.667-132.196,24.815-162.363,24.815c-30.167,0-287.073,6.166-287.073,6.166S774.119,1870.915,830.432,1838.475z" class="color0077ff svgShape"/></g><g class="color000000 svgShape" opacity=".5"><path fill="#26d7fe" d="M1019.532,1786.016c0,0,32.216,34.065,24.714,42.354c-7.502,8.289-48.004,4.584-19.147,38.076
				l-54.68,1.21c0,0-28.847-38.591-6.066-48.716c22.781-10.125,40.568-5.062,30.662-16.199
				c-9.906-11.137-15.279-13.303-15.279-13.303S1012.459,1786.159,1019.532,1786.016z" class="color30cfff svgShape"/></g><g class="color000000 svgShape"><path fill="#00d1ff" d="M1442.056,1907.582c0,0-0.816-16.336-17.709-30.216c-16.892-13.88-23.114,16.091-34.757,30.216
				C1377.947,1921.706,1445.417,1931.424,1442.056,1907.582z" class="color0077ff svgShape"/></g></g><g fill="#d85b53" class="color000000 svgShape"><path fill="#26d7fe" d="M1873.383,844.096c-12.935,0-25.954-0.272-39.048-0.816
			c-116.134-4.831-198.872-29.829-199.694-30.081c-0.97-0.297-1.515-1.324-1.218-2.294c0.298-0.97,1.327-1.516,2.294-1.218
			c0.818,0.251,83.19,25.128,198.88,29.927c106.698,4.423,264.379-7.811,409.64-91.244c0.879-0.505,2.002-0.201,2.508,0.678
			c0.505,0.879,0.202,2.002-0.678,2.508c-64.503,37.049-136.79,63.343-214.853,78.153
			C1980.768,839.278,1927.834,844.096,1873.383,844.096z" class="color30cfff svgShape"/></g><g fill="#d85b53" class="color000000 svgShape"><path fill="#26d7fe" d="M1172.646,873.479c-0.864,0-1.633-0.612-1.802-1.491c-0.191-0.996,0.461-1.959,1.458-2.15
			c148.01-28.415,285.487-92.958,374.754-142.099c96.759-53.266,159.298-100.417,159.918-100.887
			c0.448-0.338,1.026-0.454,1.566-0.315c0.801,0.205,81.409,20.589,196.026,24.723c105.732,3.812,262.838-5.815,410.929-73.341
			c0.923-0.419,2.013-0.015,2.433,0.909c0.422,0.923,0.014,2.012-0.909,2.433c-65.705,29.959-138.631,51.169-216.752,63.04
			c-62.475,9.493-128.397,13.069-195.931,10.627c-108.631-3.928-186.854-22.413-195.85-24.619
			c-7.176,5.353-68.153,50.268-159.599,100.615c-56.954,31.356-114.422,58.662-170.807,81.157
			c-70.501,28.128-139.503,48.774-205.086,61.365C1172.877,873.468,1172.76,873.479,1172.646,873.479z" class="color30cfff svgShape"/></g><g fill="#d85b53" class="color000000 svgShape"><path fill="#fff" d="M2148.528,1479.241c3.297,0,5.97-2.673,5.97-5.97V1339.21c0-16.324-10.99-35.649-25.02-43.993
				l-155.996-92.785c-2.833-1.685-6.497-0.755-8.184,2.079c-1.685,2.834-0.754,6.497,2.079,8.183l155.996,92.785
				c10.399,6.185,19.184,21.633,19.184,33.732v134.061C2142.558,1476.568,2145.231,1479.241,2148.528,1479.241z" class="colorffffff svgShape"/><circle cx="2148.528" cy="1473.271" r="18.765" fill="#fff" class="colorffffff svgShape"/><circle cx="1970.429" cy="1207.563" r="18.765" fill="#fff" class="colorffffff svgShape" transform="rotate(-13.286 1969.99 1207.37)"/></g><g fill="#d85b53" class="color000000 svgShape"><path fill="#26d7fe" d="M2140.823,1484.806c3.297,0,5.97-2.673,5.97-5.97v-134.061c0-16.324-10.99-35.649-25.02-43.994
				l-155.996-92.785c-2.833-1.685-6.497-0.755-8.184,2.079c-1.685,2.834-0.754,6.497,2.079,8.183l155.996,92.785
				c10.399,6.185,19.184,21.633,19.184,33.732v134.061C2134.853,1482.133,2137.526,1484.806,2140.823,1484.806z" class="color30cfff svgShape"/><circle cx="2140.823" cy="1478.836" r="18.765" fill="#26d7fe" class="color30cfff svgShape" transform="rotate(-13.286 2140.34 1478.592)"/><circle cx="1962.724" cy="1213.127" r="18.765" fill="#26d7fe" class="color30cfff svgShape" transform="rotate(-45.001 1962.72 1213.156)"/></g><g fill="#d85b53" class="color000000 svgShape"><path fill="#26d7fe" d="M2567.343,1883.039c-2.103-16.393-9.494-33.008-21.968-49.382
			c-26.738-35.097-81.589-66.171-163.026-92.36c-64.21-20.648-145.308-38.491-241.045-53.033
			c-111.612-16.953-217.643-25.438-273.715-29.116v17.486c55.986,3.692,160.779,12.127,271.094,28.883
			c212.424,32.265,348.256,80.232,392.811,138.716c21.017,27.587,24.637,53.443,11.066,79.045
			c-17.922,33.812-66.714,66.697-141.103,95.101c-76.846,29.342-178.802,53.718-303.033,72.451
			c-268.007,40.413-609.074,50.798-986.333,30.031c-219.677-12.093-389.8-35.285-505.646-68.933
			c-95.002-27.594-156.448-63.106-182.631-105.551c-32.407-52.534-8.184-108.215,13.187-157.342
			c5.658-13.006,11.002-25.29,14.9-36.762c20.448-60.175,21.329-120.076,18.468-159.731c-3.1-42.96-10.945-71.46-11.277-72.652
			c-1.295-4.642-6.108-7.356-10.748-6.061c-4.642,1.294-7.355,6.106-6.061,10.748c0.309,1.108,30.47,112.094-6.903,222.081
			c-3.666,10.788-8.87,22.75-14.379,35.415c-21.934,50.42-49.232,113.17-12.037,173.465
			c28.927,46.892,91.932,83.903,192.615,113.147c117.118,34.018,288.556,57.434,509.554,69.599
			c125.105,6.887,246.977,10.339,364.251,10.339c63.208,0,125.095-1.003,185.398-3.013c163.021-5.432,311.141-18.058,440.246-37.525
			c125.468-18.919,228.641-43.616,306.655-73.403c79.517-30.361,130.084-65.093,150.298-103.231
			C2566.299,1915.752,2569.449,1899.464,2567.343,1883.039z" class="color30cfff svgShape"/></g><g fill="#d85b53" class="color000000 svgShape"><path fill="#00819e" d="M469.745,1538.678c-0.632,9.071-8.589,16.492-17.682,16.492h-2.755
				c-9.093,0-17.049-7.422-17.682-16.492l-2.293-32.892c-0.632-9.071,6.29-16.492,15.382-16.492h11.94
				c9.093,0,16.015,7.421,15.382,16.492L469.745,1538.678z" class="color003a9e svgShape"/><path fill="#590020" d="M429.817,1512.731c14.091-0.956,28.041-3.366,42.078-4.907l0.142-2.039
				c0.632-9.071-6.29-16.492-15.382-16.492h-11.94c-9.093,0-16.015,7.421-15.383,16.492L429.817,1512.731z" class="color000359 svgShape"/><path fill="#26d7fe" d="M504.415,1274.994H401.549c-6.848,0-12.399-5.551-12.399-12.399v-115.469
				c0-6.848,5.551-12.399,12.399-12.399c6.848,0,12.399,5.551,12.399,12.399v103.07h78.068v-103.07
				c0-6.848,5.551-12.399,12.399-12.399s12.399,5.551,12.399,12.399v115.469C516.814,1269.443,511.263,1274.994,504.415,1274.994z" class="color30cfff svgShape"/><path fill="#00819e" d="M526.654,1469.162c-1.118,16.126-15.259,29.32-31.424,29.32h-86.334
				c-16.165,0-30.305-13.194-31.424-29.32l-12.465-179.747c-1.118-16.126,11.192-29.32,27.357-29.32h119.398
				c16.165,0,28.475,13.194,27.357,29.32L526.654,1469.162z" class="color003a9e svgShape"/><path fill="#00819e" d="M556.766,1266.931c0,9.093-7.439,16.532-16.532,16.532H361.137
				c-9.093,0-16.532-7.439-16.532-16.532v-8.673c0-9.093,7.439-16.532,16.532-16.532h179.097c9.093,0,16.532,7.439,16.532,16.532
				V1266.931z" class="color003a9e svgShape"/><path fill="#009cbe" d="M540.898,1266.983H389.149c-3.805,0-6.888-3.084-6.888-6.888c0-3.804,3.084-6.888,6.888-6.888
				h151.748c3.805,0,6.888,3.084,6.888,6.888C547.786,1263.899,544.702,1266.983,540.898,1266.983z" class="color0045be svgShape"/><path fill="#009cbe" d="M450.63,1482.317c-0.037,0-0.069,0-0.106,0c-3.805-0.002-6.887-3.088-6.885-6.892
				c0.002-3.802,3.086-6.884,6.888-6.884c0.077-0.004,0.071,0,0.102,0c30.052,0,43.108-7.614,48.772-14.007
				c5.726-6.461,5.218-13.082,5.145-13.793c-0.1-0.565-0.095-0.96-0.049-1.542l8.283-103.857c0.302-3.792,3.599-6.635,7.415-6.319
				c3.792,0.302,6.621,3.622,6.319,7.414l-8.229,103.177c0.487,5.108-0.737,14.948-8.201,23.632
				C499.207,1475.9,479.202,1482.316,450.63,1482.317z" class="color0045be svgShape"/><polygon fill="#590020" points="365.209 1283.463 540.234 1283.464 538.473 1302.792 367.316 1319.398" class="color000359 svgShape"/><path fill="#26d7fe" d="M405.407,1236.172c-3.043,0-5.511-2.467-5.511-5.511v-81.283c0-3.043,2.467-5.511,5.511-5.511
				c3.043,0,5.511,2.467,5.511,5.511v81.283C410.918,1233.705,408.45,1236.172,405.407,1236.172z" class="color30cfff svgShape"/><path fill="#26d7fe" d="M508.732,1236.172c-3.043,0-5.511-2.467-5.511-5.511v-81.283c0-3.043,2.467-5.511,5.511-5.511
				c3.043,0,5.511,2.467,5.511,5.511v81.283C514.243,1233.705,511.775,1236.172,508.732,1236.172z" class="color30cfff svgShape"/></g><g fill="#d85b53" class="color000000 svgShape"><path fill="#fff" d="M2482.276,1858.867c0,21.216-17.359,38.575-38.575,38.575h-493.273
				c-21.216,0-38.575-17.359-38.575-38.575v-303.316c0-21.216,17.359-38.575,38.575-38.575h493.273
				c21.216,0,38.575,17.359,38.575,38.575V1858.867z" class="colorffffff svgShape"/><path fill="#26d7fe" d="M2500.302,1871.871c0,21.216-17.358,38.575-38.575,38.575h-493.273
				c-21.216,0-38.575-17.359-38.575-38.575v-303.316c0-21.216,17.359-38.575,38.575-38.575h493.273
				c21.216,0,38.575,17.359,38.575,38.575V1871.871z" class="color30cfff svgShape"/><path fill="#fff" d="M2444.04,1597.612h-451.693c-7.862,0-14.236-6.373-14.236-14.236
				c0-7.863,6.374-14.236,14.236-14.236h451.693c7.862,0,14.236,6.373,14.236,14.236
				C2458.276,1591.239,2451.903,1597.612,2444.04,1597.612z" class="colorffffff svgShape"/><path fill="#fff" d="M2201.218,1661.903h-208.87c-7.862,0-14.236-6.374-14.236-14.236s6.374-14.236,14.236-14.236
				h208.87c7.862,0,14.236,6.373,14.236,14.236S2209.08,1661.903,2201.218,1661.903z" class="colorffffff svgShape"/><path fill="#fff" d="M2081.006,1676.032c-1.794-1.778-4.724-1.772-6.51,0.012l-107.29,107.165
				c-1.787,1.785-1.183,3.245,1.343,3.245h19.208c2.526,0,4.592,2.067,4.592,4.592v87.198c0,2.526,2.067,4.592,4.592,4.592h162.49
				c2.526,0,4.592-2.067,4.592-4.592v-87.198c0-2.526,2.066-4.592,4.592-4.592h19.207c2.526,0,3.125-1.455,1.331-3.233
				L2081.006,1676.032z M2056.483,1867.12c0,2.526-2.067,4.592-4.592,4.592h-28.354c-2.526,0-4.592-2.067-4.592-4.592v-56.025
				c0-2.526,2.067-4.592,4.592-4.592h28.354c2.526,0,4.592,2.067,4.592,4.592V1867.12z M2133.861,1839.566
				c0,2.526-2.066,4.592-4.592,4.592h-46.492c-2.526,0-4.592-2.067-4.592-4.592v-30.309c0-2.526,2.066-4.592,4.592-4.592h46.492
				c2.526,0,4.592,2.067,4.592,4.592V1839.566z" class="colorffffff svgShape"/><rect width="25.717" height="56.944" x="2225.706" y="1822.116" fill="#fff" class="colorffffff svgShape"/><rect width="25.717" height="12.858" x="2267.955" y="1866.201" fill="#fff" class="colorffffff svgShape"/><rect width="25.717" height="77.15" x="2310.203" y="1801.91" fill="#fff" class="colorffffff svgShape"/><rect width="25.717" height="139.604" x="2352.452" y="1739.455" fill="#fff" class="colorffffff svgShape"/><rect width="25.717" height="56.944" x="2394.7" y="1822.116" fill="#fff" class="colorffffff svgShape"/><rect width="25.717" height="231.392" x="2436.949" y="1647.667" fill="#fff" class="colorffffff svgShape"/></g></svg>